<?xml version="1.0" encoding="utf-8"?>
<svg xmlns="http://www.w3.org/2000/svg" viewBox="0 0 500 500">
  <g transform="matrix(18.141243, 0, 0, 18.195171, -64.627029, 28.883818)" style="">
    <g/>
    <g>
      <g>
        <path d="M13.75,7h-3.5C9.04,7,8.11,8.07,8.27,9.26L10,22h4l1.73-12.74C15.89,8.07,14.96,7,13.75,7z" style="fill-opacity: 0.22;"/>
        <circle cx="12" cy="4" r="2" style="fill-opacity: 0.22;"/>
      </g>
    </g>
  </g>
  <g transform="matrix(10.086357, 0, 0, 10.296998, 306.999023, 200.848587)" style="">
    <g/>
    <g>
      <g>
        <path d="M13.75,7h-3.5C9.04,7,8.11,8.07,8.27,9.26L10,22h4l1.73-12.74C15.89,8.07,14.96,7,13.75,7z"/>
        <circle cx="12" cy="4" r="2"/>
      </g>
    </g>
  </g>
  <g transform="matrix(10.086357, 0, 0, 10.296998, 201.41806, 202.480453)" style="">
    <g/>
    <g>
      <g>
        <path d="M13.75,7h-3.5C9.04,7,8.11,8.07,8.27,9.26L10,22h4l1.73-12.74C15.89,8.07,14.96,7,13.75,7z"/>
        <circle cx="12" cy="4" r="2"/>
      </g>
    </g>
  </g>
  <g transform="matrix(12.441323, 0, 0, 12.206268, 1.350948, 158.028763)" style="">
    <g>
      <path d="M4.5,4c0-1.11,0.89-2,2-2s2,0.89,2,2s-0.89,2-2,2S4.5,5.11,4.5,4z M10,10.95V9c0-1.1-0.9-2-2-2H5C3.9,7,3,7.9,3,9v6h2v7 h3.5v-0.11c-1.24-1.26-2-2.99-2-4.89C6.5,14.42,7.91,12.16,10,10.95z M16.5,17c0,1.65-1.35,3-3,3s-3-1.35-3-3 c0-1.11,0.61-2.06,1.5-2.58v-2.16C9.98,12.9,8.5,14.77,8.5,17c0,2.76,2.24,5,5,5s5-2.24,5-5H16.5z M19.54,14H15V8h-2v8h5.46 l2.47,3.71l1.66-1.11L19.54,14z"/>
    </g>
  </g>
</svg>