<?xml version="1.0" encoding="utf-8"?>
<svg xmlns="http://www.w3.org/2000/svg" viewBox="0 0 500 500">
  <g transform="matrix(18.141243, 0, 0, 18.195171, -64.627029, 28.883818)" style="">
    <g/>
    <g>
      <g>
        <path d="M13.75,7h-3.5C9.04,7,8.11,8.07,8.27,9.26L10,22h4l1.73-12.74C15.89,8.07,14.96,7,13.75,7z"/>
        <circle cx="12" cy="4" r="2"/>
      </g>
    </g>
  </g>
  <g transform="matrix(10.086357, 0, 0, 10.296998, 255.106049, 200.848587)" style="">
    <g/>
    <g>
      <g>
        <path d="M13.75,7h-3.5C9.04,7,8.11,8.07,8.27,9.26L10,22h4l1.73-12.74C15.89,8.07,14.96,7,13.75,7z"/>
        <circle cx="12" cy="4" r="2"/>
      </g>
    </g>
  </g>
  <g transform="matrix(10.086357, 0, 0, 10.296998, 156.705246, 200.848602)" style="">
    <g/>
    <g>
      <g>
        <path d="M13.75,7h-3.5C9.04,7,8.11,8.07,8.27,9.26L10,22h4l1.73-12.74C15.89,8.07,14.96,7,13.75,7z"/>
        <circle cx="12" cy="4" r="2"/>
      </g>
    </g>
  </g>
</svg>