<?xml version="1.0" encoding="utf-8"?>
<svg viewBox="0 0 500 500" xmlns="http://www.w3.org/2000/svg">
  <defs/>
  <polygon style="" points="101.054 172.709 100.327 381.078 160.224 381.078 159.134 443.879 317.408 444.604 327.935 435.166 337.736 435.166 347.9 437.344 353.708 437.707 360.968 442.064 364.235 448.96 370.406 443.515 376.161 438.795 382.749 431.536 392.913 430.81 404.166 424.913 404.166 410.844 397.632 405.036 397.632 387.612 398.721 376.358 401.263 361.398 401.263 354.941 394.728 361.398 387.831 361.398 383.838 351.311 376.161 341.872 363.509 334.613 357.339 324.447 352.982 315.736 352.62 308.475 343.907 297.884 338.462 297.884 336.284 297.884 335.558 303.031 330.475 297.884 325.393 282.702 320.311 270.359 312.647 262.373 312.647 255.113 306.517 248.216 290.181 243.496 286.915 234.37 277.839 234.37 266.585 226.798 262.956 213.367 260.415 200.299 257.511 185.052 249.132 175.976 244.413 157.827 242.991 142.58 244.079 134.957 233.914 127.696 227.744 120.8 223.025 119.71 216.854 125.155 213.223 119.348 211.408 107.342 209.23 88.855 206.326 81.231 201.607 75.06 204.511 71.43 198.34 68.888 196.162 55.457 191.789 43.828 180.899 50.738 177.648 67.436 172.204 84.498 172.566 95.025 171.84 107.342 170.388 117.532 171.114 133.868 171.476 145.484 167.847 162.545 163.128 176.34 159.498 183.6 156.594 190.861 151.511 193.401 144.977 197.031 134.087 194.127 127.191 188.682 122.104 181.421 114.121 176.34"/>
</svg>