<?xml version="1.0" encoding="utf-8"?>
<svg viewBox="0 0 500 500" xmlns="http://www.w3.org/2000/svg">
  <defs/>
  <path style="" d="M 345.917 49.171 L 339.287 62.26 L 333.747 57.541 L 327.507 62.26 L 324.14 62.26 L 325.403 70.605 L 320.354 70.184 L 314.885 74.392 L 313.201 81.123 L 313.623 87.014 L 311.518 95.849 L 305.208 92.062 L 298.055 92.062 L 295.951 100.898 L 301.421 107.629 L 298.055 111.416 L 295.566 119.429 L 290.333 105.526 L 284.171 99.215 L 275.336 109.733 L 270.287 119.192 L 273.232 128.666 L 271.128 132.031 L 266.501 136.239 L 261.872 143.392 L 259.348 152.648 L 250.512 159.8 L 233.403 165.691 L 221.062 166.112 L 211.405 172.327 L 200.487 174.584 L 187.414 182.176 L 182.714 179.669 L 178.361 181.097 L 176.234 179.508 L 167.988 184.131 L 164.262 187.989 L 158.372 192.617 L 152.44 196.804 L 144.908 200.611 C 144.995 200.611 141.755 200.788 139.834 202.486 C 137.951 204.153 137.386 207.344 137.335 207.344 L 133.998 214.858 L 130.861 215.696 L 129.311 210.216 L 130.275 202.637 L 126.93 203.939 L 121.182 216.927 L 124.054 224.9 L 123.647 233.292 L 123.236 236.526 L 119.541 240.581 C 119.541 240.581 117.118 243.396 116.635 246.497 C 116.072 250.114 117.414 254.044 117.078 253.203 C 118.172 253.203 122.18 266.304 121.086 266.304 L 125.976 274.24 L 130.603 280.129 L 131.445 289.985 L 129.442 293.671 L 125.04 287.645 L 123.513 289.985 L 124.768 292.125 L 124.71 295.781 C 124.219 298.035 118.215 296.061 119.541 289.985 L 115.02 286.531 L 112.032 282.322 L 109 275.63 L 109.449 281.101 L 119.541 299.483 L 126.396 307.478 C 126.41 307.48 130.275 316.609 128.5 316.313 C 128.792 316.313 128.975 319.614 129.885 322.946 C 130.812 326.346 132.464 329.777 132.287 329.777 C 134.842 328.597 140.902 341.262 139.383 341.964 L 143.226 346.916 L 144.277 356.399 L 143.646 365.539 L 151.641 386.575 L 158.372 403.848 L 157.818 413.129 L 156.308 416.787 L 157.11 425.282 L 153.323 434.538 L 149.481 435.762 L 145.638 434.125 L 145.33 445.058 L 148.043 449.453 L 152.598 449.142 L 158.372 452.209 L 163.289 459.145 L 167.628 460.779 L 178.511 463.52 L 186.908 462.964 L 189.837 464.864 L 200.024 460.779 L 212.948 452.651 L 223.165 451.788 L 227.656 443.815 L 233.403 442.954 L 248.83 439.588 L 267.762 440.429 L 290.333 442.112 L 298.476 440.85 L 303.946 431.593 L 305.698 426.335 L 309.836 421.076 L 317.579 420.742 L 330.872 413.502 L 347.265 410.136 L 363.269 409.738 L 379.677 403.848 L 391.458 397.935 L 391.448 66.056 L 381.052 64.62 L 377.574 73.97 L 375.89 62.26 L 365.373 52.092 L 356.957 45.781 L 345.686 49.171"/>
</svg>