<svg xmlns="http://www.w3.org/2000/svg" width="164" height="69" fill="none"><path fill="#fff" d="M0-1.8h164v70.1H0v-70z"/><g fill="#000"><path fill-rule="evenodd" d="M25.6 34.1v8.2h4.6v-10c0-2.6-1.5-4.4-4.7-4.4a6.4 6.4 0 0 0-5 2.1v-7h-4.4v19.3h4.5v-9c.5-.7 1.4-1.4 2.7-1.4 1.4 0 2.4.5 2.4 2.2zM9.3 38.7c-.5.7-1.5 1-2.5 1-1.2 0-2.3-.5-2.3-1.6s1-1.6 2.3-1.6c1 0 2 .3 2.5 1zM7.2 27.9a10 10 0 0 0-6.4 2.2l1.7 3.1c1-1 2.5-1.5 4-1.5 1.7 0 2.8.8 2.8 2v1.5a6 6 0 0 0-4.4-1.7C2.7 33.5 0 34.6 0 38c0 3.2 2.7 4.7 4.9 4.7 1.8 0 3.5-.7 4.4-1.8v1.4h4.5v-8.8c0-4.3-3.2-5.6-6.6-5.6zm43.3 0a6.1 6.1 0 0 0-4.9 2.5c-.6-1.6-2-2.5-4-2.5a6.3 6.3 0 0 0-4.7 2v-1.6h-4.5v14H37v-9c.5-.6 1.3-1.4 2.6-1.4s1.8.8 1.8 1.9v8.5h4.5v-9a3.3 3.3 0 0 1 2.6-1.4c1.3 0 1.9.8 1.9 1.8v8.6h4.5V32c0-2.9-1.7-4.2-4.3-4.2zm28.2 33.7c-1-.7-2.5-.6-3.4.3-.1.1-.4.2-.5 0-.5-1.6-1.4-3-2.5-4.2l5.2-7.1c.6-.9.8-2.6-.1-3.2l-6.5 8.9V59c1.7 1 3 2.3 3.8 5.2.2.6.5 1 1 1.4a2.6 2.6 0 0 0 4-2.5 2.5 2.5 0 0 0-1-1.6zm-.2 3a1.6 1.6 0 1 1-1.6-2.6 1.6 1.6 0 0 1 1.6 2.6z" clip-rule="evenodd"/><path d="M71 62.8h-1.7v5.5H71zm0-8.1h-1.7v5.6H71zm0-8.1h-1.7V52H71v-5.5zm0-8.1h-1.7V44H71zm0-8.1h-1.7v5.5H71zm0-8.2h-1.7v5.6H71zm0-8h-1.7v5.5H71V14zM71 6h-1.7v5.6H71zm0-8h-1.7v5.5H71zm19 37.7L86.3 30H89l2 3.5 2.1-3.5H96l-3.6 5.7v3.8H90z"/><path d="M93.8 36c0-1.9 1.4-3.5 3.7-3.5 2.4 0 3.8 1.6 3.8 3.6s-1.4 3.6-3.8 3.6a3.6 3.6 0 0 1-3.7-3.6zm5.2 0c0-.8-.5-1.6-1.5-1.6s-1.5.8-1.5 1.7c0 1 .6 1.7 1.5 1.7 1 0 1.5-.8 1.5-1.7zm7.8 2.7a3.1 3.1 0 0 1-2.4 1c-1.6 0-2.3-.9-2.3-2.2v-4.8h2.2v4c0 .8.5 1 1.2 1 .6 0 1-.3 1.3-.6v-4.4h2.2v6.8h-2.2zm3-5c.4-.2 1-.8 1.1-1.4h-.3c-.6 0-1.1-.4-1.1-1.1s.6-1.3 1.3-1.3c.8 0 1.5.6 1.5 1.6a3.6 3.6 0 0 1-1.7 3l-.9-.8zm2.9-1h2.2v.8a3 3 0 0 1 2.1-1v2.1h-.5c-.6 0-1.4.2-1.6.6v4.3h-2.2zm8.5-.2c2 0 3.5 1.5 3.5 3.8v.5h-4.9c.2.6.8 1.2 1.8 1.2.6 0 1.3-.2 1.7-.6l.9 1.4c-.8.6-1.8 1-2.9 1a3.6 3.6 0 0 1-3.7-3.7 3.6 3.6 0 0 1 3.6-3.6zm-1.4 2.9h2.8c0-.5-.4-1.2-1.4-1.2a1.4 1.4 0 0 0-1.4 1.2zm10.4 4.3a2.8 2.8 0 0 0 2.1.8c.8 0 1.8-.3 1.8-1.6v-.5a2.6 2.6 0 0 1-2 1c-1.7 0-3.1-1.1-3.1-3.5 0-2.2 1.3-3.4 3-3.4.8 0 1.5.3 2 1v-.9h2.3V39c0 2.8-2.3 3.4-4 3.4-1.2 0-2.1-.3-3-1l1-1.6zm3.9-4.7a1.8 1.8 0 0 0-1.3-.6c-.9 0-1.5.5-1.5 1.5s.6 1.6 1.5 1.6c.4 0 1-.3 1.3-.6zm2.7 1c0-1.9 1.5-3.5 3.8-3.5s3.7 1.6 3.7 3.6-1.3 3.6-3.7 3.6a3.5 3.5 0 0 1-3.7-3.6zm5.3 0c0-.8-.5-1.6-1.5-1.6s-1.5.8-1.5 1.7c0 1 .5 1.7 1.5 1.7S142 37 142 36zm3 0c0-1.9 1.4-3.5 3.7-3.5s3.7 1.6 3.7 3.6-1.3 3.6-3.7 3.6a3.5 3.5 0 0 1-3.7-3.6zm5.2 0c0-.8-.5-1.6-1.5-1.6s-1.5.8-1.5 1.7c0 1 .5 1.7 1.5 1.7s1.5-.8 1.5-1.7zm8 2.7a2.6 2.6 0 0 1-2 1c-1.7 0-3-1.3-3-3.6s1.3-3.6 3-3.6c.7 0 1.5.3 2 1V30h2.2v9.5h-2.2zm0-3.7a2 2 0 0 0-1.3-.6c-.9 0-1.5.6-1.5 1.7 0 1 .6 1.7 1.5 1.7.5 0 1-.3 1.3-.7v-2zm4.4 2c.7 0 1.3.6 1.3 1.4 0 .7-.6 1.3-1.3 1.3a1.3 1.3 0 0 1-1.4-1.3c0-.8.6-1.4 1.4-1.4z"/></g></svg>