<svg xmlns="http://www.w3.org/2000/svg" fill="none" viewBox="0 0 334 64" height="64" width="334">
    <path fill="#F37021" d="M54.4362 29.6436C57.4404 25.8818 59.0081 21.6477 59.0081 17.0299C59.0081 7.58767 52.3864 1.00206 43.1902 0.0476683C42.3539 -0.0376035 37.8246 -0.2803 33.7283 2.29097C32.5443 3.03546 30.5732 4.51132 29.4647 5.27221C28.4152 4.57364 26.759 3.53069 25.3323 2.65174C22.5118 0.910225 19.6388 0.165737 16.4575 0.165737C7.21203 0.165737 0 7.58439 0 17.0266C0 21.6444 1.56769 25.8752 4.57188 29.6403C5.95591 31.3588 21.3836 46.4323 24.3746 49.3709C25.1454 45.6156 27.0509 44.0217 27.0509 44.0217C23.9352 40.9486 9.95385 27.2592 9.01258 26.0818C6.74631 23.2482 5.68698 20.2538 5.68698 17.0266C5.68698 10.7985 10.272 5.85271 16.4575 5.85271C18.586 5.85271 20.4915 6.52833 22.3675 7.50896C27.1197 9.99168 28.6021 11.9529 29.5008 12.5531C30.3994 11.9562 32.6985 9.1324 36.8243 7.29577C38.2247 6.67263 40.4156 5.85271 42.5441 5.85271C48.7296 5.85271 53.3146 10.7985 53.3146 17.0266C53.3146 20.2538 52.2552 23.2482 49.989 26.0818C49.0477 27.2592 43.2066 33.0315 40.0909 36.1045L31.7146 27.7413C31.9441 27.0428 32.0688 26.2983 32.0688 25.5276C32.0688 21.5919 28.8809 18.4041 24.942 18.4041C21.0097 18.4041 17.8218 21.5919 17.8218 25.5276C17.8218 29.4632 21.0097 32.651 24.942 32.651C25.8997 32.651 26.8114 32.4608 27.6412 32.123L35.742 40.2304C32.0786 43.3035 28.3201 46.4749 28.3201 51.8667C28.3201 58.1572 33.4266 63.2571 39.7104 63.2833C46.0206 63.2833 51.1566 58.1736 51.1566 51.8667C51.1566 48.2 49.3593 44.94 46.8274 42.7328L44.1282 40.1517C47.1291 37.2131 53.0522 31.3621 54.4362 29.6436ZM24.9781 27.9775C23.6072 27.9775 22.4986 26.8689 22.4986 25.498C22.4986 24.1337 23.6072 23.0186 24.9781 23.0186C26.3424 23.0186 27.4543 24.1337 27.4543 25.498C27.4543 26.8657 26.3424 27.9775 24.9781 27.9775ZM45.3154 51.8667C45.3154 54.9431 42.7999 57.4389 39.717 57.4389C36.6669 57.4094 34.1743 54.9299 34.1743 51.8667C34.1743 48.9609 37.8541 46.1961 39.8613 44.3169C41.8914 46.1732 45.3154 48.8953 45.3154 51.8667Z"></path>
    <path fill="#21409A" d="M72.445 54.8611L72.0875 57.0355H69.326L72.5992 38.361H75.3607C75.3607 38.361 74.6195 42.4015 74.1078 45.4484C75.0786 44.553 76.3347 43.9889 77.8926 43.9889C81.884 43.9889 84.288 47.4424 83.596 51.3813C83.0089 54.8873 80.1425 57.2913 76.8923 57.2913C74.7736 57.2913 73.265 56.3172 72.445 54.8611ZM80.9657 51.073C81.3756 48.7444 79.9424 46.4946 77.358 46.4683C75.3115 46.4683 73.4453 48.0557 73.0846 50.1777C72.6746 52.5554 74.1833 54.7824 76.7185 54.7824C78.8404 54.7824 80.6049 53.172 80.9657 51.073Z"></path>
    <path fill="#21409A" d="M83.8813 59.4887L86.6428 58.6196C87.0527 59.8725 87.9973 60.6924 89.6601 60.6924C91.7591 60.6924 92.8053 59.105 93.189 56.8814C93.189 56.9076 93.2645 56.4977 93.3694 55.986C92.4741 56.8551 91.3491 57.2913 90.1192 57.2913C86.9478 57.2913 85.0029 54.9628 85.695 51.3813L86.3083 48.1574C86.5378 47.0062 86.3082 46.6225 85.4129 46.6225H85.0816L85.4916 44.2448H87.0527C88.8959 44.2448 89.6863 45.3697 89.1747 47.8524L88.4827 51.4601C88.0727 53.582 88.8402 54.8873 90.6834 54.8873C92.6544 54.8873 93.8548 53.3524 94.2123 51.178L95.4914 44.2448H98.2037L95.9538 56.8059C95.2618 60.6957 93.5236 63.1751 89.4305 63.1751C86.6953 63.1751 84.6225 61.6894 83.8813 59.4887Z"></path>
    <path fill="#21409A" d="M118.882 40.0697C118.882 40.0697 118.941 39.6827 118.436 38.7348C117.931 37.787 116.062 38.0232 116.062 38.0232V36.6883C116.062 36.5309 114.074 36.5309 114.074 36.6883V38.7644C114.074 38.7644 113.451 39.0595 112.975 39.5941C111.283 41.7587 113.982 42.9755 113.982 42.9755C113.982 42.9755 113.835 41.434 114.487 40.6633C115.973 39.1809 118.882 40.0697 118.882 40.0697ZM114.225 52.7063C114.225 52.7063 113.93 51.8175 114.671 51.46V54.2543H115.147V51.1944C115.147 51.1944 116.658 50.6008 116.688 49.771C116.718 48.9412 115.412 48.4066 115.412 47.8721C115.412 47.3375 115.412 46.7734 115.383 46.7734C115.383 46.7734 114.612 46.9209 114.612 47.6031V49.8563H115.147C115.147 49.8563 115.383 49.9743 115.117 50.0924C114.851 50.2105 113.723 50.7155 113.635 51.6929C113.572 52.2603 114.225 52.7063 114.225 52.7063ZM114.225 48.7608C114.225 48.7608 113.602 47.1013 114.878 46.5077C116.153 45.9141 117.429 45.7075 117.488 44.2546C117.547 42.8017 115.796 42.0014 115.796 42.0014C115.796 42.0014 115.855 40.6371 115.796 40.6371C115.796 40.6371 114.461 40.9322 114.313 42.0604C114.284 43.6019 114.284 44.5825 114.284 44.5825L115.442 44.0184C115.442 44.0184 115.858 44.0479 115.589 44.3759C115.324 44.7006 112.89 45.5927 112.802 46.7799C112.71 47.9606 114.225 48.7608 114.225 48.7608ZM119.003 54.9529C119.003 54.9529 124.438 49.9678 124.992 46.9275C125.546 43.884 124.33 43.2346 124.33 43.2346C124.33 43.2346 124.726 48.6461 119.387 53.8378C119.387 53.8378 124.789 47.4982 123.657 41.0798C123.657 41.0798 123.575 40.2369 122.47 39.5548C122.47 39.5548 124.126 48.3378 118.951 53.4705C115.386 56.5107 114.983 56.7666 114.983 56.7666C114.983 56.7666 114.579 56.5107 111.014 53.4705C105.839 48.3378 107.495 39.5548 107.495 39.5548C106.39 40.2369 106.308 41.0798 106.308 41.0798C105.176 47.4982 110.578 53.8378 110.578 53.8378C105.239 48.6461 105.635 43.2346 105.635 43.2346C105.635 43.2346 104.422 43.884 104.973 46.9275C105.527 49.9711 110.962 54.9529 110.962 54.9529C106.892 52.5915 104.783 48.0032 104.783 48.0032C104.481 49.2134 104.783 50.4105 104.783 50.4105C105.635 52.8637 112.119 56.1336 112.119 56.1336C107.547 54.497 105.865 52.5587 105.865 52.5587C105.865 52.5587 105.612 53.7788 106.665 54.7299C109.83 57.5898 114.983 57.2224 114.983 57.2224C114.983 57.2224 120.135 57.5898 123.3 54.7299C124.356 53.7755 124.1 52.5587 124.1 52.5587C124.1 52.5587 122.418 54.5003 117.846 56.1336C117.846 56.1336 124.326 52.8637 125.182 50.4105C125.182 50.4105 125.484 49.2134 125.182 48.0032C125.186 48.0032 123.074 52.5915 119.003 54.9529Z"></path>
    <path fill="#21409A" d="M133.923 38.6234H136.789L143.644 57.2979H140.754L139.295 53.3065H131.417L129.984 57.2979H127.068L133.923 38.6234ZM132.388 50.6467H138.324L135.356 42.4606L132.388 50.6467Z"></path>
    <path fill="#21409A" d="M142.614 44.5071H145.503L148.904 53.7427L152.256 44.5071H155.096L150.262 57.2979H147.524L142.614 44.5071Z"></path>
    <path fill="#21409A" d="M154.873 50.9025C154.873 46.8094 157.917 44.2513 161.269 44.2513C162.958 44.2513 164.568 44.9925 165.516 46.1699V44.5071H168.254V57.2979H165.516V55.5334C164.545 56.7862 162.932 57.5537 161.243 57.5537C157.992 57.5537 154.873 54.9693 154.873 50.9025ZM165.667 50.8763C165.667 48.6002 163.952 46.7307 161.626 46.7307C159.35 46.7307 157.586 48.5477 157.586 50.8763C157.586 53.2048 159.35 55.0447 161.626 55.0447C163.955 55.048 165.667 53.1786 165.667 50.8763Z"></path>
    <path fill="#21409A" d="M170.255 44.5071H172.967V46.1699C173.836 44.9925 175.217 44.2513 176.906 44.2513C180.13 44.2513 182.098 46.3503 182.098 49.8267V57.2979H179.337V50.0563C179.337 47.9573 178.287 46.6291 176.24 46.6291C174.397 46.6291 172.99 48.0098 172.99 50.2629V57.2979H170.252V44.5071H170.255Z"></path>
    <path fill="#21409A" d="M182.833 44.5071H185.007V41.4898L187.769 39.9811V44.5104H190.481V46.9669H187.769V52.0569C187.769 54.3593 188.126 54.7168 190.481 54.7168V57.3012H190.071C186.181 57.3012 185.007 56.0746 185.007 52.0832V46.9669H182.833V44.5071Z"></path>
    <path fill="#21409A" d="M69.3359 0.00177002H77.5515C87.1905 0.00177002 93.1267 6.42668 93.1267 14.8456C93.1267 23.3039 86.6198 29.6895 77.7155 29.6895H69.3359V0.00177002ZM73.77 4.06858V25.58H77.2662C84.0977 25.58 88.6532 20.9458 88.6532 14.8456C88.6532 8.62407 84.5471 4.06858 77.1055 4.06858H73.77Z"></path>
    <path fill="#21409A" d="M95.5242 19.5225C95.5242 13.5863 100.201 8.94879 106.055 8.94879C111.909 8.94879 116.629 13.583 116.629 19.5225C116.629 25.4194 111.913 30.0962 106.055 30.0962C100.198 30.0962 95.5242 25.4194 95.5242 19.5225ZM112.319 19.5225C112.319 15.9444 109.555 13.0156 106.059 13.0156C102.562 13.0156 99.837 15.9444 99.837 19.5225C99.837 23.1006 102.562 26.0294 106.059 26.0294C109.555 26.0294 112.319 23.1006 112.319 19.5225Z"></path>
    <path fill="#21409A" d="M118.99 19.5225C118.99 13.5436 123.667 8.94879 129.603 8.94879C134.116 8.94879 137.694 11.5102 139.242 15.1704L135.34 16.8364C134.323 14.4783 132.25 13.0123 129.607 13.0123C125.986 13.0123 123.264 15.8984 123.264 19.5192C123.264 23.0974 126.029 26.0261 129.689 26.0261C132.453 26.0261 134.487 24.3174 135.422 22.0413L139.367 23.7074C137.74 27.4495 134.365 30.0929 129.607 30.0929C123.585 30.0962 118.99 25.3767 118.99 19.5225Z"></path>
    <path fill="#21409A" d="M140.705 9.35541H144.162V4.55722L148.553 2.15649V9.35541H152.863V13.2582H148.553V21.3492C148.553 25.0093 149.124 25.58 152.863 25.58V29.6862H152.214C146.031 29.6862 144.162 27.7348 144.162 21.3919V13.2582H140.705V9.35541Z"></path>
    <path fill="#21409A" d="M154.372 19.5225C154.372 13.5863 159.048 8.94879 164.903 8.94879C170.757 8.94879 175.476 13.583 175.476 19.5225C175.476 25.4194 170.76 30.0962 164.903 30.0962C159.045 30.0962 154.372 25.4194 154.372 19.5225ZM171.167 19.5225C171.167 15.9444 168.402 13.0156 164.906 13.0156C161.41 13.0156 158.684 15.9444 158.684 19.5225C158.684 23.1006 161.41 26.0294 164.906 26.0294C168.402 26.0294 171.167 23.1006 171.167 19.5225Z"></path>
    <path fill="#21409A" d="M178.323 9.35541H182.675V12.5662C183.774 10.4935 185.765 9.35541 188.612 9.35541H190.563V13.5042H187.919C184.22 13.5042 182.715 15.3736 182.715 19.6044V29.6895H178.323V9.35541Z"></path>
    <path fill="#21409A" d="M191.744 25.5013L195.646 23.3859C196.827 25.298 198.575 26.3147 201.015 26.3147C203.537 26.3147 204.839 25.0946 204.839 23.6713C204.839 22.0052 202.399 21.6379 199.795 21.0672C196.338 20.3752 192.678 19.2371 192.678 15.049C192.678 11.8381 195.768 8.86675 200.609 8.90939C204.554 8.90939 207.197 10.3721 208.903 12.8549L205.246 14.8456C204.269 13.3829 202.767 12.5269 200.612 12.5269C198.211 12.5269 197.073 13.6256 197.073 14.967C197.073 16.4297 198.821 16.7577 201.914 17.4464C205.331 18.1778 209.191 19.3158 209.191 23.586C209.191 26.6361 206.466 30.1322 200.815 30.0929C196.42 30.0962 193.492 28.5088 191.744 25.5013Z"></path>
    <path fill="#21409A" d="M237.374 16.879H223.953V29.6895H219.519V0.00177002H223.953V12.6482H237.374V0.00177002H241.765V29.6862H237.374V16.879Z"></path>
    <path fill="#21409A" d="M244.815 19.6045C244.815 13.6256 249.41 8.94879 255.389 8.94879C261.407 8.94879 265.841 13.3009 265.841 19.3192V21.0279H249.007C249.578 24.16 252.018 26.2327 255.553 26.2327C258.318 26.2327 260.433 24.77 261.489 22.5726L265.067 24.5667C263.277 27.9021 260.066 30.0962 255.553 30.0962C249.125 30.0962 244.815 25.5014 244.815 19.6045ZM249.207 17.3251H261.407C260.758 14.3963 258.521 12.7696 255.389 12.7696C252.378 12.7729 250.02 14.6423 249.207 17.3251Z"></path>
    <path fill="#21409A" d="M268.039 19.5225C268.039 13.0156 272.876 8.94879 278.206 8.94879C280.889 8.94879 283.453 10.1295 284.956 11.9989V9.35547H289.308V29.6895H284.956V26.8821C283.411 28.8762 280.849 30.0962 278.163 30.0962C272.998 30.0962 268.039 25.9868 268.039 19.5225ZM285.198 19.4799C285.198 15.8591 282.473 12.891 278.773 12.891C275.153 12.891 272.348 15.7771 272.348 19.4799C272.348 23.1826 275.156 26.1081 278.773 26.1081C282.473 26.1114 285.198 23.14 285.198 19.4799Z"></path>
    <path fill="#21409A" d="M292.886 0.00177002H297.238V29.6862H292.886V0.00177002Z"></path>
    <path fill="#21409A" d="M299.96 9.35541H303.417V4.55722L307.808 2.15649V9.35541H312.118V13.2582H307.808V21.3492C307.808 25.0093 308.379 25.58 312.118 25.58V29.6862H311.469C305.286 29.6862 303.417 27.7348 303.417 21.3919V13.2582H299.96V9.35541Z"></path>
    <path fill="#21409A" d="M315.171 0.00177002H319.481V11.9169C320.865 10.1262 323.102 8.94875 325.745 8.94875C330.868 8.94875 334 12.2842 334 17.8137V29.6895H329.566V18.2204C329.566 14.8456 327.939 12.7302 324.646 12.7302C321.76 12.7302 319.523 14.9276 319.523 18.5058V29.6895H315.171V0.00177002Z"></path>
</svg>
