<svg viewBox="0 0 138 36" fill="none" xmlns="http://www.w3.org/2000/svg">
    <path d="M50.657 3.65h11.417c2.915 0 5.143.779 6.386 2.202a4.99 4.99 0 0 1 1.067 1.93 4.91 4.91 0 0 1 .124 2.19v.075a6.826 6.826 0 0 1-1.378 3.334 7.059 7.059 0 0 1-2.907 2.208c2.854.988 4.723 2.662 4.285 6.036v.076c-.557 4.437-4.602 6.814-10.285 6.814H47.529L50.657 3.65Zm9.712 14.174H53.27l-.857 6.823h7.423c3.052 0 5.057-1.172 5.34-3.415v-.067c.274-2.102-1.277-3.34-4.808-3.34Zm4.714-7.141c.248-1.95-1.2-3.148-4.072-3.148h-6.437l-.857 6.614h6.112c2.871 0 4.937-1.105 5.22-3.349l.034-.117Zm7.56 11.018 1.5-11.94h4.406L77.203 20.42c-.36 2.913.926 4.546 3.54 4.546s4.543-1.675 4.911-4.622l1.329-10.582h4.44l-2.357 18.753h-4.44l.368-2.913a7.904 7.904 0 0 1-2.795 2.433 8.112 8.112 0 0 1-3.625.916c-4.328-.042-6.48-2.889-5.931-7.25ZM95.64 9.76h4.397l-.386 3.124a8.818 8.818 0 0 1 3.072-2.556 9.034 9.034 0 0 1 3.914-.96c4.509 0 8.477 3.482 7.714 9.736v.067c-.78 6.22-5.588 9.737-10.14 9.737a6.935 6.935 0 0 1-3.54-.843 6.729 6.729 0 0 1-2.588-2.506l-1.08 8.598H92.57L95.64 9.762Zm14.203 9.411v-.067c.454-3.625-1.714-6.003-4.74-6.003a6.795 6.795 0 0 0-4.328 1.838 6.501 6.501 0 0 0-2.024 4.165v.067c-.454 3.592 1.86 6.003 4.843 6.003 2.983 0 5.786-2.302 6.249-6.003Zm6.763 0v-.067c.78-6.22 5.554-9.737 10.14-9.737a6.925 6.925 0 0 1 3.541.842 6.717 6.717 0 0 1 2.587 2.507l.369-2.913h4.397l-2.357 18.753h-4.397l.385-3.123a8.806 8.806 0 0 1-3.072 2.556 9.027 9.027 0 0 1-3.913.96c-4.5-.041-8.46-3.557-7.715-9.778h.035Zm15.531 0v-.067c.454-3.625-1.86-6.003-4.808-6.003-2.949 0-5.82 2.27-6.283 6.003v.067c-.455 3.625 1.791 6.003 4.774 6.003s5.863-2.411 6.317-6.003Zm-98.854 6.38h3.163v10.046H0V25.552h10.054c1.18.028 2.35-.22 3.412-.724a7.353 7.353 0 0 0 2.691-2.173L18 26.045a.95.95 0 0 0 .407.394.98.98 0 0 0 1.085-.137.933.933 0 0 0 .29-.482L23.65 9.3l1.817 20.093c.016.238.113.464.275.643a1.13 1.13 0 0 0 1.326.248c.218-.107.393-.282.499-.497l2.931-5.936c.276.493.677.908 1.165 1.206a3.407 3.407 0 0 0 1.62.494ZM0 0v23.668h10.054a5.906 5.906 0 0 0 3.004-.815 5.725 5.725 0 0 0 2.14-2.216c.12-.22.287-.414.488-.57a.983.983 0 0 1 1.38.344l1.44 2.587 4.277-17.883c.064-.276.227-.521.46-.692.232-.17.519-.254.808-.237.287.017.558.133.764.328.205.196.333.456.36.735l1.98 21.357 2.476-5.165a.963.963 0 0 1 .695-.494 1.017 1.017 0 0 1 .857.251c.195.208.354.446.471.703.317.612.917 1.733 1.663 1.733h3.163V0H0Z"
          fill="#0079C8"></path>
    <path d="M31.62 21.935a2.618 2.618 0 0 0-.471-.703 1 1 0 0 0-.858-.252.99.99 0 0 0-.405.169.962.962 0 0 0-.289.325L27.12 26.64 25.174 5.283a1.16 1.16 0 0 0-.349-.756 1.247 1.247 0 0 0-1.573-.117 1.197 1.197 0 0 0-.47.672L18.54 22.998l-1.397-2.587a.98.98 0 0 0-1.048-.48.98.98 0 0 0-.375.162c-.203.153-.37.347-.489.57a5.734 5.734 0 0 1-2.14 2.214 5.916 5.916 0 0 1-3.002.816H0v1.884h10.046a7.536 7.536 0 0 0 3.417-.722 7.352 7.352 0 0 0 2.694-2.175L18 26.046a.95.95 0 0 0 .407.393.98.98 0 0 0 1.085-.137.933.933 0 0 0 .29-.482L23.65 9.3l1.817 20.093c.016.238.113.464.275.643a1.13 1.13 0 0 0 1.326.248c.218-.107.393-.282.499-.497l2.931-5.936c.276.484.674.891 1.155 1.184.481.293 1.03.461 1.597.49h3.162v-1.858h-3.128c-.712 0-1.346-1.122-1.663-1.733Z"
          fill="#fff"></path>
</svg>