<?xml version="1.0" encoding="UTF-8"?>
<svg xmlns="http://www.w3.org/2000/svg" width="88" height="76" viewBox="0 0 88 76" fill="none">
  <g clip-path="url(#clip0_540_6277)">
    <path fill-rule="evenodd" clip-rule="evenodd" d="M62.9353 32.6419C65.7667 36.9616 66.6682 43.3625 63.9396 50.3926C71.9135 41.9589 72.2705 34.0576 68.5618 27.9592C67.1945 25.7146 65.2767 23.7121 62.9837 22.0181C60.6847 23.6819 58.7487 25.6542 57.3512 27.8745C53.4852 34.0032 53.7514 41.9952 61.8342 50.5439C59.0694 43.4351 60.0253 36.9616 62.9353 32.6419Z" fill="#C95D87"></path>
    <path fill-rule="evenodd" clip-rule="evenodd" d="M60.1788 51.7505C47.4798 43.2261 47.7097 35.718 51.7693 27.121C53.5843 26.9516 55.3388 27.242 56.942 27.9135C58.3396 25.6992 60.2756 23.7269 62.5746 22.0571C58.5695 19.1047 53.427 17.084 48.0848 16.3459C40.1714 24.7978 35.6097 47.086 60.1788 51.7505Z" fill="#40BFBC"></path>
    <path fill-rule="evenodd" clip-rule="evenodd" d="M65.5308 51.9013C78.2298 43.3768 77.9999 35.8688 73.9403 27.2717C72.1798 27.1084 70.4737 27.3746 68.9067 28.0038C67.5394 25.7592 65.6216 23.7567 63.3286 22.0687C67.3035 19.195 72.3673 17.2287 77.6187 16.5027C85.5321 24.9485 90.0999 47.2367 65.5308 51.9013Z" fill="#FBC707"></path>
    <path fill-rule="evenodd" clip-rule="evenodd" d="M45.1841 0.935491C48.9472 0.935491 51.9964 3.9847 51.9964 7.7478C51.9964 11.5109 48.9472 14.5601 45.1841 14.5601C41.421 14.5601 38.3718 11.5109 38.3718 7.7478C38.3718 3.9847 41.421 0.935491 45.1841 0.935491Z" fill="#40BFBC"></path>
    <path fill-rule="evenodd" clip-rule="evenodd" d="M80.4332 0.935491C84.1963 0.935491 87.2454 3.9847 87.2454 7.7478C87.2454 11.5109 84.1963 14.5601 80.4332 14.5601C76.6701 14.5601 73.6208 11.5109 73.6208 7.7478C73.6269 3.9847 76.6761 0.935491 80.4332 0.935491Z" fill="#FBC707"></path>
    <path fill-rule="evenodd" clip-rule="evenodd" d="M62.8869 5.8811C66.1055 5.8811 68.7131 8.48865 68.7131 11.7072C68.7131 14.9258 66.1055 17.5334 62.8869 17.5334C59.6683 17.5334 57.0608 14.9258 57.0608 11.7072C57.0548 8.48865 59.6683 5.8811 62.8869 5.8811Z" fill="#C95D87"></path>
    <path d="M7.97276 41.9661C8.10586 42.1234 8.17846 42.329 8.17846 42.5892V50.4118C8.17846 50.672 8.10586 50.8777 7.96671 51.0411C7.82756 51.1984 7.64606 51.2831 7.42221 51.2831C7.19231 51.2831 7.00475 51.2044 6.87165 51.0411C6.7325 50.8838 6.66596 50.672 6.66596 50.4118V47.1146H2.33415V50.4118C2.33415 50.672 2.26155 50.8777 2.1224 51.0411C1.98325 51.1984 1.79572 51.2831 1.56582 51.2831C1.34197 51.2831 1.16047 51.2044 1.02132 51.0411C0.88217 50.8838 0.80957 50.672 0.80957 50.4118V42.5831C0.80957 42.323 0.876114 42.1173 1.01526 41.96C1.14836 41.8027 1.33592 41.7241 1.56582 41.7241C1.79572 41.7241 1.98325 41.8027 2.1224 41.96C2.26155 42.1173 2.33415 42.323 2.33415 42.5831V45.7291H6.66596V42.5831C6.66596 42.323 6.7325 42.1173 6.87165 41.96C7.00475 41.8027 7.19231 41.7241 7.42221 41.7241C7.65211 41.7301 7.83966 41.8088 7.97276 41.9661Z" fill="#4F4C4C"></path>
    <path d="M14.811 44.8095C14.9441 44.9547 15.0167 45.1423 15.0167 45.3843V50.557C15.0167 50.7869 14.9441 50.9745 14.8049 51.1197C14.6658 51.2649 14.4843 51.3314 14.2604 51.3314C14.0426 51.3314 13.8732 51.2649 13.7462 51.1318C13.6191 50.9987 13.5526 50.8172 13.5526 50.5873V50.2545C13.3711 50.6115 13.123 50.8837 12.8084 51.0773C12.4938 51.2709 12.1429 51.3617 11.7497 51.3617C10.3098 51.3617 9.58984 50.4663 9.58984 48.6694V45.3903C9.58984 45.1483 9.65639 44.9608 9.79554 44.8156C9.92864 44.6764 10.1101 44.6038 10.334 44.6038C10.5639 44.6038 10.7514 44.6764 10.8845 44.8156C11.0176 44.9608 11.0902 45.1483 11.0902 45.3903V48.6876C11.0902 49.1474 11.1749 49.4922 11.3443 49.7161C11.5137 49.9399 11.7739 50.0488 12.1369 50.0488C12.5543 50.0488 12.8871 49.8976 13.1412 49.589C13.3953 49.2805 13.5163 48.8751 13.5163 48.3669V45.3903C13.5163 45.1483 13.5828 44.9608 13.722 44.8156C13.8551 44.6764 14.0366 44.6038 14.2604 44.6038C14.4903 44.5978 14.6779 44.6704 14.811 44.8095Z" fill="#4F4C4C"></path>
    <path d="M21.1849 45.2347C21.5298 45.6763 21.6992 46.3479 21.6992 47.2493V50.5284C21.6992 50.7765 21.6326 50.9762 21.4995 51.1153C21.3664 51.2605 21.1849 51.3271 20.955 51.3271C20.7251 51.3271 20.5376 51.2545 20.4045 51.1153C20.2653 50.9762 20.1988 50.7765 20.1988 50.5284V47.3401C20.1988 46.8319 20.1141 46.4628 19.9386 46.2329C19.7692 46.003 19.497 45.8881 19.1279 45.8881C18.6984 45.8881 18.3475 46.0393 18.0873 46.3418C17.8272 46.6443 17.7001 47.0497 17.7001 47.5579V50.5345C17.7001 50.7826 17.6336 50.9822 17.4944 51.1213C17.3553 51.2665 17.1738 51.3331 16.9439 51.3331C16.714 51.3331 16.5325 51.2605 16.3994 51.1213C16.2663 50.9822 16.1997 50.7826 16.1997 50.5345V45.3738C16.1997 45.1439 16.2663 44.9564 16.4054 44.8112C16.5385 44.672 16.7261 44.5994 16.956 44.5994C17.1617 44.5994 17.3311 44.666 17.4642 44.8052C17.5973 44.9443 17.6638 45.1258 17.6638 45.3436V45.7066C17.8635 45.3436 18.1297 45.0593 18.4685 44.8657C18.8073 44.6721 19.1824 44.5753 19.6119 44.5753C20.3198 44.5692 20.8401 44.793 21.1849 45.2347Z" fill="#4F4C4C"></path>
    <path d="M26.5182 50.6626C26.5182 50.8744 26.4395 51.0377 26.2822 51.1466C26.1249 51.2555 25.9011 51.3039 25.6167 51.2858L25.2901 51.2616C23.947 51.1527 23.2754 50.3541 23.2754 48.8597V45.9497H22.6764C22.4586 45.9497 22.2953 45.8952 22.1803 45.7924C22.0654 45.6835 22.0049 45.5322 22.0049 45.3265C22.0049 45.1208 22.0654 44.9635 22.1803 44.8607C22.2953 44.7518 22.4647 44.7034 22.6764 44.7034H23.2754V43.4692C23.2754 43.2272 23.3419 43.0396 23.4811 42.8944C23.6142 42.7553 23.8017 42.6827 24.0316 42.6827C24.2555 42.6827 24.437 42.7553 24.5701 42.8944C24.7032 43.0396 24.7758 43.2272 24.7758 43.4692V44.6973H25.7982C26.016 44.6973 26.1794 44.7518 26.2943 44.8546C26.4093 44.9635 26.4698 45.1148 26.4698 45.3205C26.4698 45.5262 26.4093 45.6835 26.2943 45.7863C26.1794 45.8952 26.01 45.9436 25.7982 45.9436H24.7758V48.9686C24.7758 49.6281 25.0481 49.979 25.5926 50.0213L25.9192 50.0455C26.3185 50.0879 26.5182 50.2875 26.5182 50.6626Z" fill="#4F4C4C"></path>
    <path d="M28.4162 46.1686C28.1742 46.453 28.029 46.8644 27.9806 47.3968H30.691C30.6729 46.8523 30.5579 46.4409 30.328 46.1626C30.1042 45.8843 29.7896 45.7451 29.3903 45.7451C28.991 45.7451 28.6643 45.8843 28.4162 46.1686ZM31.8042 49.6413C31.8889 49.7563 31.9313 49.9136 31.9313 50.1072C31.9313 50.3855 31.78 50.6154 31.4896 50.8029C31.2173 50.9723 30.9088 51.1054 30.564 51.2083C30.2191 51.3111 29.8924 51.3595 29.5778 51.3595C28.634 51.3595 27.8838 51.057 27.3333 50.452C26.7827 49.847 26.5044 49.0182 26.5044 47.9715C26.5044 47.306 26.6254 46.7131 26.8674 46.1989C27.1094 45.6846 27.4482 45.2853 27.8838 45.001C28.3194 44.7166 28.8155 44.5714 29.366 44.5714C29.8924 44.5714 30.3522 44.6985 30.7455 44.9586C31.1387 45.2188 31.4412 45.5818 31.659 46.0537C31.8768 46.5256 31.9857 47.0822 31.9857 47.7235C31.9857 48.1046 31.8345 48.2982 31.532 48.2982H27.9927C28.0411 48.9093 28.1984 49.363 28.4585 49.6534C28.7247 49.9438 29.1059 50.089 29.6141 50.089C29.8682 50.089 30.0981 50.0527 30.2917 49.9801C30.4853 49.9075 30.7092 49.8107 30.9572 49.6897C31.1992 49.5445 31.3746 49.478 31.4835 49.478C31.6106 49.4659 31.7195 49.5264 31.8042 49.6413Z" fill="#4F4C4C"></path>
    <path d="M36.6031 44.7413C36.7241 44.8563 36.7846 45.0318 36.7846 45.2617C36.7846 45.5037 36.7301 45.6791 36.6273 45.7941C36.5244 45.909 36.3369 45.9877 36.0646 46.0179L35.7016 46.0602C35.2297 46.1147 34.8849 46.2902 34.661 46.5927C34.4432 46.8952 34.3283 47.2702 34.3283 47.724V50.5312C34.3283 50.7913 34.2557 50.9849 34.1105 51.1241C33.9653 51.2632 33.7838 51.3298 33.572 51.3298C33.3542 51.3298 33.1788 51.2632 33.0396 51.1241C32.9005 50.9849 32.8279 50.7913 32.8279 50.5312V45.3706C32.8279 45.1225 32.9005 44.9289 33.0396 44.7958C33.1788 44.6627 33.3542 44.5962 33.5599 44.5962C33.7656 44.5962 33.935 44.6627 34.0621 44.7897C34.1891 44.9168 34.2557 45.1043 34.2557 45.3463V45.8787C34.4069 45.4855 34.6308 45.183 34.9333 44.9712C35.2358 44.7595 35.5685 44.6385 35.9376 44.6082L36.107 44.5962C36.3248 44.578 36.4881 44.6264 36.6031 44.7413Z" fill="#4F4C4C"></path>
    <path d="M7.97276 54.4538C8.10586 54.6111 8.17846 54.8168 8.17846 55.077V62.9057C8.17846 63.1658 8.10586 63.3715 7.96671 63.5349C7.82756 63.6922 7.64606 63.7769 7.42221 63.7769C7.19231 63.7769 7.00475 63.6982 6.87165 63.5349C6.7325 63.3776 6.66596 63.1658 6.66596 62.9057V59.6084H2.33415V62.9057C2.33415 63.1658 2.26155 63.3715 2.1224 63.5349C1.98325 63.6922 1.79572 63.7769 1.56582 63.7769C1.34197 63.7769 1.16047 63.6982 1.02132 63.5349C0.88217 63.3776 0.80957 63.1658 0.80957 62.9057V55.077C0.80957 54.8168 0.876114 54.6111 1.01526 54.4538C1.14836 54.2965 1.33592 54.2179 1.56582 54.2179C1.79572 54.2179 1.98325 54.2965 2.1224 54.4538C2.26155 54.6111 2.33415 54.8168 2.33415 55.077V58.223H6.66596V55.077C6.66596 54.8168 6.7325 54.6111 6.87165 54.4538C7.00475 54.2965 7.19231 54.2179 7.42221 54.2179C7.65211 54.2239 7.83966 54.2965 7.97276 54.4538Z" fill="#4F4C4C"></path>
    <path d="M11.2184 58.6629C10.9764 58.9473 10.8252 59.3587 10.7828 59.8911H13.4932C13.4751 59.3466 13.3541 58.9352 13.1302 58.6569C12.9064 58.3786 12.5918 58.2394 12.1925 58.2394C11.7932 58.2334 11.4665 58.3786 11.2184 58.6629ZM14.6064 62.1296C14.6911 62.2445 14.7335 62.4018 14.7335 62.5954C14.7335 62.8737 14.5822 63.1036 14.2918 63.2912C14.0196 63.4606 13.711 63.5937 13.3662 63.6965C13.0213 63.7994 12.6946 63.8478 12.38 63.8478C11.4362 63.8478 10.686 63.5453 10.1355 62.9403C9.58492 62.3353 9.30664 61.5064 9.30664 60.4598C9.30664 59.7943 9.42764 59.2014 9.66964 58.6871C9.91164 58.1729 10.2504 57.7736 10.686 57.4892C11.1216 57.2049 11.6177 57.0597 12.1683 57.0597C12.6946 57.0597 13.1544 57.1867 13.5477 57.4469C13.9409 57.707 14.2434 58.07 14.4612 58.5419C14.679 59.0138 14.7879 59.5704 14.7879 60.2117C14.7879 60.5929 14.6367 60.7865 14.3342 60.7865H10.7949C10.8433 61.3975 11.0006 61.8513 11.2608 62.1417C11.527 62.4321 11.9081 62.5773 12.4103 62.5773C12.6644 62.5773 12.8943 62.541 13.0879 62.4684C13.2815 62.3958 13.5053 62.299 13.7534 62.1719C13.9954 62.0328 14.1708 61.9602 14.2797 61.9602C14.4128 61.9541 14.5217 62.0146 14.6064 62.1296Z" fill="#4F4C4C"></path>
    <path d="M18.7252 62.2022C18.9793 61.9057 19.1003 61.5185 19.1003 61.0466V60.7683H18.8885C18.3501 60.7683 17.9387 60.7925 17.6423 60.847C17.3458 60.9014 17.1341 60.9922 17.007 61.1253C16.88 61.2584 16.8134 61.4399 16.8134 61.6698C16.8134 61.9541 16.9041 62.1901 17.0857 62.3716C17.2672 62.5531 17.485 62.6438 17.7512 62.6438C18.1505 62.6499 18.4772 62.4986 18.7252 62.2022ZM19.9413 57.7312C20.3345 58.1789 20.5342 58.8626 20.5342 59.7761V63.031C20.5342 63.273 20.4676 63.4606 20.3405 63.5997C20.2135 63.7389 20.0381 63.8054 19.8142 63.8054C19.6085 63.8054 19.4331 63.7328 19.306 63.5937C19.1729 63.4545 19.1063 63.267 19.1063 63.031V62.7346C18.9732 63.0794 18.7554 63.3517 18.465 63.5453C18.1746 63.7389 17.8359 63.8417 17.4487 63.8417C17.0554 63.8417 16.6984 63.751 16.3778 63.5755C16.0571 63.4001 15.803 63.152 15.6215 62.8435C15.44 62.5349 15.3433 62.184 15.3433 61.8029C15.3433 61.3249 15.4522 60.9438 15.676 60.6715C15.8938 60.3932 16.2568 60.1936 16.7529 60.0726C17.249 59.9455 17.9326 59.885 18.8038 59.885H19.1063V59.5765C19.1063 59.1409 19.0217 58.8202 18.8523 58.6206C18.6829 58.4209 18.4106 58.3181 18.0355 58.3181C17.8056 58.3181 17.5697 58.3544 17.3277 58.433C17.0857 58.5117 16.8013 58.6206 16.4746 58.7597C16.2689 58.8747 16.1116 58.9352 16.0208 58.9352C15.8756 58.9352 15.7607 58.8747 15.6639 58.7597C15.5731 58.6448 15.5248 58.4935 15.5248 58.306C15.5248 58.1547 15.561 58.0216 15.6276 57.9127C15.6941 57.8038 15.8091 57.6949 15.9725 57.5981C16.2508 57.4287 16.5896 57.2956 16.9768 57.1988C17.364 57.102 17.7451 57.0536 18.1263 57.0536C18.937 57.0597 19.542 57.2835 19.9413 57.7312Z" fill="#4F4C4C"></path>
    <path d="M21.8175 63.5651C21.6783 63.426 21.6057 63.2324 21.6057 62.9722V55.0104C21.6057 54.7503 21.6783 54.5567 21.8175 54.4236C21.9566 54.2905 22.1381 54.2239 22.3499 54.2239C22.5616 54.2239 22.7431 54.2905 22.8883 54.4236C23.0335 54.5567 23.1061 54.7503 23.1061 55.0104V62.9722C23.1061 63.2324 23.0335 63.426 22.8883 63.5651C22.7431 63.7043 22.5616 63.7708 22.3499 63.7708C22.1381 63.7708 21.9566 63.7043 21.8175 63.5651Z" fill="#4F4C4C"></path>
    <path d="M27.9835 63.151C27.9835 63.3627 27.9049 63.5261 27.7476 63.635C27.5903 63.7439 27.3664 63.7923 27.0821 63.7741L26.7554 63.7499C25.4123 63.641 24.7407 62.8424 24.7407 61.3481V58.438H24.1418C23.924 58.438 23.7606 58.3836 23.6457 58.2807C23.5307 58.1718 23.4702 58.0206 23.4702 57.8149C23.4702 57.6092 23.5307 57.4519 23.6457 57.349C23.7606 57.2401 23.93 57.1917 24.1418 57.1917H24.7407V55.9636C24.7407 55.7216 24.8073 55.534 24.9464 55.3888C25.0795 55.2436 25.2671 55.1771 25.497 55.1771C25.7208 55.1771 25.9023 55.2497 26.0354 55.3888C26.1685 55.534 26.2411 55.7216 26.2411 55.9636V57.1917H27.2636C27.4814 57.1917 27.6447 57.2462 27.7597 57.349C27.8746 57.4579 27.9351 57.6092 27.9351 57.8149C27.9351 58.0206 27.8746 58.1779 27.7597 58.2807C27.6447 58.3896 27.4753 58.438 27.2636 58.438H26.2411V61.463C26.2411 62.1225 26.5134 62.4734 27.0579 62.5157L27.3846 62.5399C27.7839 62.5762 27.9835 62.7759 27.9835 63.151Z" fill="#4F4C4C"></path>
    <path d="M33.9663 59.6931V62.9722C33.9663 63.2203 33.8997 63.4139 33.7666 63.5591C33.6335 63.6982 33.452 63.7708 33.2221 63.7708C32.9922 63.7708 32.8046 63.6982 32.6715 63.5591C32.5324 63.4139 32.4659 63.2203 32.4659 62.9722V59.6931C32.4659 59.2212 32.3812 58.8764 32.2057 58.6586C32.0363 58.4408 31.7641 58.3319 31.395 58.3319C30.9655 58.3319 30.6146 58.4831 30.3544 58.7856C30.0943 59.0881 29.9672 59.4935 29.9672 60.0017V62.9722C29.9672 63.2203 29.9007 63.4139 29.7615 63.5591C29.6224 63.6982 29.4409 63.7708 29.211 63.7708C28.9811 63.7708 28.7996 63.6982 28.6665 63.5591C28.5334 63.4139 28.4668 63.2203 28.4668 62.9722V54.9983C28.4668 54.7684 28.5394 54.5809 28.6785 54.4357C28.8177 54.2905 28.9992 54.2239 29.223 54.2239C29.4469 54.2239 29.6284 54.2905 29.7615 54.4236C29.8946 54.5567 29.9672 54.7382 29.9672 54.9681V58.0778C30.1669 57.7329 30.433 57.4667 30.7658 57.2852C31.0985 57.1037 31.4737 57.013 31.9032 57.013C33.2826 57.0069 33.9663 57.9023 33.9663 59.6931Z" fill="#4F4C4C"></path>
    <path d="M38.5199 63.5288C38.3807 63.3715 38.3081 63.1598 38.3081 62.8996V55.0709C38.3081 54.8108 38.3807 54.6051 38.5199 54.4478C38.659 54.2905 38.8465 54.2118 39.0764 54.2118C39.3184 54.2118 39.506 54.2905 39.6452 54.4478C39.7843 54.6051 39.8569 54.8108 39.8569 55.0709V62.9057C39.8569 63.1658 39.7843 63.3715 39.6452 63.5349C39.506 63.6922 39.3124 63.7769 39.0764 63.7769C38.8465 63.7708 38.6651 63.6922 38.5199 63.5288Z" fill="#4F4C4C"></path>
    <path d="M46.1905 57.729C46.5354 58.1707 46.7048 58.8422 46.7048 59.7437V63.0228C46.7048 63.2708 46.6382 63.4644 46.5051 63.6096C46.372 63.7488 46.1905 63.8214 45.9606 63.8214C45.7307 63.8214 45.5432 63.7488 45.4101 63.6096C45.2709 63.4644 45.2044 63.2708 45.2044 63.0228V59.8344C45.2044 59.3262 45.1197 58.9572 44.9442 58.7273C44.7748 58.4974 44.5026 58.3824 44.1335 58.3824C43.704 58.3824 43.3531 58.5337 43.0929 58.8362C42.8328 59.1387 42.7057 59.544 42.7057 60.0522V63.0288C42.7057 63.2769 42.6392 63.4705 42.5 63.6157C42.3609 63.7548 42.1794 63.8274 41.9495 63.8274C41.7196 63.8274 41.5381 63.7548 41.405 63.6157C41.2719 63.4705 41.2053 63.2769 41.2053 63.0288V57.8682C41.2053 57.6383 41.2719 57.4507 41.411 57.3055C41.5441 57.1664 41.7317 57.0938 41.9616 57.0938C42.1673 57.0938 42.3427 57.1603 42.4698 57.2995C42.6029 57.4386 42.6694 57.6201 42.6694 57.8379V58.2009C42.8691 57.8379 43.1353 57.5536 43.4741 57.36C43.8129 57.1664 44.188 57.0635 44.6115 57.0635C45.3193 57.0575 45.8457 57.2813 46.1905 57.729Z" fill="#4F4C4C"></path>
    <path d="M47.8402 63.2731C47.5861 63.1037 47.459 62.8617 47.459 62.5531C47.459 62.3777 47.5013 62.2325 47.5921 62.1175C47.6828 62.0086 47.7857 61.9481 47.9188 61.9481C48.0519 61.9481 48.2455 62.0207 48.4814 62.1599C48.7355 62.293 48.9715 62.3958 49.1832 62.4684C49.395 62.541 49.6672 62.5773 49.9939 62.5773C50.3327 62.5773 50.5929 62.5168 50.7804 62.3898C50.968 62.2627 51.0648 62.0933 51.0648 61.8695C51.0648 61.7182 51.0285 61.5972 50.9498 61.5065C50.8712 61.4157 50.7381 61.3371 50.5445 61.2584C50.3509 61.1858 50.0484 61.0951 49.6491 60.9983C48.9352 60.841 48.427 60.6111 48.1184 60.3207C47.8099 60.0303 47.6587 59.6249 47.6587 59.1046C47.6587 58.7114 47.7615 58.3605 47.9732 58.0459C48.1789 57.7313 48.4693 57.4832 48.8323 57.3138C49.1953 57.1384 49.6128 57.0537 50.0726 57.0537C50.4114 57.0537 50.7321 57.1021 51.0467 57.1928C51.3613 57.2836 51.6395 57.4227 51.8876 57.5982C52.1417 57.7736 52.2748 58.0096 52.2748 58.306C52.2748 58.4815 52.2324 58.6327 52.1417 58.7537C52.0509 58.8747 51.9481 58.9352 51.815 58.9352C51.7242 58.9352 51.6395 58.9171 51.5548 58.8747C51.4701 58.8324 51.3673 58.7719 51.2342 58.6932C51.0043 58.5601 50.8046 58.4573 50.6352 58.3907C50.4658 58.3242 50.2601 58.2879 50.0121 58.2879C49.7156 58.2879 49.4797 58.3544 49.3103 58.4875C49.1409 58.6206 49.0502 58.8021 49.0502 59.032C49.0502 59.2559 49.1409 59.4253 49.3163 59.5402C49.4918 59.6552 49.8306 59.7701 50.3388 59.8851C50.8772 60.0121 51.2947 60.1513 51.5972 60.3146C51.8997 60.4719 52.1175 60.6776 52.2506 60.9136C52.3837 61.1495 52.4502 61.4581 52.4502 61.8332C52.4502 62.4382 52.2264 62.9222 51.7727 63.2852C51.3189 63.6482 50.7199 63.8297 49.9637 63.8297C49.0804 63.8478 48.3726 63.6603 47.8402 63.2731Z" fill="#4F4C4C"></path>
    <path d="M58.4187 57.2979C58.5578 57.4431 58.6244 57.6306 58.6244 57.8726V63.0454C58.6244 63.2753 58.5518 63.4628 58.4126 63.608C58.2735 63.7472 58.092 63.8198 57.8681 63.8198C57.6503 63.8198 57.4809 63.7532 57.3539 63.6201C57.2268 63.487 57.1603 63.3055 57.1603 63.0756V62.7429C56.9788 63.0998 56.7307 63.3721 56.4161 63.5657C56.1015 63.7593 55.7506 63.85 55.3574 63.85C53.9175 63.85 53.1975 62.9546 53.1975 61.1578V57.8787C53.1975 57.6367 53.2641 57.4491 53.4032 57.3039C53.5363 57.1648 53.7178 57.0922 53.9417 57.0922C54.1716 57.0922 54.3591 57.1648 54.4922 57.3039C54.6253 57.4491 54.6979 57.6367 54.6979 57.8787V61.1759C54.6979 61.6357 54.7826 61.9806 54.952 62.2044C55.1214 62.4283 55.3816 62.5372 55.7446 62.5372C56.162 62.5372 56.4948 62.3859 56.7489 62.0774C57.003 61.7688 57.13 61.3635 57.13 60.8553V57.8787C57.13 57.6367 57.1966 57.4491 57.3357 57.3039C57.4688 57.1648 57.6503 57.0922 57.8742 57.0922C58.1041 57.0861 58.2856 57.1587 58.4187 57.2979Z" fill="#4F4C4C"></path>
    <path d="M63.5557 57.2357C63.6767 57.3507 63.7372 57.5261 63.7372 57.756C63.7372 57.998 63.6828 58.1735 63.5799 58.2884C63.4771 58.4034 63.2895 58.482 63.0173 58.5183L62.6543 58.5607C62.1824 58.6151 61.8375 58.7906 61.6137 59.0931C61.3959 59.3956 61.2809 59.7707 61.2809 60.2244V63.0256C61.2809 63.2857 61.2083 63.4793 61.0631 63.6185C60.9179 63.7576 60.7364 63.8242 60.5247 63.8242C60.3069 63.8242 60.1314 63.7576 59.9923 63.6185C59.8531 63.4793 59.7805 63.2857 59.7805 63.0256V57.8649C59.7805 57.6169 59.8531 57.4233 59.9923 57.2902C60.1314 57.1571 60.3068 57.0905 60.5125 57.0905C60.7182 57.0905 60.8877 57.1571 61.0147 57.2841C61.1418 57.4112 61.2083 57.5987 61.2083 57.8347V58.3671C61.3595 57.9738 61.5895 57.6713 61.8859 57.4596C62.1884 57.2478 62.5212 57.1268 62.8902 57.0966L63.0596 57.0845C63.2713 57.0663 63.4347 57.1208 63.5557 57.2357Z" fill="#4F4C4C"></path>
    <path d="M67.2931 62.2022C67.5472 61.9057 67.6742 61.5185 67.6742 61.0466V60.7683H67.4564C66.918 60.7683 66.5066 60.7925 66.2101 60.847C65.9137 60.9014 65.7019 60.9922 65.5749 61.1253C65.4478 61.2584 65.3813 61.4399 65.3813 61.6698C65.3813 61.9541 65.472 62.1901 65.6535 62.3716C65.835 62.5531 66.0528 62.6438 66.319 62.6438C66.7183 62.6499 67.045 62.4986 67.2931 62.2022ZM68.5091 57.7312C68.9024 58.1789 69.102 58.8626 69.102 59.7761V63.031C69.102 63.273 69.0355 63.4606 68.9084 63.5997C68.7814 63.7389 68.6059 63.8054 68.3821 63.8054C68.1764 63.8054 68.007 63.7328 67.8739 63.5937C67.7408 63.4545 67.6742 63.267 67.6742 63.031V62.7346C67.5351 63.0794 67.3233 63.3517 67.0329 63.5453C66.7425 63.7389 66.4037 63.8417 66.0165 63.8417C65.6233 63.8417 65.2663 63.751 64.9457 63.5755C64.625 63.4001 64.3709 63.152 64.1894 62.8435C64.0079 62.5349 63.9111 62.184 63.9111 61.8029C63.9111 61.3249 64.02 60.9438 64.2439 60.6715C64.4617 60.3932 64.8247 60.1936 65.3208 60.0726C65.8169 59.9455 66.5005 59.885 67.3717 59.885H67.6742V59.5765C67.6742 59.1409 67.5895 58.8202 67.4201 58.6206C67.2507 58.4209 66.9785 58.3181 66.6034 58.3181C66.3735 58.3181 66.1375 58.3544 65.8955 58.433C65.6535 58.5056 65.3692 58.6206 65.0425 58.7597C64.8368 58.8747 64.6795 58.9352 64.5887 58.9352C64.4435 58.9352 64.3286 58.8747 64.2318 58.7597C64.141 58.6448 64.0926 58.4935 64.0926 58.306C64.0926 58.1547 64.1289 58.0216 64.1955 57.9127C64.262 57.8038 64.377 57.6949 64.5403 57.5981C64.8186 57.4287 65.1574 57.2956 65.5446 57.1988C65.9318 57.102 66.313 57.0536 66.6881 57.0536C67.5048 57.0597 68.1098 57.2835 68.5091 57.7312Z" fill="#4F4C4C"></path>
    <path d="M75.2313 57.729C75.5761 58.1707 75.7455 58.8422 75.7455 59.7437V63.0228C75.7455 63.2708 75.679 63.4644 75.5459 63.6096C75.4128 63.7488 75.2313 63.8214 75.0014 63.8214C74.7715 63.8214 74.5839 63.7488 74.4508 63.6096C74.3117 63.4644 74.2451 63.2708 74.2451 63.0228V59.8344C74.2451 59.3262 74.1604 58.9572 73.985 58.7273C73.8156 58.4974 73.5433 58.3824 73.1743 58.3824C72.7447 58.3824 72.3939 58.5337 72.1337 58.8362C71.8736 59.1387 71.7465 59.544 71.7465 60.0522V63.0288C71.7465 63.2769 71.6799 63.4705 71.5408 63.6157C71.4077 63.7548 71.2201 63.8274 70.9902 63.8274C70.7603 63.8274 70.5788 63.7548 70.4457 63.6157C70.3126 63.4705 70.2461 63.2769 70.2461 63.0288V57.8682C70.2461 57.6383 70.3126 57.4507 70.4518 57.3055C70.5909 57.1664 70.7724 57.0938 71.0023 57.0938C71.208 57.0938 71.3835 57.1603 71.5105 57.2995C71.6436 57.4386 71.7102 57.6201 71.7102 57.8379V58.2009C71.9099 57.8379 72.176 57.5536 72.5148 57.36C72.8536 57.1664 73.2287 57.0635 73.6522 57.0635C74.3661 57.0575 74.8864 57.2813 75.2313 57.729Z" fill="#4F4C4C"></path>
    <path d="M77.9564 63.4364C77.5148 63.1581 77.1699 62.7709 76.9279 62.2627C76.6859 61.7545 76.5649 61.1616 76.5649 60.4901C76.5649 59.8125 76.692 59.2135 76.9461 58.6932C77.2002 58.1729 77.5511 57.7736 78.0109 57.4832C78.4646 57.1989 78.991 57.0537 79.5839 57.0537C79.8985 57.0537 80.207 57.1021 80.5277 57.1989C80.8423 57.2957 81.1206 57.4288 81.3626 57.5982C81.6167 57.7857 81.7437 58.0217 81.7437 58.306C81.7437 58.4996 81.7014 58.6569 81.6167 58.7779C81.532 58.8989 81.4231 58.9594 81.2839 58.9594C81.1932 58.9594 81.1024 58.9352 81.0056 58.8929C80.9088 58.8505 80.812 58.7961 80.7152 58.7356C80.5398 58.6206 80.3704 58.5299 80.2131 58.4633C80.0558 58.3968 79.8683 58.3605 79.6626 58.3605C79.1665 58.3605 78.7853 58.542 78.5191 58.8989C78.2529 59.2619 78.1198 59.7762 78.1198 60.4538C78.1198 61.1193 78.2529 61.6335 78.5191 61.9965C78.7853 62.3595 79.1665 62.535 79.6626 62.535C79.8622 62.535 80.0437 62.4987 80.1949 62.4321C80.3522 62.3656 80.5277 62.2748 80.7152 62.1599C80.8362 62.0812 80.9391 62.0207 81.0299 61.9784C81.1206 61.936 81.2053 61.9179 81.2961 61.9179C81.4231 61.9179 81.532 61.9784 81.6227 62.1054C81.7135 62.2325 81.7559 62.3837 81.7559 62.5713C81.7559 62.7225 81.7256 62.8556 81.6651 62.9645C81.6046 63.0734 81.5078 63.1763 81.3686 63.267C81.1206 63.4425 80.8302 63.5877 80.5035 63.6845C80.1768 63.7873 79.838 63.8357 79.4931 63.8357C78.9123 63.8478 78.3981 63.7087 77.9564 63.4364Z" fill="#4F4C4C"></path>
    <path d="M83.9481 58.6629C83.7061 58.9473 83.5609 59.3587 83.5125 59.8911H86.2229C86.2048 59.3466 86.0898 58.9352 85.8599 58.6569C85.6361 58.3786 85.3215 58.2394 84.9222 58.2394C84.5168 58.2334 84.1901 58.3786 83.9481 58.6629ZM87.3301 62.1296C87.4148 62.2445 87.4571 62.4018 87.4571 62.5954C87.4571 62.8737 87.3119 63.1036 87.0155 63.2912C86.7432 63.4606 86.4347 63.5937 86.0898 63.6965C85.745 63.7994 85.4183 63.8478 85.1037 63.8478C84.1599 63.8478 83.4097 63.5453 82.8591 62.9403C82.3086 62.3353 82.0303 61.5064 82.0303 60.4598C82.0303 59.7943 82.1513 59.2014 82.3933 58.6871C82.6353 58.1729 82.9741 57.7736 83.4097 57.4892C83.8453 57.2049 84.3414 57.0597 84.8919 57.0597C85.4183 57.0597 85.8781 57.1867 86.2713 57.4469C86.6646 57.707 86.9671 58.07 87.1849 58.5419C87.4027 59.0138 87.5116 59.5704 87.5116 60.2117C87.5116 60.5929 87.3603 60.7865 87.0578 60.7865H83.5186C83.567 61.3975 83.7243 61.8513 83.9844 62.1417C84.2506 62.4321 84.6318 62.5773 85.1339 62.5773C85.388 62.5773 85.6179 62.541 85.8115 62.4684C86.0051 62.3958 86.229 62.299 86.477 62.1719C86.719 62.0328 86.8945 61.9602 87.0034 61.9602C87.1365 61.9541 87.2514 62.0146 87.3301 62.1296Z" fill="#4F4C4C"></path>
    <path d="M1.70157 72.6253C1.30832 72.3712 1.00582 72.0082 0.794074 71.5302C0.582324 71.0583 0.479492 70.4957 0.479492 69.8483C0.479492 69.207 0.582324 68.6504 0.794074 68.1725C1.00582 67.7006 1.30832 67.3315 1.70157 67.0774C2.09482 66.8233 2.55462 66.6963 3.08702 66.6963C3.43187 66.6963 3.75858 66.7568 4.06713 66.8778C4.37568 66.9988 4.64792 67.1682 4.87782 67.3981C4.97462 67.4828 5.02907 67.6038 5.02907 67.749C5.02907 67.8518 5.00489 67.9426 4.95044 68.0152C4.89599 68.0878 4.83548 68.1241 4.76288 68.1241C4.67213 68.1241 4.58744 68.0878 4.50274 68.0091C4.24864 67.7974 4.01872 67.6522 3.81302 67.5675C3.60732 67.4828 3.37139 67.4404 3.11124 67.4404C2.53649 67.4404 2.08879 67.6461 1.78024 68.0636C1.47169 68.475 1.31438 69.0739 1.31438 69.8483C1.31438 70.6288 1.47169 71.2277 1.78024 71.6391C2.08879 72.0505 2.53044 72.2623 3.11124 72.2623C3.36534 72.2623 3.59524 72.2199 3.80094 72.1292C4.00664 72.0445 4.24259 71.8932 4.50274 71.6936C4.60559 71.621 4.69633 71.5786 4.76288 71.5786C4.83548 71.5786 4.90204 71.6149 4.95044 71.6875C5.00489 71.7601 5.02907 71.8509 5.02907 71.9537C5.02907 72.0989 4.98067 72.2139 4.87782 72.3046C4.64792 72.5345 4.37568 72.7039 4.06713 72.8249C3.75858 72.9459 3.43187 73.0064 3.08702 73.0064C2.55462 73.0064 2.09482 72.8794 1.70157 72.6253Z" fill="#40BFBC"></path>
    <path d="M8.40497 71.9477C8.59252 71.6936 8.68325 71.3124 8.68325 70.8224C8.68325 70.3323 8.58647 69.9572 8.39892 69.6971C8.21137 69.4369 7.94515 69.3099 7.59425 69.3099C7.2494 69.3099 6.98321 69.4369 6.78961 69.6971C6.59601 69.9572 6.50525 70.3323 6.50525 70.8224C6.50525 71.3185 6.59601 71.6936 6.78356 71.9477C6.97111 72.2018 7.23732 72.3349 7.58822 72.3349C7.95122 72.3349 8.22347 72.2018 8.40497 71.9477ZM6.60811 72.7584C6.32376 72.5769 6.09992 72.3228 5.94867 71.984C5.79137 71.6512 5.71875 71.258 5.71875 70.8163C5.71875 70.3686 5.79742 69.9754 5.94867 69.6426C6.10597 69.3099 6.32376 69.0497 6.60811 68.8682C6.89246 68.6867 7.22521 68.596 7.60031 68.596C7.97541 68.596 8.30815 68.6867 8.5925 68.8682C8.87685 69.0497 9.10072 69.3038 9.25197 69.6426C9.40927 69.9754 9.48186 70.3686 9.48186 70.8163C9.48186 71.258 9.40322 71.6452 9.25197 71.984C9.09467 72.3167 8.87685 72.5769 8.5925 72.7584C8.30815 72.9399 7.97541 73.0306 7.60031 73.0306C7.22521 73.0306 6.89246 72.9399 6.60811 72.7584Z" fill="#40BFBC"></path>
    <path d="M13.1692 68.6867C13.2297 68.6443 13.2963 68.6262 13.3628 68.6262C13.4596 68.6262 13.5504 68.6625 13.629 68.7411C13.7077 68.8137 13.7439 68.9045 13.7439 69.0134C13.7439 69.0739 13.7318 69.1283 13.7137 69.1767L12.2133 72.716C12.177 72.8067 12.1225 72.8793 12.0439 72.9277C11.9652 72.9761 11.8866 73.0003 11.8019 73.0003C11.7172 73.0003 11.6385 72.9761 11.5599 72.9277C11.4812 72.8793 11.4268 72.8067 11.3905 72.716L9.89011 69.1767C9.87196 69.1283 9.85986 69.0739 9.85986 69.0134C9.85986 68.9105 9.90219 68.8198 9.98689 68.7411C10.0716 68.6625 10.1624 68.6262 10.2713 68.6262C10.4225 68.6262 10.5375 68.7109 10.6101 68.8682L11.8321 71.875L13.0421 68.8803C13.0663 68.7956 13.1087 68.729 13.1692 68.6867Z" fill="#40BFBC"></path>
    <path d="M15.2267 69.57C15.0452 69.7878 14.9302 70.0903 14.8939 70.4775H16.9207C16.9025 70.0843 16.8118 69.7757 16.6484 69.564C16.4851 69.3522 16.2491 69.2433 15.9527 69.2433C15.6502 69.2494 15.4082 69.3522 15.2267 69.57ZM17.5075 71.99C17.5559 72.0566 17.5801 72.1352 17.5801 72.232C17.5801 72.4014 17.4833 72.5466 17.2958 72.6616C17.1143 72.7765 16.9086 72.8673 16.6968 72.9338C16.479 73.0004 16.2733 73.0306 16.0737 73.0306C15.4626 73.0306 14.9847 72.831 14.6338 72.4377C14.2829 72.0445 14.1074 71.506 14.1074 70.8224C14.1074 70.3868 14.1861 69.9996 14.3373 69.6608C14.4946 69.322 14.7124 69.0618 14.9907 68.8743C15.269 68.6867 15.5897 68.596 15.9466 68.596C16.4609 68.596 16.8662 68.7775 17.1687 69.1465C17.4652 69.5156 17.6164 70.0117 17.6164 70.6348C17.6164 70.8708 17.5196 70.9857 17.3321 70.9857H14.9C14.9544 71.8872 15.3416 72.3409 16.0737 72.3409C16.2673 72.3409 16.4367 72.3107 16.5758 72.2562C16.715 72.1957 16.8662 72.1231 17.0235 72.0263C17.0417 72.0142 17.084 71.99 17.1506 71.9537C17.2232 71.9174 17.2776 71.8993 17.326 71.8993C17.3986 71.8932 17.4591 71.9295 17.5075 71.99Z" fill="#40BFBC"></path>
    <path d="M20.8719 68.9777C20.8719 69.1047 20.8417 69.2015 20.7872 69.2681C20.7267 69.3346 20.6299 69.3709 20.4908 69.383L20.2548 69.4072C19.9221 69.4435 19.6801 69.5706 19.5167 69.7944C19.3594 70.0183 19.2747 70.2845 19.2747 70.5991V72.6016C19.2747 72.7408 19.2384 72.8436 19.1658 72.9162C19.0932 72.9888 18.9964 73.0191 18.8815 73.0191C18.7665 73.0191 18.6697 72.9828 18.5971 72.9162C18.5185 72.8436 18.4822 72.7408 18.4822 72.6016V69.0442C18.4822 68.9111 18.5185 68.8083 18.5971 68.7357C18.6758 68.6631 18.7665 68.6268 18.8815 68.6268C18.9843 68.6268 19.0751 68.6631 19.1477 68.7357C19.2203 68.8083 19.2566 68.9111 19.2566 69.0382V69.4556C19.3594 69.2015 19.5107 69.0019 19.7103 68.8688C19.91 68.7357 20.1338 68.657 20.3879 68.6328L20.4968 68.6268C20.7449 68.5965 20.8719 68.7175 20.8719 68.9777Z" fill="#40BFBC"></path>
    <path d="M21.5018 72.8744C21.4231 72.8018 21.3868 72.6989 21.3868 72.5598V69.0145C21.3868 68.8753 21.4231 68.7664 21.5018 68.6938C21.5804 68.6212 21.6712 68.5849 21.7862 68.5849C21.9011 68.5849 21.9979 68.6212 22.0705 68.6938C22.1431 68.7664 22.1794 68.8753 22.1794 69.0145V72.5598C22.1794 72.6989 22.1431 72.8018 22.0705 72.8744C21.9979 72.947 21.9011 72.9772 21.7862 72.9772C21.6712 72.9772 21.5744 72.947 21.5018 72.8744ZM21.4232 67.5867C21.3324 67.4959 21.29 67.3689 21.29 67.2176C21.29 67.0664 21.3324 66.9454 21.4232 66.8546C21.5139 66.7639 21.6349 66.7215 21.7862 66.7215C21.9314 66.7215 22.0523 66.7639 22.1431 66.8546C22.2338 66.9454 22.2822 67.0664 22.2822 67.2176C22.2822 67.3689 22.2399 67.4899 22.1492 67.5867C22.0584 67.6774 21.9374 67.7258 21.7862 67.7258C21.6349 67.7258 21.5139 67.6835 21.4232 67.5867Z" fill="#40BFBC"></path>
    <path d="M26.6739 70.3229V72.5917C26.6739 72.7248 26.6376 72.8276 26.565 72.9002C26.4924 72.9728 26.3956 73.0091 26.2686 73.0091C26.1476 73.0091 26.0507 72.9728 25.9842 72.8942C25.9116 72.8155 25.8753 72.7187 25.8753 72.5856V70.3592C25.8753 69.9962 25.8087 69.7361 25.6817 69.5667C25.5546 69.3973 25.355 69.3126 25.0828 69.3126C24.7621 69.3126 24.508 69.4215 24.3144 69.6453C24.1208 69.8692 24.024 70.1656 24.024 70.5347V72.5917C24.024 72.7187 23.9877 72.8216 23.9151 72.9002C23.8425 72.9728 23.7457 73.0152 23.6308 73.0152C23.5098 73.0152 23.413 72.9789 23.3404 72.9002C23.2678 72.8216 23.2314 72.7248 23.2314 72.5917V69.0343C23.2314 68.9133 23.2677 68.8104 23.3464 68.7318C23.425 68.6531 23.5158 68.6168 23.6308 68.6168C23.7457 68.6168 23.8365 68.6531 23.903 68.7318C23.9696 68.8044 24.0059 68.9072 24.0059 69.0282V69.3852C24.1329 69.1311 24.3083 68.9314 24.5322 68.7983C24.756 68.6652 25.0102 68.5987 25.2945 68.5987C26.2141 68.5987 26.6739 69.1734 26.6739 70.3229Z" fill="#40BFBC"></path>
    <path d="M30.2358 71.7953C30.4294 71.5472 30.5262 71.1963 30.5262 70.7547C30.5262 70.3191 30.4294 69.9742 30.2418 69.7201C30.0482 69.466 29.782 69.339 29.4372 69.339C29.0923 69.339 28.8201 69.466 28.6204 69.7141C28.4268 69.9621 28.324 70.313 28.324 70.7547C28.324 71.1963 28.4208 71.5412 28.6204 71.7953C28.8201 72.0433 29.0923 72.1704 29.4311 72.1704C29.776 72.1704 30.0422 72.0433 30.2358 71.7953ZM31.2098 68.7642C31.2824 68.8429 31.3187 68.9457 31.3187 69.0728V72.6544C31.3187 73.3078 31.1614 73.7978 30.8529 74.1306C30.5383 74.4633 30.0785 74.6267 29.4735 74.6267C28.9048 74.6267 28.4329 74.5057 28.0578 74.2697C27.8642 74.1487 27.7674 74.0035 27.7674 73.8341C27.7674 73.7373 27.7916 73.6526 27.84 73.5921C27.8884 73.5256 27.9489 73.4953 28.0275 73.4953C28.0941 73.4953 28.203 73.5377 28.3482 73.6284C28.5357 73.7252 28.7112 73.8039 28.8745 73.8583C29.0379 73.9128 29.2315 73.943 29.4553 73.943C30.1813 73.943 30.5383 73.5377 30.5383 72.727V72.0554C30.4294 72.3095 30.26 72.5092 30.0361 72.6544C29.8123 72.7996 29.5461 72.8661 29.2496 72.8661C28.9169 72.8661 28.6144 72.7754 28.3542 72.606C28.0941 72.4305 27.8884 72.1825 27.7432 71.8618C27.598 71.5412 27.5254 71.1721 27.5254 70.7547C27.5254 70.3372 27.598 69.9682 27.7432 69.6475C27.8884 69.3269 28.0941 69.0788 28.3542 68.8973C28.6144 68.7219 28.9108 68.6311 29.2496 68.6311C29.5461 68.6311 29.8002 68.7037 30.024 68.8429C30.2479 68.982 30.4173 69.1817 30.5322 69.4358V69.0667C30.5322 68.9397 30.5685 68.8368 30.6411 68.7582C30.7137 68.6856 30.8105 68.6432 30.9255 68.6432C31.0404 68.6493 31.1372 68.6856 31.2098 68.7642Z" fill="#40BFBC"></path>
    <path d="M36.6761 72.4201C36.7245 72.4746 36.7487 72.5532 36.7487 72.65C36.7487 72.765 36.7064 72.8557 36.6277 72.9162C36.5491 72.9767 36.4281 73.0009 36.2708 72.9888L36.059 72.9707C35.6355 72.9344 35.3148 72.7892 35.1091 72.5351C34.8974 72.281 34.7945 71.9059 34.7945 71.4098V69.3588H34.3226C34.0927 69.3588 33.9778 69.2439 33.9778 69.02C33.9778 68.9172 34.008 68.8325 34.0685 68.772C34.129 68.7115 34.2137 68.6812 34.3226 68.6812H34.7945V67.7798C34.7945 67.6467 34.8309 67.5438 34.9035 67.4652C34.9761 67.3926 35.0668 67.3502 35.1878 67.3502C35.3088 67.3502 35.4056 67.3865 35.4782 67.4652C35.5508 67.5438 35.5871 67.6467 35.5871 67.7798V68.6812H36.3675C36.4764 68.6812 36.5611 68.7115 36.6216 68.772C36.6821 68.8325 36.7124 68.9172 36.7124 69.02C36.7124 69.1289 36.6821 69.2136 36.6216 69.2741C36.5611 69.3346 36.4764 69.3588 36.3675 69.3588H35.5871V71.4763C35.5871 71.7486 35.6355 71.9543 35.7383 72.0813C35.8412 72.2084 35.9985 72.281 36.2042 72.2991L36.422 72.3173C36.543 72.3294 36.6277 72.3596 36.6761 72.4201Z" fill="#40BFBC"></path>
    <path d="M40.817 70.29V72.5587C40.817 72.6858 40.7807 72.7886 40.7081 72.8673C40.6355 72.9399 40.5387 72.9822 40.4177 72.9822C40.2967 72.9822 40.1999 72.9459 40.1334 72.8673C40.0608 72.7886 40.0245 72.6918 40.0245 72.5587V70.296C40.0245 69.9451 39.9579 69.691 39.8309 69.5277C39.7038 69.3643 39.5042 69.2857 39.2319 69.2857C38.9113 69.2857 38.6572 69.3946 38.4636 69.6184C38.27 69.8423 38.1732 70.1387 38.1732 70.5078V72.5587C38.1732 72.6858 38.1369 72.7886 38.0643 72.8673C37.9917 72.9399 37.8949 72.9822 37.7799 72.9822C37.6589 72.9822 37.5621 72.9459 37.4895 72.8673C37.4169 72.7886 37.3806 72.6918 37.3806 72.5587V67.15C37.3806 67.023 37.4169 66.9201 37.4956 66.8415C37.5742 66.7628 37.671 66.7265 37.792 66.7265C37.907 66.7265 37.9977 66.7628 38.0703 66.8354C38.1429 66.908 38.1792 67.0048 38.1792 67.1258V69.3099C38.3123 69.0679 38.4878 68.8803 38.7056 68.7533C38.9234 68.6262 39.1775 68.5597 39.4618 68.5597C40.3572 68.5657 40.817 69.1405 40.817 70.29Z" fill="#40BFBC"></path>
    <path d="M42.8011 69.57C42.6196 69.7878 42.5047 70.0903 42.4684 70.4775H44.4951C44.477 70.0843 44.3862 69.7757 44.2229 69.564C44.0595 69.3522 43.8236 69.2433 43.5271 69.2433C43.2246 69.2494 42.9826 69.3522 42.8011 69.57ZM45.082 71.99C45.1304 72.0566 45.1546 72.1352 45.1546 72.232C45.1546 72.4014 45.0578 72.5466 44.8702 72.6616C44.6887 72.7765 44.483 72.8673 44.2713 72.9338C44.0535 73.0004 43.8478 73.0306 43.6481 73.0306C43.0371 73.0306 42.5591 72.831 42.2082 72.4377C41.8573 72.0445 41.6819 71.506 41.6819 70.8224C41.6819 70.3868 41.7605 69.9996 41.9118 69.6608C42.0691 69.322 42.2869 69.0618 42.5652 68.8743C42.8435 68.6867 43.1641 68.596 43.5211 68.596C44.0353 68.596 44.4407 68.7775 44.7432 69.1465C45.0396 69.5156 45.1909 70.0117 45.1909 70.6348C45.1909 70.8708 45.0941 70.9857 44.9065 70.9857H42.4684C42.5228 71.8872 42.91 72.3409 43.6421 72.3409C43.8357 72.3409 44.0051 72.3107 44.1442 72.2562C44.2834 72.1957 44.4346 72.1231 44.5919 72.0263C44.6101 72.0142 44.6524 71.99 44.719 71.9537C44.7916 71.9174 44.846 71.8993 44.8944 71.8993C44.9731 71.8932 45.0336 71.9295 45.082 71.99Z" fill="#40BFBC"></path>
    <path d="M48.8554 72.7583C48.5771 72.5768 48.3594 72.3227 48.2021 71.99C48.0448 71.6572 47.9722 71.2761 47.9722 70.8345C47.9722 70.3928 48.0508 69.9995 48.2142 69.6607C48.3715 69.3219 48.5953 69.0618 48.8857 68.8742C49.1761 68.6867 49.5028 68.596 49.8779 68.596C50.0776 68.596 50.2772 68.6262 50.4769 68.6927C50.6765 68.7593 50.858 68.844 51.0153 68.9529C51.1847 69.08 51.2694 69.2312 51.2694 69.4006C51.2694 69.4974 51.2452 69.5821 51.1968 69.6487C51.1484 69.7152 51.0879 69.7515 51.0153 69.7515C50.9669 69.7515 50.9185 69.7394 50.8762 69.7152C50.8278 69.691 50.7673 69.6487 50.6947 69.5942C50.5616 69.5035 50.4406 69.4309 50.3317 69.3825C50.2167 69.3341 50.0836 69.3098 49.9263 69.3098C49.5694 69.3098 49.291 69.443 49.0974 69.7092C48.8978 69.9754 48.801 70.3505 48.801 70.8284C48.801 71.3064 48.8978 71.6754 49.0914 71.9355C49.285 72.1957 49.5633 72.3227 49.9142 72.3227C50.0715 72.3227 50.2107 72.2985 50.3317 72.2441C50.4527 72.1896 50.5736 72.1231 50.7007 72.0323C50.7612 71.99 50.8157 71.9537 50.8762 71.9295C50.9306 71.8992 50.985 71.8872 51.0334 71.8872C51.106 71.8872 51.1665 71.9234 51.2149 71.99C51.2633 72.0565 51.2876 72.1412 51.2876 72.238C51.2876 72.3167 51.2694 72.3954 51.2271 72.4619C51.1908 72.5285 51.1182 72.595 51.0274 72.6676C50.8701 72.7825 50.6886 72.8733 50.4769 72.9398C50.2651 73.0064 50.0534 73.0367 49.8416 73.0367C49.4665 73.0306 49.1398 72.9398 48.8554 72.7583Z" fill="#40BFBC"></path>
    <path d="M54.4654 71.9477C54.653 71.6936 54.7437 71.3124 54.7437 70.8224C54.7437 70.3323 54.647 69.9572 54.4594 69.6971C54.2719 69.4369 54.0056 69.3099 53.6547 69.3099C53.3099 69.3099 53.0437 69.4369 52.8501 69.6971C52.6626 69.9572 52.5657 70.3323 52.5657 70.8224C52.5657 71.3185 52.6565 71.6936 52.8441 71.9477C53.0316 72.2018 53.2978 72.3349 53.6487 72.3349C54.0117 72.3349 54.2779 72.2018 54.4654 71.9477ZM52.6626 72.7584C52.3782 72.5769 52.1544 72.3228 52.0031 71.984C51.8458 71.6512 51.7732 71.258 51.7732 70.8163C51.7732 70.3686 51.8519 69.9754 52.0031 69.6426C52.1604 69.3099 52.3782 69.0497 52.6626 68.8682C52.9469 68.6867 53.2796 68.596 53.6547 68.596C54.0298 68.596 54.3626 68.6867 54.6469 68.8682C54.9313 69.0497 55.1552 69.3038 55.3064 69.6426C55.4637 69.9754 55.5363 70.3686 55.5363 70.8163C55.5363 71.258 55.4577 71.6452 55.3064 71.984C55.1491 72.3167 54.9313 72.5769 54.6469 72.7584C54.3626 72.9399 54.0298 73.0306 53.6547 73.0306C53.2796 73.0306 52.9469 72.9399 52.6626 72.7584Z" fill="#40BFBC"></path>
    <path d="M62.1671 70.323V72.5917C62.1671 72.7248 62.1308 72.8277 62.0582 72.9003C61.9856 72.9729 61.8888 73.0092 61.7678 73.0092C61.6529 73.0092 61.5561 72.9729 61.4835 72.9003C61.4109 72.8277 61.3746 72.7248 61.3746 72.5917V70.329C61.3746 69.9721 61.3141 69.7179 61.1991 69.5546C61.0842 69.3973 60.9027 69.3126 60.6546 69.3126C60.3642 69.3126 60.1404 69.4215 59.971 69.6393C59.8016 69.8571 59.7169 70.1536 59.7169 70.5347V72.5917C59.7169 72.7248 59.6806 72.8277 59.608 72.9003C59.5354 72.9729 59.4386 73.0092 59.3176 73.0092C59.2026 73.0092 59.1058 72.9729 59.0332 72.9003C58.9606 72.8277 58.9243 72.7248 58.9243 72.5917V70.329C58.9243 69.9721 58.8638 69.7179 58.7489 69.5546C58.6339 69.3973 58.4524 69.3126 58.2044 69.3126C57.914 69.3126 57.6841 69.4215 57.5147 69.6393C57.3453 69.8571 57.2606 70.1536 57.2606 70.5347V72.5917C57.2606 72.7248 57.2243 72.8277 57.1517 72.9003C57.0791 72.9729 56.9823 73.0092 56.8673 73.0092C56.7524 73.0092 56.6556 72.9729 56.583 72.9003C56.5043 72.8277 56.468 72.7248 56.468 72.5917V69.0343C56.468 68.9073 56.5104 68.8044 56.589 68.7258C56.6677 68.6471 56.7645 68.6108 56.8734 68.6108C56.9823 68.6108 57.073 68.6471 57.1456 68.7197C57.2182 68.7923 57.2545 68.8952 57.2545 69.0222V69.3428C57.3695 69.1008 57.5268 68.9133 57.7325 68.7863C57.9382 68.6592 58.1741 68.5927 58.4403 68.5927C58.7307 68.5927 58.9788 68.6592 59.1663 68.7923C59.3599 68.9254 59.4991 69.1311 59.5959 69.4155C59.7108 69.1674 59.8802 68.9678 60.1041 68.8165C60.3279 68.6653 60.5881 68.5927 60.8724 68.5927C61.7376 68.5987 62.1671 69.1735 62.1671 70.323Z" fill="#40BFBC"></path>
    <path d="M69.0172 70.323V72.5917C69.0172 72.7248 68.9809 72.8277 68.9083 72.9003C68.8357 72.9729 68.7389 73.0092 68.6179 73.0092C68.503 73.0092 68.4062 72.9729 68.3336 72.9003C68.261 72.8277 68.2247 72.7248 68.2247 72.5917V70.329C68.2247 69.9721 68.1642 69.7179 68.0492 69.5546C67.9343 69.3973 67.7528 69.3126 67.5047 69.3126C67.2143 69.3126 66.9905 69.4215 66.8211 69.6393C66.6517 69.8571 66.567 70.1536 66.567 70.5347V72.5917C66.567 72.7248 66.5307 72.8277 66.4581 72.9003C66.3855 72.9729 66.2887 73.0092 66.1677 73.0092C66.0527 73.0092 65.9559 72.9729 65.8833 72.9003C65.8107 72.8277 65.7744 72.7248 65.7744 72.5917V70.329C65.7744 69.9721 65.7139 69.7179 65.599 69.5546C65.484 69.3973 65.3025 69.3126 65.0545 69.3126C64.7641 69.3126 64.5342 69.4215 64.3648 69.6393C64.1954 69.8571 64.1107 70.1536 64.1107 70.5347V72.5917C64.1107 72.7248 64.0744 72.8277 64.0018 72.9003C63.9292 72.9729 63.8324 73.0092 63.7174 73.0092C63.6025 73.0092 63.5057 72.9729 63.4331 72.9003C63.3544 72.8277 63.3181 72.7248 63.3181 72.5917V69.0343C63.3181 68.9073 63.3605 68.8044 63.4391 68.7258C63.5178 68.6532 63.6146 68.6108 63.7235 68.6108C63.8324 68.6108 63.9231 68.6471 63.9957 68.7197C64.0683 68.7923 64.1046 68.8952 64.1046 69.0222V69.3428C64.2196 69.1008 64.3769 68.9133 64.5826 68.7863C64.7883 68.6592 65.0242 68.5927 65.2904 68.5927C65.5869 68.5927 65.8289 68.6592 66.0164 68.7923C66.21 68.9254 66.3492 69.1311 66.446 69.4155C66.5609 69.1674 66.7303 68.9678 66.9602 68.8165C67.1841 68.6653 67.4442 68.5927 67.7286 68.5927C68.5816 68.5987 69.0172 69.1735 69.0172 70.323Z" fill="#40BFBC"></path>
    <path d="M73.377 68.7323C73.4496 68.8049 73.4859 68.9139 73.4859 69.047V72.6043C73.4859 72.7253 73.4496 72.8282 73.377 72.9008C73.3044 72.9734 73.2076 73.0158 73.0866 73.0158C72.9777 73.0158 72.887 72.9794 72.8204 72.9068C72.7539 72.8342 72.7176 72.7375 72.7176 72.6165V72.2837C72.5966 72.5257 72.4332 72.7133 72.2154 72.8403C72.0037 72.9674 71.7677 73.0339 71.5015 73.0339C70.5698 73.0339 70.104 72.4652 70.104 71.3218V69.047C70.104 68.9139 70.1403 68.811 70.2129 68.7323C70.2855 68.6597 70.3823 68.6174 70.5093 68.6174C70.6303 68.6174 70.7271 68.6537 70.7937 68.7323C70.8663 68.8049 70.9026 68.9139 70.9026 69.047V71.3097C70.9026 71.6545 70.9631 71.9086 71.0901 72.072C71.2172 72.2353 71.4108 72.314 71.6709 72.314C71.9795 72.314 72.2275 72.2051 72.4151 71.9812C72.6026 71.7574 72.6934 71.467 72.6934 71.0979V69.047C72.6934 68.9199 72.7297 68.8171 72.8023 68.7384C72.8749 68.6598 72.9717 68.6235 73.0927 68.6235C73.2076 68.6174 73.3044 68.6597 73.377 68.7323Z" fill="#40BFBC"></path>
    <path d="M78.0274 70.3229V72.5917C78.0274 72.7248 77.9911 72.8276 77.9185 72.9002C77.8459 72.9728 77.7491 73.0091 77.6221 73.0091C77.5011 73.0091 77.4043 72.9728 77.3377 72.8942C77.2651 72.8155 77.2288 72.7187 77.2288 72.5856V70.3592C77.2288 69.9962 77.1623 69.7361 77.0352 69.5667C76.9082 69.3973 76.7085 69.3126 76.4363 69.3126C76.1156 69.3126 75.8615 69.4215 75.6679 69.6453C75.4743 69.8692 75.3775 70.1656 75.3775 70.5347V72.5917C75.3775 72.7187 75.3412 72.8216 75.2686 72.9002C75.196 72.9728 75.0992 73.0152 74.9843 73.0152C74.8633 73.0152 74.7665 72.9789 74.6939 72.9002C74.6213 72.8216 74.585 72.7248 74.585 72.5917V69.0343C74.585 68.9133 74.6213 68.8104 74.6999 68.7318C74.7786 68.6531 74.8693 68.6168 74.9903 68.6168C75.1053 68.6168 75.196 68.6531 75.2626 68.7318C75.3291 68.8044 75.3654 68.9072 75.3654 69.0282V69.3852C75.4925 69.1311 75.6679 68.9314 75.8918 68.7983C76.1156 68.6652 76.3697 68.5987 76.6541 68.5987C77.5676 68.5987 78.0274 69.1734 78.0274 70.3229Z" fill="#40BFBC"></path>
    <path d="M79.1544 72.8744C79.0757 72.8018 79.0394 72.6989 79.0394 72.5598V69.0145C79.0394 68.8753 79.0757 68.7664 79.1544 68.6938C79.233 68.6212 79.3238 68.5849 79.4387 68.5849C79.5537 68.5849 79.6505 68.6212 79.7231 68.6938C79.7957 68.7664 79.832 68.8753 79.832 69.0145V72.5598C79.832 72.6989 79.7957 72.8018 79.7231 72.8744C79.6505 72.947 79.5537 72.9772 79.4387 72.9772C79.3238 72.9772 79.227 72.947 79.1544 72.8744ZM79.0757 67.5867C78.985 67.4959 78.9426 67.3689 78.9426 67.2176C78.9426 67.0664 78.985 66.9454 79.0757 66.8546C79.1665 66.7639 79.2875 66.7215 79.4387 66.7215C79.5839 66.7215 79.7049 66.7639 79.7957 66.8546C79.8864 66.9454 79.9348 67.0664 79.9348 67.2176C79.9348 67.3689 79.8925 67.4899 79.8017 67.5867C79.711 67.6774 79.59 67.7258 79.4387 67.7258C79.2875 67.7258 79.1665 67.6835 79.0757 67.5867Z" fill="#40BFBC"></path>
    <path d="M83.0809 72.4201C83.1293 72.4746 83.1535 72.5532 83.1535 72.65C83.1535 72.765 83.1111 72.8557 83.0325 72.9162C82.9538 72.9767 82.8328 73.0009 82.6755 72.9888L82.4638 72.9707C82.0403 72.9344 81.7196 72.7892 81.5139 72.5351C81.3022 72.281 81.1993 71.9059 81.1993 71.4098V69.3588H80.7274C80.4975 69.3588 80.3826 69.2439 80.3826 69.02C80.3826 68.9172 80.4128 68.8325 80.4733 68.772C80.5338 68.7115 80.6185 68.6812 80.7274 68.6812H81.1993V67.7798C81.1993 67.6467 81.2356 67.5438 81.3082 67.4652C81.3808 67.3926 81.4716 67.3502 81.5926 67.3502C81.7136 67.3502 81.8104 67.3865 81.883 67.4652C81.9556 67.5438 81.9919 67.6467 81.9919 67.7798V68.6812H82.7723C82.8812 68.6812 82.9659 68.7115 83.0264 68.772C83.0869 68.8325 83.1172 68.9172 83.1172 69.02C83.1172 69.1289 83.0869 69.2136 83.0264 69.2741C82.9659 69.3346 82.8812 69.3588 82.7723 69.3588H81.9919V71.4763C81.9919 71.7486 82.0403 71.9543 82.1431 72.0813C82.246 72.2084 82.4033 72.281 82.609 72.2991L82.8268 72.3173C82.9478 72.3294 83.0325 72.3596 83.0809 72.4201Z" fill="#40BFBC"></path>
    <path d="M86.8506 68.7147C86.9111 68.6724 86.9777 68.6542 87.0442 68.6542C87.141 68.6542 87.2318 68.6905 87.3104 68.7692C87.3891 68.8418 87.4254 68.9325 87.4254 69.0414C87.4254 69.1019 87.4133 69.1564 87.3951 69.2048L85.2111 74.3594C85.1808 74.438 85.1324 74.5046 85.0719 74.5469C85.0114 74.5893 84.9449 74.6135 84.8783 74.6135C84.7815 74.6135 84.6968 74.5772 84.6242 74.5106C84.5456 74.438 84.5093 74.3533 84.5093 74.2505C84.5093 74.2021 84.5214 74.1476 84.5456 74.075L85.0901 72.7924L83.5715 69.2108C83.5534 69.1624 83.5413 69.114 83.5413 69.0535C83.5413 68.9446 83.5836 68.8478 83.6683 68.7752C83.753 68.6966 83.8438 68.6603 83.9527 68.6603C84.11 68.6603 84.2249 68.745 84.2915 68.9023L85.5075 71.9091L86.7175 68.9144C86.7478 68.8236 86.7901 68.7571 86.8506 68.7147Z" fill="#40BFBC"></path>
  </g>
  <defs>
    <clipPath id="clip0_540_6277">
      <rect width="88" height="74.25" fill="white" transform="translate(0 0.875)"></rect>
    </clipPath>
  </defs>
</svg>
