<svg width="220" height="60" fill="none" xmlns="http://www.w3.org/2000/svg"><g clip-path="url(#clip0_7718_4048)" fill="#4C12A1"><path d="M151.021 44.7293V45.5854H150.357V39.2549H151.021V42.0038C151.383 41.4654 151.908 41.0072 152.726 41.0072 153.795 41.0072 154.855 41.8566 154.855 43.3314V43.3481C154.855 44.8129 153.805 45.6823 152.726 45.6823 151.898 45.6823 151.363 45.2309 151.021 44.7293zM154.174 43.3582V43.3414C154.174 42.2813 153.45 41.6058 152.606 41.6058 151.762 41.6058 150.995 42.3081 150.995 43.3314V43.3481C150.995 44.3882 151.779 45.0837 152.606 45.0837 153.433 45.0837 154.174 44.4417 154.174 43.3582zM155.61 46.7759L155.832 46.2476C156.048 46.3613 156.248 46.4114 156.53 46.4114 156.929 46.4114 157.178 46.2041 157.444 45.572L155.417 41.1042H156.151L157.773 44.843 159.201 41.1042H159.909L158.038 45.7359C157.66 46.6622 157.228 47 156.557 47 156.188 47 155.909 46.9231 155.61 46.7759zM203.387 33.8675C204.125 30.8946 204.248 27.8748 208.245 28.3998L208.826 25.7981C202.706 25.0523 200.779 27.4869 199.779 32.4061L203.387 33.8709V33.8675zM163.434 45.6657L167.627 27.634C167.807 26.7111 168.76 26.0088 169.903 26.0088H171.99C171.594 27.7712 170.525 32.3159 170.076 34.2354 171.481 32.4128 176.319 30.801 178.535 32.9847 180.283 34.7103 179.233 38.1079 178.645 40.6829 178.236 42.4553 177.851 44.0371 177.475 45.6657H173.535C174.056 43.4051 174.681 40.8735 175.213 38.4858 175.664 36.4359 175.811 34.2688 173.133 34.5865 172.163 34.7002 171.395 35.2219 170.784 35.8339 169.279 37.3254 168.827 39.8469 168.182 42.3918L167.754 44.2244C167.577 45.0504 166.843 45.6724 165.966 45.6724H163.438L163.434 45.6657z"/><path d="M208.318 36.3589C205.743 36.0612 202.467 34.3624 198.138 32.8876 191.327 30.5601 188.752 32.4629 188.752 32.4629 188.539 33.3592 188.343 34.2286 188.111 35.2185 188.426 35.0011 188.782 34.7403 189.283 34.6299 191.26 34.1751 192.39 35.6533 192.397 37.2819 192.417 40.3317 189.775 43.5856 186.828 43.5555 183.761 43.5254 184.858 40.3518 185.35 38.2349 186.32 34.1216 187.237 30.1588 188.22 26.0054H186.17C185.031 26.0087 184.08 26.711 183.894 27.6373L181.386 38.4356C181.09 39.6763 180.648 41.3049 180.768 42.7328 180.977 45.0202 183.18 45.8563 185.24 45.9767 188.795 46.1974 191.795 45.0269 193.752 43.0137 195.673 41.0273 196.939 37.6397 196.055 34.6166 196.779 34.6868 197.759 34.9476 199.075 35.3657L196.673 45.6656H199.204C200.085 45.669 200.809 45.0503 200.992 44.2243L202.806 36.3355C206.597 37.1046 208.315 36.3589 208.315 36.3589M219.595 30.1222C219.252 31.4264 218.867 31.7441 218.133 32.0785 215.614 33.2122 211.744 34.2522 207.687 33.8944 212.298 33.5132 217.847 30.1088 220 28.4902 220 28.4902 219.93 28.8079 219.595 30.1222z"/><path d="M217.93 33.8909C214.206 34.9309 207.763 35.2319 203.743 33.9979 209.713 36.4157 213.232 36.3254 214.634 36.2518 214.634 36.2518 216.186 36.2518 217.046 35.1115 217.847 34.0414 217.933 33.8909 217.933 33.8909M94.9241 31.2323C94.9241 30.54 95.2198 29.4599 95.5155 28.7676 96.2032 26.9518 97.0073 26.2595 99.6985 26.2595H103.367C105.579 26.2595 106.221 27.2126 106.221 28.0754 106.221 28.7242 105.975 29.8043 105.679 30.54 104.892 32.3559 104.104 33.0047 101.4 33.0047H97.7814C95.5188 33.0047 94.9274 32.0951 94.9274 31.2323M141.569 26.7178C141.569 30.1121 141.595 33.5098 141.595 36.9041 141.595 38.5862 142.359 39.0443 142.469 39.1012 143.034 39.4022 143.745 39.5393 143.891 40.3151 144.091 41.3518 143.918 42.3417 143.446 43.278 142.153 45.8497 140.001 46.9031 137.213 46.883 134.974 46.8663 133.017 46.2443 131.621 44.3682 131.296 43.9302 131.02 43.4486 130.787 42.9537 130.452 42.2313 130.369 42.1945 129.854 42.8299 128.933 43.9603 127.833 44.8665 126.554 45.5454 124.229 46.7827 121.743 47.1038 119.148 46.8931 117.039 46.7225 115.115 46.0738 113.437 44.7662 111.749 43.4519 110.736 41.6929 110.071 39.6764 109.387 37.6064 109.327 35.4761 109.324 33.3359 109.324 29.7509 109.324 26.1627 109.324 22.5777 109.324 20.919 109.364 19.6048 108.776 17.9829 108.447 17.0733 108.576 16.4814 109.646 16.2774 110.556 16.1035 110.719 15.9931 111.633 15.8493 113.484 15.5617 115.334 15.254 117.188 14.9899 118.042 14.8695 118.906 14.7892 119.766 14.7792 120.544 14.7691 120.863 15.1102 120.963 15.8894 121.006 16.2473 121.022 16.6084 121.022 16.9696 121.026 22.1698 120.982 27.3699 121.049 32.5701 121.069 34.1652 121.049 35.6868 121.375 37.2519 121.59 38.2986 122.268 39.1915 123.192 39.7098 124.049 40.1914 125.066 40.3452 126.043 40.2416 126.833 40.1546 127.627 39.8904 128.229 39.3687 129.003 38.6966 129.392 37.6699 129.548 36.6499 129.834 34.7638 129.704 32.7741 129.711 30.8746 129.717 28.8815 129.717 26.885 129.714 24.8919 129.714 23.6144 129.714 22.3403 129.714 21.0628 129.714 16.5951 127.315 16.5549 132.123 15.8593 134.329 15.5383 136.053 15.3009 137.931 15.0367 138.705 14.9297 139.436 14.8594 140.26 14.7792 140.961 14.7123 141.383 15.1905 141.489 15.9028 141.536 16.2138 141.536 16.5382 141.536 16.8559 141.536 20.1465 141.536 23.4338 141.536 26.7245H141.562L141.569 26.7178zM81.5277 30.2425C79.2485 30.2425 76.9726 30.2391 74.6933 30.2425 74.082 30.2425 73.9358 30.4431 74.1152 31.025 75.1186 34.2588 77.1852 36.5328 80.3948 37.5227 83.581 38.5059 86.7208 38.2283 89.6413 36.4526 90.2759 36.068 90.9603 35.7804 91.6248 36.3656 92.2827 36.9475 92.3658 37.7133 92.1498 38.5259 91.4654 41.1009 89.7875 42.9268 87.6711 44.3816 84.508 46.5586 80.9828 47.204 77.2085 46.8696 73.5338 46.5452 70.2412 45.358 67.5134 42.7964 65.4734 40.8836 64.1842 38.5326 63.4898 35.8172 62.9649 33.7605 62.7389 31.6771 62.9416 29.577 63.4865 23.9454 65.8854 19.4041 70.9389 16.6151 74.5737 14.6086 78.4943 14.2875 82.5311 15.0935 85.3154 15.6519 87.6411 16.9963 89.4353 19.2201 90.5351 20.5846 91.3358 22.1162 91.6581 23.8585 91.8342 24.8116 91.9637 25.778 92.0368 26.7445 92.193 28.8179 91.2594 29.9281 89.1163 30.0753 86.5979 30.2492 81.5643 30.2324 81.5311 30.2324M81.2852 23.6277C81.2852 22.6278 81.0792 21.7316 80.8234 20.8488 80.511 19.7753 79.9429 18.8423 78.7368 18.5179 77.4975 18.1835 76.2184 18.7052 75.3977 19.8789 74.1983 21.5978 73.7398 23.5475 73.6501 25.6108 73.6301 26.0991 73.9192 26.1158 74.2647 26.079 76.0622 25.8917 77.8663 25.7412 79.6572 25.5072 81.2619 25.2965 81.2553 25.2563 81.2852 23.6311M14.7523 12.9998C17.7127 12.9597 20.6863 13.5918 23.3111 14.9328 24.7099 15.6484 26.2615 16.6717 26.7433 18.2769 26.9925 19.1029 26.8529 19.8921 26.7599 20.7516 26.6735 21.5508 26.6137 22.3467 26.4409 23.1393 26.1054 24.6843 24.361 25.0221 23.2015 23.9988 22.2081 23.1226 21.4173 21.9822 20.6498 20.882 19.6464 19.444 18.5666 18.1164 17.0017 17.2703 15.2806 16.3373 13.3901 16.6751 12.3535 18.1064 11.4132 19.4072 11.5328 21.076 12.8186 22.0324 13.8187 22.7715 14.9583 23.3467 16.0946 23.8683 18.5433 24.9886 21.0684 25.9484 23.4872 27.1289 25.3611 28.0452 26.9028 29.4196 27.8696 31.3526 28.5075 32.6233 28.7169 33.971 28.6238 35.3689 28.3447 39.5658 26.1618 42.5488 22.6765 44.669 19.5534 46.5651 15.7724 47.0968 12.2139 46.8795 10.2969 46.7658 8.70206 46.4748 6.85474 45.9866 4.65192 45.4013 2.52551 44.5018 1.06361 42.5755.382495 41.6793.0469213 40.6894.0170187 39.5056-.0128839 38.2683-.0162064 37.0242.359237 35.8036.631683 34.9174 1.02042 34.1449 1.96401 33.9476 2.97405 33.7369 4.00071 33.8005 4.60873 34.8338 5.23668 35.9039 5.78822 37.0175 6.3763 38.1111 7.4395 40.1042 8.85157 41.7629 10.9647 42.6591 12.6857 43.3882 14.4467 43.5286 16.1245 42.4785 17.7326 41.472 17.932 39.3451 16.4302 38.2014 15.4767 37.4757 14.347 36.964 13.2605 36.4357 11.0012 35.3354 8.62232 34.4392 6.45936 33.1751 3.24318 31.2957 1.49554 28.4097 1.40915 24.5706 1.28954 19.4507 4.4426 15.3809 9.25027 13.876 11.0178 13.3209 12.8818 13.0266 14.7523 12.9998zM49.9009 30.2425C47.6217 30.2425 45.3458 30.2391 43.0665 30.2425 42.4552 30.2425 42.309 30.4431 42.4884 31.025 43.4918 34.2588 45.5584 36.5328 48.768 37.5227 51.9542 38.5059 55.094 38.2283 58.0145 36.4526 58.6491 36.068 59.3335 35.7804 59.998 36.3656 60.6559 36.9475 60.739 37.7133 60.523 38.5259 59.8386 41.1009 58.1607 42.9268 56.0442 44.3816 52.8812 46.5586 49.356 47.204 45.5817 46.8696 41.907 46.5452 38.6144 45.358 35.8833 42.7964 33.8432 40.8836 32.5541 38.5326 31.8597 35.8172 31.3347 33.7605 31.1088 31.6771 31.3115 29.577 31.8564 23.9454 34.2552 19.4041 39.3088 16.6151 42.9436 14.6086 46.8642 14.2875 50.901 15.0935 53.6853 15.6519 56.011 16.9963 57.8052 19.2201 58.9049 20.5846 59.7057 22.1162 60.0279 23.8585 60.2074 24.8116 60.3336 25.778 60.4067 26.7445 60.5629 28.8179 59.6292 29.9281 57.4862 30.0753 54.9678 30.2492 49.9342 30.2324 49.9009 30.2324M49.6584 23.6277C49.6584 22.6278 49.4524 21.7316 49.1966 20.8488 48.8842 19.7753 48.3161 18.8423 47.11 18.5179 45.8707 18.1835 44.5916 18.7052 43.7709 19.8789 42.5715 21.5978 42.113 23.5475 42.0233 25.6108 42.0033 26.0991 42.2924 26.1158 42.6379 26.079 44.4354 25.8917 46.2395 25.7412 48.0304 25.5072 49.6351 25.2965 49.6285 25.2563 49.6584 23.6311"/></g><defs><clipPath id="clip0_7718_4048"><path fill="#fff" transform="translate(0 13)" d="M0 0H220V34H0z"/></clipPath></defs></svg>