<svg xmlns="http://www.w3.org/2000/svg" width="133.33" height="20" preserveAspectRatio="true" viewBox="0 0 120 19">
    <path d="M114.644 10.535h-1.969c-.807 0-1.486.176-2.04.528-.552.35-.828.843-.828 1.475 0 .468.104.837.31 1.107.209.269.468.473.778.614.311.14.645.234 1.002.281.357.047.686.07.985.07.207 0 .507-.023.898-.07a7.54 7.54 0 0 0 .864-.14v-3.865zM120 7.516v10.29c-.876.258-1.935.515-3.18.772a19.397 19.397 0 0 1-3.938.387c-1.198 0-2.297-.111-3.3-.334-1.002-.222-1.86-.58-2.574-1.07a5.054 5.054 0 0 1-1.675-1.95c-.403-.808-.605-1.797-.605-2.968 0-1.147.241-2.095.726-2.844a5.502 5.502 0 0 1 1.866-1.792c.76-.443 1.6-.755 2.522-.93a14.38 14.38 0 0 1 2.694-.264h2.108c-.023-.42-.138-.772-.345-1.053a2.064 2.064 0 0 0-.794-.65 3.853 3.853 0 0 0-1.072-.316 8.277 8.277 0 0 0-1.21-.088c-.552 0-1.197.065-1.934.194-.738.128-1.498.333-2.28.614a22.6 22.6 0 0 1-.536-1.09 5.323 5.323 0 0 1-.345-1 7.731 7.731 0 0 1-.174-1.053 13.526 13.526 0 0 1-.05-1.247 21.747 21.747 0 0 1 3.299-.842C110.296.094 111.28 0 112.156 0c1.198 0 2.28.146 3.248.44.968.292 1.79.743 2.471 1.351.679.61 1.204 1.387 1.572 2.336.368.948.553 2.078.553 3.389zm-22.7 5.373c0-.234-.04-.462-.121-.685a1.299 1.299 0 0 0-.433-.579c-.206-.164-.495-.3-.863-.404-.369-.105-.853-.158-1.451-.158h-1.59v3.617c.07 0 .254.012.554.035.298.024.701.035 1.209.035.967 0 1.658-.163 2.072-.49.415-.329.623-.785.623-1.371zm-4.457-5.514h1.692c.876 0 1.463-.192 1.763-.58.3-.385.448-.79.448-1.21 0-.398-.155-.767-.465-1.107-.312-.34-.882-.51-1.71-.51-.255 0-.548.007-.882.018-.334.013-.616.03-.846.053v3.336zm9.743 3.126c.622.655.932 1.58.932 2.774 0 2.155-.782 3.647-2.349 4.479-1.566.83-3.881 1.246-6.944 1.246-.807 0-1.86-.03-3.162-.088a43.682 43.682 0 0 1-3.99-.368V.49c.46-.07.99-.134 1.589-.192.599-.059 1.21-.111 1.83-.16a55.526 55.526 0 0 1 1.815-.104C92.894.012 93.407 0 93.845 0c2.879 0 5.033.416 6.46 1.247 1.429.83 2.142 2.124 2.142 3.88 0 .89-.202 1.646-.604 2.266-.404.62-.95 1.153-1.641 1.597.967.352 1.761.856 2.384 1.511zM81.336.106c-.46 0-.938.023-1.433.07A11.66 11.66 0 0 0 78.4.42v6.181h-5.114V.422a10.54 10.54 0 0 0-1.485-.246c-.508-.047-.98-.07-1.417-.07-.461 0-.939.023-1.434.07a11.68 11.68 0 0 0-1.503.245v18.123c.576.092 1.106.163 1.59.21.484.047.92.07 1.312.07s.83-.023 1.314-.07a28.968 28.968 0 0 0 1.623-.21V11.87H78.4v6.673c.575.092 1.105.163 1.589.21.484.047.921.07 1.314.07.39 0 .828-.023 1.312-.07a28.95 28.95 0 0 0 1.624-.21V.42c-.484-.116-.98-.198-1.486-.245a15.52 15.52 0 0 0-1.416-.07zM62.249 1.44A6.272 6.272 0 0 0 59.657.334 15.363 15.363 0 0 0 56.876.07c-1.014 0-1.924.117-2.73.351-.807.235-1.51.504-2.108.809A7.23 7.23 0 0 0 49.48.298 17.138 17.138 0 0 0 46.683.07c-1.728 0-3.156.135-4.285.404-1.129.27-2.096.544-2.902.825v17.245c.599.116 1.14.192 1.624.228.484.035.92.053 1.313.053.368 0 .794-.018 1.278-.053a14.148 14.148 0 0 0 1.624-.228V5.409c.07-.047.248-.094.536-.141a5.08 5.08 0 0 1 .812-.07c.944 0 1.612.27 2.004.807.391.54.587 1.43.587 2.67v9.869c.598.116 1.14.192 1.624.228.483.035.921.053 1.313.053.368 0 .795-.018 1.278-.053a14.155 14.155 0 0 0 1.624-.228V8.288c0-1.053-.104-1.99-.311-2.81.115-.046.328-.104.64-.175.31-.07.627-.105.95-.105.944 0 1.623.27 2.038.807.415.54.622 1.43.622 2.67v9.869c.599.116 1.14.192 1.624.228.484.035.92.053 1.313.053.367 0 .795-.018 1.278-.053a14.159 14.159 0 0 0 1.624-.228V8.043c0-1.733-.247-3.126-.743-4.18-.495-1.053-1.129-1.861-1.9-2.423zM34.28 8.464c.806 0 1.762.105 2.867.316v8.92c-.668.259-1.601.54-2.798.844-1.198.304-2.591.456-4.18.456-1.66 0-3.07-.252-4.233-.755-1.164-.503-2.114-1.188-2.85-2.054-.738-.866-1.274-1.885-1.608-3.056a13.64 13.64 0 0 1-.5-3.758c0-1.287.201-2.504.604-3.653a8.316 8.316 0 0 1 1.797-2.985c.795-.843 1.78-1.51 2.954-2.001C27.507.246 28.866 0 30.409 0c.806 0 1.693.094 2.66.282.968.187 2.027.515 3.18.983-.024.398-.07.772-.139 1.123s-.155.709-.26 1.071c-.103.364-.23.75-.379 1.16-.15.41-.329.871-.536 1.386a13.497 13.497 0 0 0-2.176-.72c-.669-.152-1.244-.228-1.728-.228-.76 0-1.405.118-1.935.352-.53.234-.956.55-1.278.948-.323.398-.559.86-.708 1.387a5.931 5.931 0 0 0-.225 1.633c0 1.57.333 2.722 1.002 3.46.667.737 1.646 1.106 2.937 1.106h.621V8.78a16.66 16.66 0 0 1 1.539-.246 12.6 12.6 0 0 1 1.295-.07zm-18.52.972c0-.398-.022-.843-.068-1.334a30.483 30.483 0 0 0-.208-1.65h-3.302V3.133c-.483-.117-.979-.2-1.485-.247-.507-.046-.98-.07-1.417-.07-.46 0-.939.024-1.433.07-.496.047-.997.13-1.503.247V6.45H3.076c-.114.492-.195.995-.242 1.51-.045.516-.069.995-.069 1.44 0 .469.024.954.069 1.457.047.505.128 1.013.242 1.528h3.267v3.354c.575.093 1.105.164 1.589.21.484.048.92.071 1.313.071.391 0 .83-.023 1.313-.07a29.175 29.175 0 0 0 1.623-.21v-3.355h3.302a26.8 26.8 0 0 0 .208-1.615c.046-.492.068-.937.068-1.335zM18.194.34c.122.547.33 6.241.33 9.078 0 2.842-.208 8.555-.33 9.079-.538.124-6.14.336-8.931.336-2.797 0-8.417-.212-8.932-.336C.209 17.95 0 12.256 0 9.42 0 6.577.209.863.331.34.87.216 6.471.005 9.262.005c2.797 0 8.417.211 8.932.336z"></path>
</svg>