<?xml version="1.0" encoding="utf-8"?>
<!-- Generator: Adobe Illustrator 26.3.1, SVG Export Plug-In . SVG Version: 6.00 Build 0)  -->
<svg version="1.1" id="Layer_1" xmlns="http://www.w3.org/2000/svg" xmlns:xlink="http://www.w3.org/1999/xlink" x="0px" y="0px"
	 viewBox="0 0 1006.3 240.9" style="enable-background:new 0 0 1006.3 240.9;" xml:space="preserve">
<style type="text/css">
	.st0{fill:#331C54;}
	.st1{fill:url(#SVGID_00000132786094549481523740000009537816408149069490_);}
	.st2{fill:url(#SVGID_00000162340269445626613850000018365157298256222632_);}
	.st3{fill:url(#SVGID_00000047779233042308374900000010143706454717471666_);}
	.st4{fill:url(#SVGID_00000102522004298148874490000005911019087736581296_);}
	.st5{fill:url(#SVGID_00000113314704823324190830000001214935434870778763_);}
	.st6{fill:url(#SVGID_00000116223659365005539090000000539646490622673066_);}
	.st7{fill:url(#SVGID_00000027576449169082169190000004031810168812114615_);}
	.st8{fill:url(#SVGID_00000039130389582188401440000002123549904140158631_);}
	.st9{fill:url(#SVGID_00000106835229460367896330000014202991084825091248_);}
	.st10{fill:url(#SVGID_00000000937509306561944680000014756352401232148631_);}
	.st11{fill:url(#SVGID_00000072258822482979649560000001960381375139933358_);}
	.st12{fill:url(#SVGID_00000007387232310498833910000007765606667278522757_);}
</style>
<g id="Layer_1_00000124120941939727299460000008087256998750134145_">
	<g>
		<g>
			<path class="st0" d="M580.4,190.3c-1.8-1.2-3.8-1.7-6.1-1.7c-2.2,0-4.3,0.5-6.2,1.5c-1.4,0.7-2.6,1.7-3.8,3v-14.8h-5.2v40.9h5.2
				V208c0-3.7,0.2-6.2,0.5-7.5c0.5-2,1.6-3.7,3.3-5c1.6-1.4,3.5-2,5.5-2c1.8,0,3.2,0.4,4.3,1.3c1.1,0.8,1.8,2.1,2.2,3.8
				c0.2,1,0.4,3.2,0.4,6.4v14.3h5.2v-15.4c0-4-0.4-6.9-1.3-8.9C583.5,193,582.1,191.4,580.4,190.3z"/>
			<path class="st0" d="M620.7,204.5c0-4-1.2-7.5-3.3-10.2c-3.1-3.8-7.2-5.8-12.3-5.8c-5,0-9,1.9-12,5.7c-2.3,2.9-3.5,6.3-3.5,10.1
				c0,4,1.4,7.6,4.2,10.8c2.8,3.2,6.7,4.8,11.6,4.8c2.2,0,4.2-0.3,6-1s3.4-1.7,4.8-2.9c1.4-1.3,2.6-3,3.7-5l0.3-0.7l-4.4-2.3
				l-0.4,0.6c-1.1,1.8-2.1,3.1-3,3.9c-0.9,0.8-2,1.4-3.3,1.9s-2.6,0.7-4,0.7c-2.9,0-5.2-1-7.1-2.9c-1.8-1.8-2.7-4.1-3-6.8h25.9
				L620.7,204.5z M613.2,197.2c0.7,0.9,1.3,2,1.7,3.4h-19.4c0.7-2,1.6-3.5,2.8-4.6c1.9-1.7,4.1-2.5,6.8-2.5c1.6,0,3.1,0.3,4.6,1
				C611.1,195.2,612.3,196.1,613.2,197.2z"/>
			<path class="st0" d="M650.1,193.1c-1.2-1.3-2.5-2.3-3.9-3c-2-1-4.3-1.6-6.8-1.6c-4.3,0-8,1.5-11,4.6c-3,3-4.6,6.8-4.6,11
				c0,4.4,1.5,8.1,4.5,11.2c3,3.1,6.7,4.6,11,4.6c2.4,0,4.6-0.5,6.7-1.5c1.5-0.7,2.9-1.7,4.1-3v3.7h5.2v-29.9h-5.2L650.1,193.1
				L650.1,193.1z M647.2,196.7c2.1,2.1,3.1,4.6,3.1,7.7c0,2-0.5,3.8-1.4,5.4c-0.9,1.6-2.2,2.9-3.9,3.8c-3.4,1.9-7.4,1.9-10.7,0
				c-1.6-0.9-2.9-2.3-3.9-4s-1.5-3.5-1.5-5.4s0.5-3.7,1.4-5.4c1-1.7,2.3-3,3.9-3.9s3.4-1.4,5.3-1.4
				C642.7,193.6,645.2,194.6,647.2,196.7z"/>
			<rect x="661.5" y="178.3" class="st0" width="5.2" height="40.9"/>
			<polygon class="st0" points="682.4,178.7 677.2,178.7 677.2,189.3 672.1,189.3 672.1,193.9 677.2,193.9 677.2,219.2 682.4,219.2 
				682.4,193.9 688.3,193.9 688.3,189.3 682.4,189.3 			"/>
			<path class="st0" d="M714.8,190.3c-1.8-1.2-3.8-1.7-6.1-1.7c-2.2,0-4.3,0.5-6.2,1.5c-1.4,0.7-2.6,1.7-3.8,3v-14.8h-5.2v40.9h5.2
				V208c0-3.7,0.2-6.2,0.5-7.5c0.5-2,1.6-3.7,3.3-5c1.6-1.4,3.5-2,5.5-2c1.8,0,3.2,0.4,4.3,1.3c1.1,0.8,1.8,2.1,2.2,3.8
				c0.2,1,0.4,3.2,0.4,6.4v14.3h5.2v-15.4c0-4-0.4-6.9-1.3-8.9C717.9,193,716.6,191.4,714.8,190.3z"/>
			<rect x="743" y="189.3" class="st0" width="5.2" height="29.9"/>
			<path class="st0" d="M745.6,177.6c-1,0-1.9,0.4-2.7,1.1c-0.7,0.7-1.1,1.6-1.1,2.7c0,1,0.4,1.9,1.1,2.7c0.7,0.7,1.6,1.1,2.7,1.1
				c1,0,2-0.4,2.7-1.1c0.7-0.7,1.1-1.6,1.1-2.7c0-1-0.4-1.9-1.1-2.7C747.6,177.9,746.7,177.6,745.6,177.6z"/>
			<path class="st0" d="M775.8,190.3c-1.8-1.2-3.8-1.7-6.1-1.7c-2.2,0-4.3,0.5-6.2,1.5c-1.4,0.7-2.6,1.7-3.8,3v-3.8h-5.2v29.9h5.2
				V208c0-3.7,0.2-6.2,0.5-7.5c0.5-2,1.6-3.7,3.3-5c1.6-1.4,3.5-2,5.5-2c1.8,0,3.2,0.4,4.3,1.3c1.1,0.8,1.8,2.1,2.2,3.8
				c0.3,1,0.4,3.2,0.4,6.4v14.3h5.2v-15.4c0-4-0.4-6.9-1.3-8.8C778.9,193,777.6,191.4,775.8,190.3z"/>
			<path class="st0" d="M794.5,193.5c1.7,0,3.5,0.9,5.3,2.6l0.5,0.5l3.4-3.5l-0.6-0.5c-2.8-2.7-5.7-4-8.5-4c-2.5,0-4.5,0.8-6.2,2.4
				c-1.6,1.6-2.5,3.6-2.5,5.9c0,1.8,0.5,3.4,1.5,4.9c1,1.4,2.8,2.8,5.6,4.1c2.9,1.5,4,2.4,4.4,2.8c0.6,0.7,0.9,1.4,0.9,2.3
				c0,1.1-0.4,2-1.3,2.8s-2,1.2-3.3,1.2c-1.9,0-3.7-1-5.5-2.9l-0.6-0.6l-3.3,3.7l0.4,0.5c1.1,1.3,2.4,2.4,4,3.2s3.3,1.1,5.1,1.1
				c2.7,0,5-0.9,6.8-2.6c1.8-1.8,2.7-3.9,2.7-6.5c0-1.8-0.5-3.5-1.6-4.9s-3-2.8-5.9-4.3c-2.7-1.4-3.8-2.3-4.2-2.8
				c-0.6-0.7-0.9-1.4-0.9-2.2s0.3-1.5,1-2.2C792.6,193.8,793.5,193.5,794.5,193.5z"/>
			<path class="st0" d="M829.4,203.3c0,4.3-0.3,6-0.5,6.7c-0.5,1.5-1.4,2.6-2.7,3.5c-1.3,0.9-2.9,1.3-4.8,1.3s-3.6-0.5-4.9-1.4
				c-1.4-0.9-2.2-2.1-2.7-3.7c-0.3-1.1-0.5-3.3-0.5-6.5v-14h-5.2v14.4c0,4.2,0.5,7.3,1.5,9.4c1,2.1,2.5,3.8,4.5,5s4.5,1.8,7.4,1.8
				s5.4-0.6,7.4-1.8s3.5-2.9,4.5-5s1.5-5.1,1.5-9.2v-14.7h-5.3v14.2H829.4z"/>
			<path class="st0" d="M855.7,189.6c-2.9-1.6-5.5-1.3-8,0.3c-0.8,0.5-1.6,1.2-2.4,2.1v-2.7H840v29.9h5.3v-10.4
				c0-4.8,0.2-8.1,0.7-9.6c0.6-2,1.4-3.4,2.4-4.3c1-0.9,2-1.3,3.1-1.3c0.4,0,1,0.1,1.7,0.4l0.6,0.3l2.7-4.3L855.7,189.6z"/>
			<path class="st0" d="M881.6,193.1c-1.2-1.3-2.5-2.3-3.9-3c-2-1-4.3-1.6-6.8-1.6c-4.3,0-8,1.5-11,4.6c-3,3-4.6,6.8-4.6,11
				c0,4.4,1.5,8.1,4.5,11.2c3,3.1,6.7,4.6,11,4.6c2.4,0,4.6-0.5,6.7-1.5c1.5-0.7,2.9-1.7,4.1-3v3.7h5.2v-29.9h-5.2L881.6,193.1
				L881.6,193.1z M878.8,196.7c2.1,2.1,3.1,4.6,3.1,7.7c0,2-0.5,3.8-1.4,5.4c-0.9,1.6-2.2,2.9-3.9,3.8c-3.4,1.9-7.4,1.9-10.7,0
				c-1.6-0.9-2.9-2.3-3.9-4s-1.5-3.5-1.5-5.4s0.5-3.7,1.4-5.4c1-1.7,2.3-3,3.9-3.9s3.4-1.4,5.3-1.4
				C874.3,193.6,876.7,194.6,878.8,196.7z"/>
			<path class="st0" d="M915,190.3c-1.8-1.2-3.8-1.7-6.1-1.7c-2.2,0-4.3,0.5-6.2,1.5c-1.4,0.7-2.6,1.7-3.8,3v-3.8h-5.2v29.9h5.2V208
				c0-3.7,0.2-6.2,0.5-7.5c0.5-2,1.6-3.7,3.3-5c1.6-1.4,3.5-2,5.5-2c1.8,0,3.2,0.4,4.3,1.3c1.1,0.8,1.8,2.1,2.2,3.8
				c0.3,1,0.4,3.2,0.4,6.4v14.3h5.2v-15.4c0-4-0.4-6.9-1.3-8.8C918.1,193,916.8,191.4,915,190.3z"/>
			<path class="st0" d="M950.7,210.3c-2.5,3.2-5.7,4.7-9.8,4.7c-2.2,0-4.1-0.5-5.9-1.4c-1.7-0.9-3.1-2.3-4.1-4s-1.5-3.5-1.5-5.5
				c0-3,1.1-5.5,3.2-7.6c2.2-2.1,4.9-3.1,8.2-3.1c4.2,0,7.4,1.5,9.8,4.7l0.4,0.5l4.2-2.6l-0.4-0.6c-0.9-1.5-2-2.8-3.3-3.7
				c-1.3-1-2.9-1.8-4.7-2.4c-1.8-0.6-3.8-0.9-5.7-0.9c-3.1,0-6,0.7-8.6,2.1c-2.6,1.4-4.6,3.3-6.1,5.8s-2.2,5.2-2.2,8.1
				c0,4.3,1.6,8,4.7,11s7.1,4.5,11.8,4.5c3.1,0,5.8-0.6,8.2-1.8c2.4-1.2,4.4-2.9,5.8-5l0.4-0.6l-4.1-2.7L950.7,210.3z"/>
			<path class="st0" d="M983.9,208.6c-1.1,1.8-2.1,3.1-3,3.9c-0.9,0.8-2,1.4-3.3,1.9s-2.6,0.7-4,0.7c-2.9,0-5.2-1-7.1-2.9
				c-1.8-1.8-2.7-4.1-3-6.8h25.9v-0.8c0-4-1.2-7.5-3.3-10.2c-3.1-3.8-7.2-5.8-12.3-5.8c-5,0-9,1.9-12,5.7c-2.3,2.9-3.5,6.3-3.5,10.1
				c0,4,1.4,7.6,4.2,10.8c2.8,3.2,6.7,4.8,11.6,4.8c2.2,0,4.2-0.3,6-1s3.4-1.7,4.8-2.9c1.4-1.3,2.6-3,3.7-5l0.3-0.7l-4.4-2.3
				L983.9,208.6z M981.8,197.2c0.7,0.9,1.3,2,1.7,3.4h-19.4c0.7-2,1.6-3.5,2.8-4.6c1.9-1.7,4.1-2.5,6.8-2.5c1.6,0,3.1,0.3,4.6,1
				C979.7,195.2,980.9,196.1,981.8,197.2z"/>
		</g>
		<g>
			<g>
				<g>
					
						<linearGradient id="SVGID_00000168079705307752314000000007585330643296744587_" gradientUnits="userSpaceOnUse" x1="180.5731" y1="162.9639" x2="1042.897" y2="149.5685" gradientTransform="matrix(1 0 0 -1 0 240.2205)">
						<stop  offset="0" style="stop-color:#651F76"/>
						<stop  offset="1" style="stop-color:#331C54"/>
					</linearGradient>
					<polygon id="SVGID_1_" style="fill:url(#SVGID_00000168079705307752314000000007585330643296744587_);" points="558.2,10.5 
						559,160.4 593.7,160.4 595.9,6.5 					"/>
				</g>
			</g>
			<g>
				<g>
					
						<linearGradient id="SVGID_00000161590466829554817530000001417641348094685115_" gradientUnits="userSpaceOnUse" x1="180.4127" y1="152.6356" x2="1042.7366" y2="139.2402" gradientTransform="matrix(1 0 0 -1 0 240.2205)">
						<stop  offset="0" style="stop-color:#651F76"/>
						<stop  offset="1" style="stop-color:#331C54"/>
					</linearGradient>
					
						<path id="SVGID_00000102542097989155718670000017327528632153382805_" style="fill:url(#SVGID_00000161590466829554817530000001417641348094685115_);" d="
						M224,52.2c0,0,18.7,0,18.7,10.9c0,9.6-18.5,10.7-18.5,10.7L224,52.2z M182.7,160.7h41.2l0.5-53.3c27.1,1.6,56.8-18.4,56.8-46.8
						c0-21-16.8-42.9-40.4-45.1H182L182.7,160.7z"/>
				</g>
			</g>
			<g>
				<g>
					
						<linearGradient id="SVGID_00000085932875008987898440000011900315007204552073_" gradientUnits="userSpaceOnUse" x1="179.7595" y1="110.5871" x2="1042.0834" y2="97.1919" gradientTransform="matrix(1 0 0 -1 0 240.2205)">
						<stop  offset="0" style="stop-color:#651F76"/>
						<stop  offset="1" style="stop-color:#331C54"/>
					</linearGradient>
					
						<path id="SVGID_00000182524128343584693480000010671075264246683325_" style="fill:url(#SVGID_00000085932875008987898440000011900315007204552073_);" d="
						M510,89.2c0,0,9.2,0.5,10,10.4s-9.9,10.4-9.9,10.4L510,89.2z M476.6,49.6l0.4,170.2l33.2-0.1l-0.3-69.6c0,0.8,42.9-4.3,42.9-49
						c0-22.4-13.7-51.8-41.2-51.8L476.6,49.6z"/>
				</g>
			</g>
			<g>
				<g>
					
						<linearGradient id="SVGID_00000065046020559732552880000012236880376060979121_" gradientUnits="userSpaceOnUse" x1="180.2683" y1="143.3383" x2="1042.5923" y2="129.9429" gradientTransform="matrix(1 0 0 -1 0 240.2205)">
						<stop  offset="0" style="stop-color:#651F76"/>
						<stop  offset="1" style="stop-color:#331C54"/>
					</linearGradient>
					
						<path id="SVGID_00000048484576480476259730000014914766779677188992_" style="fill:url(#SVGID_00000065046020559732552880000012236880376060979121_);" d="
						M638.4,85.3c6.2-2.4,11.4,5.6,11.4,5.6l-16.1,8C633.8,98.9,630.9,88.2,638.4,85.3 M600.3,113.7c6.1,35.2,51.2,57.2,83.6,42.1
						c0,0-1.4-10.1-3.9-29.9c-22,5.2-38.7-2.9-38.7-2.9l40-21.1c5.9-25.1-12.9-51.7-38.8-54c-1-0.1-1.9-0.1-2.9-0.1
						C611.2,47.8,595.3,84.9,600.3,113.7"/>
				</g>
			</g>
			<g>
				<g>
					
						<linearGradient id="SVGID_00000072258681896831605250000009078607424714702778_" gradientUnits="userSpaceOnUse" x1="180.1908" y1="138.3469" x2="1042.5145" y2="124.9515" gradientTransform="matrix(1 0 0 -1 0 240.2205)">
						<stop  offset="0" style="stop-color:#651F76"/>
						<stop  offset="1" style="stop-color:#331C54"/>
					</linearGradient>
					
						<path id="SVGID_00000054245750014797588060000015127378224434437281_" style="fill:url(#SVGID_00000072258681896831605250000009078607424714702778_);" d="
						M317,85.3c6.2-2.4,11.4,5.6,11.4,5.6l-16.1,8C312.4,98.9,309.5,88.2,317,85.3 M278.9,113.7c6.1,35.2,51.2,57.2,83.6,42.1
						c0,0-1.4-10.1-3.9-29.9c-22,5.2-38.7-2.9-38.7-2.9l40-21.1c5.9-25.1-12.9-51.7-38.8-54c-1-0.1-1.9-0.1-2.9-0.1
						C289.8,47.8,273.9,84.9,278.9,113.7"/>
				</g>
			</g>
			<g>
				<g>
					
						<linearGradient id="SVGID_00000032619413571889478360000012414925208572460965_" gradientUnits="userSpaceOnUse" x1="180.2117" y1="139.6941" x2="1042.5355" y2="126.2989" gradientTransform="matrix(1 0 0 -1 0 240.2205)">
						<stop  offset="0" style="stop-color:#651F76"/>
						<stop  offset="1" style="stop-color:#331C54"/>
					</linearGradient>
					
						<path id="SVGID_00000127759584908058023640000007087818728187499428_" style="fill:url(#SVGID_00000032619413571889478360000012414925208572460965_);" d="
						M412.5,104.7c0.5-8.3,9.9-14.2,13.3-3.9C430.2,114.1,411.8,116.3,412.5,104.7 M365.5,104.2c0,31,23.5,56.2,52.6,56.2
						c29,0,52.6-25.1,52.6-56.2c0-31-23.5-56.1-52.6-56.1S365.5,73.2,365.5,104.2"/>
				</g>
			</g>
			<g>
				<g>
					
						<linearGradient id="SVGID_00000096739093467762237170000018358455218158863766_" gradientUnits="userSpaceOnUse" x1="180.3076" y1="145.8639" x2="1042.6313" y2="132.4685" gradientTransform="matrix(1 0 0 -1 0 240.2205)">
						<stop  offset="0" style="stop-color:#651F76"/>
						<stop  offset="1" style="stop-color:#331C54"/>
					</linearGradient>
					
						<path id="SVGID_00000042730553804371715720000002807990110298779285_" style="fill:url(#SVGID_00000096739093467762237170000018358455218158863766_);" d="
						M868.4,49.2h-23.8l0.3,111.4l33.1,0.1l-6.9-73.9l29.6,0.4c1.2-12.6-0.8-38-31.6-38C868.7,49.2,868.6,49.2,868.4,49.2"/>
				</g>
			</g>
			<g>
				<g>
					
						<linearGradient id="SVGID_00000051385503674766914900000007099686327450312885_" gradientUnits="userSpaceOnUse" x1="180.3415" y1="148.0486" x2="1042.6654" y2="134.6533" gradientTransform="matrix(1 0 0 -1 0 240.2205)">
						<stop  offset="0" style="stop-color:#651F76"/>
						<stop  offset="1" style="stop-color:#331C54"/>
					</linearGradient>
					
						<path id="SVGID_00000127010569439962045900000016285530974299314347_" style="fill:url(#SVGID_00000051385503674766914900000007099686327450312885_);" d="
						M941.7,85.3c6.2-2.4,11.4,5.6,11.4,5.6l-16.1,8C937,98.9,934.1,88.2,941.7,85.3 M903.6,113.7c6.1,35.2,51.2,57.2,83.6,42.1
						c0,0-1.4-10.1-3.9-29.9c-22,5.2-38.7-2.9-38.7-2.9l40-21.1c5.9-25.1-12.9-51.7-38.8-54c-1-0.1-1.9-0.1-2.9-0.1
						C914.5,47.8,898.6,84.8,903.6,113.7"/>
				</g>
			</g>
			<g>
				<g>
					
						<linearGradient id="SVGID_00000044142397341425482950000011234232879621503920_" gradientUnits="userSpaceOnUse" x1="180.2931" y1="144.9324" x2="1042.6168" y2="131.5371" gradientTransform="matrix(1 0 0 -1 0 240.2205)">
						<stop  offset="0" style="stop-color:#651F76"/>
						<stop  offset="1" style="stop-color:#331C54"/>
					</linearGradient>
					
						<path id="SVGID_00000138566984507922452030000007694845096426400699_" style="fill:url(#SVGID_00000044142397341425482950000011234232879621503920_);" d="
						M796.4,117.9c0.7-6.8,7.2-8.6,7.2-8.6l-0.4,17C803.2,126.4,795.6,126.1,796.4,117.9 M765.7,60.7l19.7,21.5
						c-13.5,7-20.3,17.8-21.7,33.7c-1.8,20.9,8.7,44.5,28.5,44.5h44.6l1-69.8c-0.7-15.2-6.4-25.5-18.2-33.7
						c-7.5-5.3-15.8-7.6-23.9-7.6C784.5,49.4,773.7,53.7,765.7,60.7"/>
				</g>
			</g>
			<g>
				<g>
					<g>
						<polygon id="SVGID_00000099638650898092044270000015880378747961553582_" class="st0" points="973.6,48.4 973.6,49.1 
							976.3,49.1 976.3,56.3 977.1,56.3 977.1,49.1 979.8,49.1 979.8,48.4 						"/>
					</g>
				</g>
				<g>
					<g>
						<polygon id="SVGID_00000155866156705465584150000017557083096521922955_" class="st0" points="987.6,48.4 984.9,55.3 
							982.2,48.4 981.1,48.4 981.1,56.3 981.8,56.3 981.8,49.5 981.8,49.5 984.5,56.3 985.2,56.3 987.9,49.5 987.9,49.5 987.9,56.3 
							988.7,56.3 988.7,48.4 						"/>
					</g>
				</g>
			</g>
			<g>
				
					<linearGradient id="SVGID_00000162351500883792476870000016276645683557741967_" gradientUnits="userSpaceOnUse" x1="180.2758" y1="143.8217" x2="1042.5996" y2="130.4264" gradientTransform="matrix(1 0 0 -1 0 240.2205)">
					<stop  offset="0" style="stop-color:#651F76"/>
					<stop  offset="1" style="stop-color:#331C54"/>
				</linearGradient>
				<path style="fill:url(#SVGID_00000162351500883792476870000016276645683557741967_);" d="M755.3,86.6
					c-10.6-0.5-20.8-0.1-25.5,12.4c-5.2,13.8,2.5,29.9,28.5,24.7c0.4,12,2.8,33.8,2.8,33.8s-44.2,13.9-66-17.5
					c-11.8-17-10.2-46.8,0.3-64c19.9-32.3,58.5-25.7,58.5-25.7L755.3,86.6z"/>
			</g>
		</g>
	</g>
	<g>
		
			<linearGradient id="SVGID_00000148652952330773300510000002298897093143238045_" gradientUnits="userSpaceOnUse" x1="-0.9667" y1="149.1424" x2="193.7918" y2="149.1424" gradientTransform="matrix(1 0 0 -1 0 240.2205)">
			<stop  offset="0" style="stop-color:#F4AF00"/>
			<stop  offset="1" style="stop-color:#E17000"/>
		</linearGradient>
		<path style="fill:url(#SVGID_00000148652952330773300510000002298897093143238045_);" d="M29.5,40.3C2.9,98,33.4,170.9,97.7,159.9
			c35.5-6.7,88.8-84.3,53.3-115.4c-31.1-28.9-26.5,44.4-55.5,44.4c-34,0-37.6-65.9-50.7-67.7h-1.1c-3.7,0.5-8.1,5.9-14.1,18.9"/>
		<g>
			<g>
				
					<linearGradient id="SVGID_00000026148250288140949020000010439655697993571734_" gradientUnits="userSpaceOnUse" x1="15.8637" y1="202.1732" x2="219.7271" y2="202.1732" gradientTransform="matrix(1 0 0 -1 0 240.2205)">
					<stop  offset="0" style="stop-color:#F4AF00"/>
					<stop  offset="1" style="stop-color:#E17000"/>
				</linearGradient>
				
					<path id="SVGID_00000059996858174214641380000004743093385372148364_" style="fill:url(#SVGID_00000026148250288140949020000010439655697993571734_);" d="
					M103.4,8.4h-0.5c-27.6,3.1-46,49-15.3,58.2c20.8,6.4,32.9-11.1,35.1-28.5c1.9-14.9-3.4-29.9-16.5-29.9
					C105.3,8.2,104.4,8.3,103.4,8.4"/>
			</g>
		</g>
	</g>
</g>
<g id="Layer_2_00000142871121303756528980000007753647130743117742_">
</g>
<g id="Layer_3">
</g>
</svg>
