<svg data-name="ec2124a1-cfd7-475d-81b7-d6cf0f79a981" xmlns="http://www.w3.org/2000/svg" width="174.43" height="46.62" viewBox="0 0 174.43 46.62"><title>Artboard 1</title><path d="M108 21.5h-.54a5.18 5.18 0 0 0-1.24-.2c-.48 0-1-.06-1.44-.07a12.56 12.56 0 0 0-2.29.18 13 13 0 0 0-2.13.61v13.53h-6.1V15.41h6.1v3a12.42 12.42 0 0 1 3.48-2.41 7.14 7.14 0 0 1 2.73-.61h.72a5.49 5.49 0 0 1 .7.05v6.06m14 8.88a5.4 5.4 0 0 0 .88-1.86 11.63 11.63 0 0 0 .3-3 12.58 12.58 0 0 0-.3-3 5.26 5.26 0 0 0-.87-1.92 2.91 2.91 0 0 0-1.3-1 4.19 4.19 0 0 0-1.64-.3 4.36 4.36 0 0 0-1.56.25 3.07 3.07 0 0 0-1.31 1 5.39 5.39 0 0 0-.89 1.91 11.67 11.67 0 0 0-.32 3.06 12.5 12.5 0 0 0 .28 2.86 5.28 5.28 0 0 0 .85 1.94 3.1 3.1 0 0 0 1.29 1 4.55 4.55 0 0 0 3.29 0 3.07 3.07 0 0 0 1.28-1m7.45-4.89a10.88 10.88 0 0 1-2.72 7.82q-2.72 2.86-7.64 2.86a10.23 10.23 0 0 1-7.64-2.86 10.9 10.9 0 0 1-2.72-7.82 10.87 10.87 0 0 1 2.74-7.85 10 10 0 0 1 7.62-2.85 10.19 10.19 0 0 1 7.66 2.87 11 11 0 0 1 2.7 7.83m16.91-.18a8.32 8.32 0 0 0-.86-4.16 3.27 3.27 0 0 0-3.06-1.46 6.23 6.23 0 0 0-1.77.28 7.35 7.35 0 0 0-1.73.8v10.21a5.3 5.3 0 0 0 1.24.34 8.4 8.4 0 0 0 1.42.09 4.23 4.23 0 0 0 3.58-1.51 7.26 7.26 0 0 0 1.18-4.53m6.27-.14a11.78 11.78 0 0 1-2.47 7.77A7.66 7.66 0 0 1 144 36a9.76 9.76 0 0 1-2.79-.36 8.67 8.67 0 0 1-2.27-1l-.26 1h-5.84v-28h6.1v9.81a14.83 14.83 0 0 1 2.85-1.92 7.27 7.27 0 0 1 3.37-.73 6.33 6.33 0 0 1 5.53 2.76 13.1 13.1 0 0 1 1.94 7.62m15.73-2.3a4.68 4.68 0 0 0-.94-3 3.47 3.47 0 0 0-2.76-1 3.83 3.83 0 0 0-4.13 3.51 5 5 0 0 0 0 .55zm6.1 3.8h-14a4.83 4.83 0 0 0 1.7 3.64 7.17 7.17 0 0 0 4.6 1.26 9.73 9.73 0 0 0 3.73-.74 11.16 11.16 0 0 0 2.86-1.6h.67v5.18a21.12 21.12 0 0 1-3.87 1.27 18.59 18.59 0 0 1-4 .4q-5.7 0-8.73-2.72t-3-7.77a10.74 10.74 0 0 1 2.87-7.89 10.54 10.54 0 0 1 7.87-2.91c3.08 0 5.39.82 7 2.48s2.32 4 2.32 7.14zM54.88 35.55H36.81V8.82h6.5v21.56h11.57zm13.57-5.27V26.1c-.82.07-1.7.17-2.65.3a12.28 12.28 0 0 0-2.17.44 3 3 0 0 0-1.38.88 2.4 2.4 0 0 0-.48 1.53 4.78 4.78 0 0 0 .1 1 1.66 1.66 0 0 0 .5.75 2.62 2.62 0 0 0 .93.53 6.28 6.28 0 0 0 1.7.17 4.64 4.64 0 0 0 1.83-.4 5.76 5.76 0 0 0 1.62-1.02zm0 3.14c-.33.26-.73.58-1.22.95A7.62 7.62 0 0 1 64 35.88a10.6 10.6 0 0 1-2.1.2 6.2 6.2 0 0 1-4.5-1.78 6.07 6.07 0 0 1-1.81-4.54 5.84 5.84 0 0 1 3.55-5.82 14 14 0 0 1 4.17-1.14c1.66-.23 3.39-.39 5.17-.5v-.11a2.42 2.42 0 0 0-1.28-2.37 8.55 8.55 0 0 0-3.77-.66 10.55 10.55 0 0 0-3.2.56c-1.14.37-1.95.65-2.45.86h-.55v-4.8q1-.27 3.12-.63a27.44 27.44 0 0 1 4.34-.37q5.18 0 7.47 1.7a6.24 6.24 0 0 1 2.3 5.34v13.73h-6zm23 2a18.07 18.07 0 0 1-2.07.42 20 20 0 0 1-2.68.16 7.78 7.78 0 0 1-5.27-1.53q-1.73-1.51-1.73-5.22v-9.47h-2.55v-4.37h2.52V9.66h6.1v5.75h5.66v4.37h-5.66v9a4.31 4.31 0 0 0 .23 1.43 2 2 0 0 0 .83 1 3.4 3.4 0 0 0 1.74.37 5.2 5.2 0 0 0 1.24-.22 5 5 0 0 0 1.06-.4h.5v4.42" fill="#1d225a"/><path d="M12.59 26.71a12.59 12.59 0 1 1 12.6-12.59 12.59 12.59 0 0 1-12.6 12.59z" style="isolation:isolate" fill="#95b3de"/><path d="M107.06 42.61h-2.07v-1.98h-1.39v5.41h1.39v-2.38h2.07v2.38h1.38v-5.41h-1.38v1.98zm2.36 3.43h3.92v-1.05h-2.52v-1.33h2.34v-1.05h-2.34v-.93h2.52v-1.05h-3.92v5.41zm6.09-5.4l-2 5.4h1.42l.37-1.11h2l.38 1.11h1.44l-2-5.4zm.13 3.31l.65-1.9.65 1.9zm5.24-3.32h-1.39v5.41h3.9v-1.05h-2.51v-4.36zm2.41 1.05h1.69v4.36h1.39v-4.36h1.69v-1.05h-4.77v1.05zm8.67.93h-2.07v-1.98h-1.39v5.41h1.39v-2.38h2.07v2.38h1.39v-5.41h-1.39v1.98zm8.55.82a1.9 1.9 0 0 0-.92-.55 3.83 3.83 0 0 0-.58-.16l-.57-.13a1.88 1.88 0 0 1-.62-.2.42.42 0 0 1-.16-.33.39.39 0 0 1 .1-.25.81.81 0 0 1 .24-.17l.33-.09h.35a2.84 2.84 0 0 1 1 .17 2.72 2.72 0 0 1 .8.44h.15V40.9a4 4 0 0 0-.9-.26 5.33 5.33 0 0 0-1-.1 2.89 2.89 0 0 0-1.74.48 1.42 1.42 0 0 0-.67 1.23 1.45 1.45 0 0 0 .3.94 2.06 2.06 0 0 0 1 .6 4.61 4.61 0 0 0 .64.16l.64.14a1 1 0 0 1 .44.2.44.44 0 0 1 0 .6.87.87 0 0 1-.26.16 1.3 1.3 0 0 1-.34.08h-.33a3.37 3.37 0 0 1-2-.72h-.15v1.3a7.89 7.89 0 0 0 .94.3 5.64 5.64 0 0 0 1.16.12 3 3 0 0 0 1.83-.5 1.54 1.54 0 0 0 .68-1.3 1.47 1.47 0 0 0-.36-.9zm.86 2.61h3.91v-1.05h-2.52v-1.33h2.34v-1.05h-2.34v-.93h2.52v-1.05h-3.91v5.41zm8.88-2.94a1.61 1.61 0 0 0 .27-1 1.39 1.39 0 0 0-.17-.72 1.41 1.41 0 0 0-.49-.48 2.14 2.14 0 0 0-.64-.23 3.84 3.84 0 0 0-.83 0h-2.34V46h1.4v-2h.64l1.47 2h1.7l-1.81-2.32a2.2 2.2 0 0 0 .8-.58zm-1.25-.45a1 1 0 0 1-.2.25 1.09 1.09 0 0 1-.38.14h-1v-1.41h.94a1.14 1.14 0 0 1 .32.07.55.55 0 0 1 .29.23.85.85 0 0 1 .08.35.79.79 0 0 1-.05.37zm4.63 1.8l-1.31-3.82h-1.44l1.96 5.4h1.56l1.97-5.4h-1.43l-1.31 3.82zm2.88-2.85h.88v3.47h-.88v.97h3.16v-.97h-.89V41.6h.89v-.97h-3.16v.97zm7.49-.95a4.24 4.24 0 0 0-1.12-.13 3 3 0 0 0-1.14.2 2.34 2.34 0 0 0-1.43 1.45 3.59 3.59 0 0 0-.19 1.17 3.36 3.36 0 0 0 .2 1.22 2.43 2.43 0 0 0 .57.88 2.68 2.68 0 0 0 .87.53 3.22 3.22 0 0 0 1.11.17 3.42 3.42 0 0 0 .64 0A3.94 3.94 0 0 0 164 46l.39-.14.4-.17V44.4h-.15l-.25.2-.33.22a1.73 1.73 0 0 1-1.5.19 1.21 1.21 0 0 1-.49-.28 1.42 1.42 0 0 1-.36-.54 2.18 2.18 0 0 1-.14-.84 2.36 2.36 0 0 1 .13-.83 1.36 1.36 0 0 1 .3-.52 1.48 1.48 0 0 1 1-.39 1.22 1.22 0 0 1 .5.08 2.35 2.35 0 0 1 .43.19 1.92 1.92 0 0 1 .35.23 2.43 2.43 0 0 1 .25.2h.17V41c-.11 0-.22-.11-.36-.16zm1.41 5.39h3.91v-1.05h-2.52v-1.33h2.34v-1.05h-2.34v-.93h2.52v-1.05h-3.91v5.41zm8.99-1.7a1.31 1.31 0 0 0-.29-.91 2 2 0 0 0-.91-.56 5.66 5.66 0 0 0-.59-.15l-.57-.13a1.9 1.9 0 0 1-.61-.2.36.36 0 0 1-.16-.33.3.3 0 0 1 .1-.25.59.59 0 0 1 .24-.17l.33-.09h.34a3.09 3.09 0 0 1 1 .17 2.72 2.72 0 0 1 .8.44h.15V40.9a4 4 0 0 0-.9-.26 5.36 5.36 0 0 0-1.06-.1 2.88 2.88 0 0 0-1.73.48 1.43 1.43 0 0 0-.68 1.23 1.51 1.51 0 0 0 .3.94 2.06 2.06 0 0 0 1 .6 4.85 4.85 0 0 0 .63.16 2.6 2.6 0 0 1 .64.14 1.08 1.08 0 0 1 .45.2.44.44 0 0 1 0 .6.87.87 0 0 1-.26.16 1.3 1.3 0 0 1-.34.08 2.82 2.82 0 0 1-1.35-.17 3 3 0 0 1-1-.53h-.15v1.3a5 5 0 0 0 .93.3 5.74 5.74 0 0 0 1.17.12 3 3 0 0 0 1.82-.5 1.54 1.54 0 0 0 .68-1.3z" fill="#1d225a"/><path d="M35.86 21l-6.31-7a32.19 32.19 0 0 1-.2 5.1 9.75 9.75 0 0 1-3 5.6l9.51 10.57zm18.63 20.69l-4.67-5.19H37l4.66 5.19s4.26 4.93 8.17 4.93h12.82c-3.91 0-8.16-4.93-8.16-4.93" style="isolation:isolate" fill="#95b3de"/><path d="M66.76 20.67a7.64 7.64 0 0 0-3.34-.55 8.17 8.17 0 0 0-2.08.3l1.37 1.51.47-.07c1.41-.19 2.82-.34 4.24-.45a1.18 1.18 0 0 0-.66-.74" style="isolation:isolate" fill="#1d225a" opacity=".7"/><path d="M57 14.86c.68-.19 1.77-.41 3.22-.65a27 27 0 0 1 4.49-.37 22.18 22.18 0 0 1 3.82.28l-8.72-9.7A13.67 13.67 0 0 0 51.44 0H38.62A13.72 13.72 0 0 1 47 4.42L56.47 15zm36.3 26.83l-4.4-4.89c-.65.06-1.38.11-2.23.11a8.68 8.68 0 0 1-5.9-1.77c-1.36-1.2-2-3.2-2-5.94v-3.72l-3.36-3.68v14.25l5.07 5.64s4.25 4.93 8.17 4.93h12.82c-3.91 0-8.17-4.93-8.17-4.93M57.65 23.71L44.26 8.83v14.25L50 29.43h4.68a7.27 7.27 0 0 1 1.07-3.8 7.05 7.05 0 0 1 1.93-1.92m16.14 17.98l-4.66-5.19h-1.67v-1.14a9.21 9.21 0 0 1-1.2.74 9 9 0 0 1-2.08.71 11.88 11.88 0 0 1-2.3.23 7.17 7.17 0 0 1-6.07-3.13v2L61 41.69s4.25 4.93 8.17 4.93H82c-3.91 0-8.17-4.93-8.17-4.93M35.86 7.87h7.54l-3.1-3.45A13.7 13.7 0 0 0 32 0H19.14a13.67 13.67 0 0 1 8.34 4.42l8.38 9.32z" style="isolation:isolate" fill="#95b3de"/></svg>