<svg xmlns="http://www.w3.org/2000/svg" width="126" height="24" viewBox="0 0 126 24">
    <title>Medibank</title>
    <g fill="none" fill-rule="evenodd">
        <path fill="#DD2C35" d="M34.804 19.01l1.634 2.514c-1.847 1.502-3.785 2.223-6.04 2.223-4.609 0-7.58-3.262-7.58-8.317 0-2.881.596-4.797 2.002-6.362C26.136 7.59 27.728 6.9 29.864 6.9c1.846 0 3.6.625 4.634 1.689 1.467 1.508 2.126 3.675 2.126 7.035v.974h-9.269v.124c0 2.476 1.215 3.89 3.384 3.89 1.444 0 2.786-.538 4.065-1.602zM27.42 13.52h4.856v-.19c0-1.191-.13-1.82-.505-2.412-.406-.628-1-.942-1.848-.942-1.593 0-2.503 1.253-2.503 3.485v.059zM110.824 23.274h4.199V.336h-4.199v22.938zm8.398-16.122h5.04l-4.969 6.893 6.157 9.228h-4.95l-5.384-9.094 4.106-7.027zM89.44 16.073h-.18c-2.917 0-3.924.532-3.924 2.442 0 1.253.785 2.1 1.858 2.1.776 0 1.563-.405 2.182-1.1l.064-3.442zm.432 6.012c-.244.34-.415.6-1.275 1.026-.435.218-1.342.573-2.373.573-3.568 0-5.37-1.7-5.37-4.903 0-3.762 2.604-5.529 7.714-5.529.314 0 .496 0 .941.041v-.655c0-1.797-.348-2.39-1.88-2.39-1.351 0-2.917.662-4.64 1.82l-1.78-3.015c1.024-.656 1.467-.873 2.59-1.314 1.57-.659 2.924-.942 4.387-.942 2.7 0 4.54 1.002 5.17 2.792.218.659.284 1.163.284 2.889l-.099 5.394.004 2.03c0 1.332.063 2.708.424 3.378h-3.69c-.227-.28-.407-1.195-.407-1.195zM16.936 23.273v-10.57c0-1.91-.22-2.29-1.318-2.29-.776 0-1.87.534-2.776 1.348v11.512h-3.97V12.852c0-2.003-.278-2.476-1.436-2.476-.785 0-1.843.417-2.75 1.225v11.672H.595v-11.17c0-2.318-.16-3.32-.594-4.1l3.777-1.035c.28.442.405.816.569 1.632 1.091-1.069 2.435-1.632 3.9-1.632 1.314 0 2.407.442 3.255 1.312.216.216.432.502.617.788 1.478-1.498 2.79-2.1 4.534-2.1 1.25 0 2.436.38 3.155 1.01.902.776 1.186 1.709 1.186 3.904v11.39h-4.057"></path>
        <path fill="#189BD7" d="M57.467 10.256c0-.625-.305-1.009-.674-1.009-.874 0-1.573 1.252-2.613 3.785l-1.31-.554c1.468-3.82 3.05-5.659 5.437-5.659 2.211 0 3.547 1.635 3.547 4.478 0 1.107-.228 2.32-.605 3.748l-.764 2.978c-.271.97-.336 1.667-.336 2.044 0 .764.336 1.18.872 1.18.94 0 1.777-1.353 2.68-4.02l1.242.623c-1.044 3.923-2.82 5.864-5.402 5.864-2.407 0-3.89-1.599-3.89-4.338 0-1.489.439-3.112.906-5.06l.605-2.462c.169-.695.305-1.221.305-1.598M58.921 0c1.506 0 2.64 1.17 2.64 2.673 0 1.474-1.166 2.678-2.64 2.678a2.676 2.676 0 0 1 0-5.35"></path>
        <path fill="#DD2C35" d="M95.3 8.003l3.778-1.035c.198.29.565 1.193.565 1.847.976-.689 1.16-.817 1.852-1.195.838-.438 1.938-.684 2.885-.684 1.784 0 3.35.937 3.854 2.316.216.595.306 1.29.306 2.29v11.73h-4.128V12.83c0-1.816-.318-2.35-1.41-2.35-.852 0-1.943.567-2.916 1.439v11.354h-4.2V11.64c0-2.497-.385-3.278-.586-3.637M48.594 23.273c-.182-.357-.288-.991-.288-.991-.91.744-2.34 1.402-3.559 1.402-4.064 0-6.642-3.17-6.642-8.154 0-5.022 2.792-8.477 6.86-8.477 1.16 0 2.066.285 2.844.91V.337h4.05v22.937h-3.265zm-.839-11.824c-.778-.69-1.534-1.037-2.286-1.037-1.884 0-2.697 1.572-2.697 5.15 0 3.449.722 4.574 2.913 4.574.784 0 1.662-.534 2.07-1.03v-7.657zM70.108.335v7.752c.817-.872 2.046-1.279 3.377-1.279 3.92 0 6.36 3.134 6.36 8.154 0 3.265-.999 5.808-2.976 7.373-1.09.877-2.191 1.26-3.509 1.252-1.511-.003-2.624-.427-3.534-1.435 0 0-.07.543-.272 1.12h-3.546l-.004-5.864V.335h4.104zm4.786 11.99c-.305-1.378-1.188-2.036-2.285-2.036-1.09 0-1.848.686-2.372 1.281v7.408c.554.505 1.22 1.035 2.347 1.035 1.033 0 1.697-.412 2.035-1.254.377-.883.459-1.731.459-3.705 0-1.44-.024-2.038-.184-2.728z"></path>
    </g>
</svg>