<svg width="304" height="60" viewBox="0 0 304 60" fill="none" xmlns="http://www.w3.org/2000/svg">
<g clip-path="url(#clip0_15605_2651)">
<path d="M22.8757 60H84.4356L35.1057 10.4756C28.532 3.90488 19.6174 0 10.3215 0H0L0.769056 2.01655L4.18646 10.9802L22.8757 60Z" fill="url(#paint0_linear_15605_2651)"/>
<path d="M4.18644 10.9803C10.9263 22.4852 28.6126 23.6996 30.537 41.5901C30.616 42.326 31.1804 42.9158 31.9125 43.0307C42.1047 44.6226 52.0321 48.8178 60.6575 55.73L60.6652 55.7362C60.7221 55.7818 60.7811 55.8034 60.8575 55.8034C60.9335 55.8034 61.0099 55.7757 61.0694 55.7187C61.1926 55.6018 61.1972 55.4074 61.0802 55.2843C55.1073 49.009 47.8087 43.9949 39.6164 40.6982L37.123 39.6951C35.8404 39.1791 34.9508 37.9073 34.9887 36.4446C35.1288 31.0991 47.7738 32.1864 49.0559 29.617L49.2766 29.1749C46.6728 26.9506 43.5792 25.2777 40.1715 24.3422C40.1413 24.471 40.0586 25.0946 40.7518 26.2229C41.506 27.4501 39.9268 29.4016 37.6283 27.2963L37.4349 27.1193C20.3489 11.4685 7.53818 19.5845 0.769043 2.0166L4.18644 10.9803Z" fill="white"/>
<path d="M45.2749 28.8844C45.2749 28.8844 42.4731 29.0239 40.7519 26.2227C41.2639 27.056 40.6995 28.2238 39.5652 28.2274V32.4918C41.4075 31.9569 43.509 31.6292 45.2749 31.2579V28.8844Z" fill="url(#paint1_linear_15605_2651)"/>
<path d="M34.0278 43.3987C43.4746 45.2162 52.6304 49.296 60.6575 55.7293C42.7619 40.4462 34.6081 43.2094 34.0278 43.3987Z" fill="url(#paint2_linear_15605_2651)"/>
<path d="M7.78495 11.7803C5.00424 9.8038 2.65244 6.90463 0.769043 2.0166L4.18644 10.9803C10.9258 22.4842 28.609 23.6996 30.5365 41.5844C28.591 18.7577 18.5605 22.1693 7.78495 11.7803Z" fill="url(#paint3_linear_15605_2651)"/>
<path d="M90.685 48.9863C78.5166 48.9863 70.7891 42.6597 70.7891 34.7253C70.7891 26.6514 78.9711 20.4644 91.0344 20.4644C103.098 20.4644 111.28 26.6863 111.28 34.411C111.28 37.8717 109.741 40.7027 106.804 43.0792H113.972L112.259 46.0153C111.175 47.8678 109.846 48.9863 106.979 48.9863H90.685ZM91.0344 42.5197C97.6778 42.5197 103.273 39.2344 103.273 34.7253C103.273 30.2163 97.6778 26.931 91.0344 26.931C84.3909 26.931 78.7962 30.2163 78.7962 34.7253C78.7962 39.2344 84.3909 42.5197 91.0344 42.5197Z" fill="#323232"/>
<path d="M143.865 44.1627H124.704L121.977 48.9861H114.039L127.327 25.9871C128.376 24.1695 129.879 22.7715 132.886 22.7715H135.858C138.866 22.7715 140.369 24.1695 141.418 25.9871L154.705 48.9861H146.593L143.865 44.1627ZM127.955 38.3951H140.613L134.739 27.9441C134.599 27.699 134.494 27.6298 134.284 27.6298C134.074 27.6298 133.97 27.6995 133.83 27.9441L127.955 38.3951Z" fill="#323232"/>
<path d="M192.535 22.771V48.9861H185.437L164.598 31.6147V48.9861H157.5V22.771H161.94C164.213 22.771 165.367 23.3649 166.661 24.4834L185.438 40.1081V22.771H192.535Z" fill="#323232"/>
<path d="M217.778 28.6781V48.9861H210.68V28.6781H196.135V22.771H232.325V28.6781H217.778Z" fill="#323232"/>
<path d="M255.959 44.1627H236.798L234.071 48.9861H226.133L239.421 25.9871C240.47 24.1695 241.973 22.7715 244.98 22.7715H247.952C250.96 22.7715 252.463 24.1695 253.512 25.9871L266.799 48.9861H258.687L255.959 44.1627ZM240.05 38.3951H252.708L246.833 27.9441C246.693 27.699 246.588 27.6298 246.379 27.6298C246.169 27.6298 246.064 27.6995 245.924 27.9441L240.05 38.3951Z" fill="#323232"/>
<path d="M269.244 47.0992L268.579 46.8894L270.363 41.1921C275.468 42.8348 280.922 43.499 285.853 43.499C293.93 43.499 295.923 42.5553 295.923 41.5419C295.923 41.1224 295.643 40.8075 295.013 40.5977C294.209 40.3182 291.972 39.8638 285.363 38.7807C278.055 37.5919 274.768 36.998 272.356 35.8795C269.943 34.7609 268.475 32.9782 268.475 30.357C268.475 28.3646 269.454 26.7568 271.027 25.4982C273.824 23.3314 278.614 22.4575 283.825 22.4575C290.539 22.4575 296.168 23.017 302.427 24.5546L302.987 24.7295L301.483 30.2868C294.49 28.7836 290.608 28.3641 285.294 28.2948C281.553 28.26 278.965 28.5395 277.601 28.9585C276.832 29.2036 276.517 29.5529 276.517 29.9724C276.517 30.357 276.762 30.7063 277.531 30.9509C278.37 31.2304 279.734 31.5448 286.903 32.6987C294.665 33.9568 297.218 34.4814 299.351 35.3205C302.253 36.439 304.002 38.5012 304.002 41.0875C304.002 44.3385 301.484 46.75 297.113 48.0788C294.421 48.8829 290.819 49.3368 286.763 49.3368C280.398 49.3363 273.614 48.4972 269.244 47.0992Z" fill="#323232"/>
</g>
<defs>
<linearGradient id="paint0_linear_15605_2651" x1="53.5063" y1="59.7819" x2="12.4633" y2="-0.182091" gradientUnits="userSpaceOnUse">
<stop stop-color="#BE0000"/>
<stop offset="0.3898" stop-color="#DE0000"/>
<stop offset="0.768" stop-color="#F60000"/>
<stop offset="1" stop-color="#FF0000"/>
</linearGradient>
<linearGradient id="paint1_linear_15605_2651" x1="42.1594" y1="32.7186" x2="42.7125" y2="26.394" gradientUnits="userSpaceOnUse">
<stop offset="0.65" stop-color="white" stop-opacity="0"/>
<stop offset="0.7285" stop-color="#E0E0E0" stop-opacity="0.2617"/>
<stop offset="0.8148" stop-color="#C5C5C5" stop-opacity="0.5493"/>
<stop offset="0.8914" stop-color="#B5B5B5" stop-opacity="0.8047"/>
<stop offset="0.95" stop-color="#AFAFAF"/>
</linearGradient>
<linearGradient id="paint2_linear_15605_2651" x1="34.0278" y1="49.4082" x2="60.6575" y2="49.4082" gradientUnits="userSpaceOnUse">
<stop stop-color="white" stop-opacity="0"/>
<stop offset="0.0839" stop-color="#F1F1F1" stop-opacity="0.0932"/>
<stop offset="0.2921" stop-color="#D4D4D4" stop-opacity="0.3246"/>
<stop offset="0.4993" stop-color="#C0C0C0" stop-opacity="0.5548"/>
<stop offset="0.7032" stop-color="#B3B3B3" stop-opacity="0.7814"/>
<stop offset="0.9" stop-color="#AFAFAF"/>
</linearGradient>
<linearGradient id="paint3_linear_15605_2651" x1="0.76894" y1="21.8006" x2="30.5364" y2="21.8006" gradientUnits="userSpaceOnUse">
<stop offset="0.25" stop-color="white" stop-opacity="0"/>
<stop offset="0.4615" stop-color="#EDEDED" stop-opacity="0.282"/>
<stop offset="0.886" stop-color="#BDBDBD" stop-opacity="0.848"/>
<stop offset="1" stop-color="#AFAFAF"/>
</linearGradient>
<clipPath id="clip0_15605_2651">
<rect width="304" height="60" fill="white"/>
</clipPath>
</defs>
</svg>
