<svg xmlns="http://www.w3.org/2000/svg" width="350" height="370" viewBox="0 0 350 370">
  <g fill="none" transform="translate(15 22)">
    <g fill="#063F7B">
      <path d="M319.8 162.7C319.8 147 309.3 134.5 304.6 126.8 300 119.3 282.6 96.5 275.9 83 270.9 73.1 268 63.1 265.8 57.5 264 53.1 259.2 44 256.2 39.3 253.4 34.9 248.2 25.1 246.8 20.7 245.5 16.8 243.8 11.2 242.7 7.5 241.8 4.3 239.8.4 235.3.9 227.9 1.7 228.7 12.1 226.3 21.5 223.8 31 222.2 54.1 217.7 60.8 217.7 60.8 210.7 69.5 209.6 70.7 207.2 73.3 202.1 72 200 71.3L164.2 59.5C159.1 58.3 156.3 57.3 155.7 56.5 155.7 56.4 155.7 56.1 155.6 56 154.9 54.4 156.3 50.1 156.9 49 164.2 37.7 161.6 35.1 160.8 34.3 159.4 33 157.4 32.4 155.4 31.9L149.5 31.2C149.5 31.2 129.4 29.5 124.6 28.4 122.1 27.8 117.5 26.7 114.4 28.8 108.3 33 105.5 40.6 103.5 46.2L102.7 48.5C100.4 54.5 95.1 59.1 91.1 60.5 88.1 61.3 83 59 79.1 55 78.8 54.7 77.8 53.9 76.2 54.1 72.9 54.5 59.7 74.3 59.7 74.3 57.5 78.5 30.6 117.5 30.6 117.5L24 125.4 12.7 138.7 6.3 146.6C3.9 149.5 1.6 152.6 1.1 156.1-4.02039513e-14 165.1.1 187.9.1 187.9.1 188.6 1.1 195.1 5.8 209L13.6 230.3 18.8 244.7 22.1 253C23.4 255.8 24.8 259.1 27.9 261 32.9 264 40.4 264.7 44 260.7L60.3 241.7C65.4 236.3 70.8 232.8 73.5 231.1 86.1 223.7 96.1 221.1 101.5 219.7 101.5 219.7 129.1 215.7 133.7 215.7 144 216 153.6 217.8 161.2 220.9 165.6 222.7 169.9 225.6 174 229.4 174 229.4 179.2 233.5 182.3 231.5 184.4 230.1 186 224.4 186 224.4L186.6 220C186.6 219.1 187 215.1 187.8 213.8 188.6 212.6 190.1 211.8 191.1 212.3 194.5 214.3 197.1 216.9 198.5 219.9 200.4 223.8 201.9 228.3 203.3 232.6 205 237.7 206.6 242.6 208.9 246.5L216.9 258.7C220.6 263.1 226.9 268.4 232.7 270.4 236.2 271.7 239.6 271.4 242.2 269.6 244.5 267.9 249.5 260.6 251 259.5 253.1 258 256.4 257.1 258.9 259.3 260.1 260.4 263.6 266.4 263.6 266.4 265.5 269.3 268.3 271.2 271.2 271.3 274.2 271.5 275.8 268.8 276.8 267.1L282.4 258 287.9 246.4C290.2 241.3 317.3 200.7 317.3 200.7L320 194.6C321.8 184.7 319.8 162.7 319.8 162.7M255.1 289.5C263.1 288.8 270.2 287.5 272.2 289.5 274.2 291.5 275.2 297.6 274.2 301.1 273.2 304.6 269.2 312.2 268.2 314.7 267.2 317.2 267.1 319.2 266.2 320.3 263.8 322.9 260.2 321.8 257.6 324.3 255.1 326.8 249.1 325.8 246 321.8 243 317.8 240.5 305.6 237.9 301.6 235.4 297.5 234.6 291.3 236.6 288.8 238.6 286.3 245.1 283.2 246.6 286.8 248.2 290.4 248.6 290.1 255.1 289.5"/>
    </g>
    <path fill="#FFF" d="M75.8 151.1L95.8 151.1 86.1 122.8 85.9 122.8 75.8 151.1zM77.5 103.7L94.9 103.7 123.8 181 106.2 181 100.4 163.8 71.5 163.8 65.4 181 48.2 181 77.5 103.7zM170.6 153.2C170.6 144.3 167 135.1 157.2 135.1 147.1 135.1 143.9 144.1 143.9 153.2 143.9 162.3 147.4 170.9 157.3 170.9 167.4 170.9 170.6 162.3 170.6 153.2zM129.1 125.1L143.7 125.1 143.7 132.2 143.9 132.2C147.6 126.3 153.6 123.6 160.6 123.6 178.1 123.6 186 137.8 186 153.7 186 168.6 177.8 182.6 161.4 182.6 154.7 182.6 148.3 179.7 144.6 174.2L144.4 174.2 144.4 200.8 129 200.8 129.1 125.1zM191.5 125.1L206.9 125.1 206.9 181 191.5 181 191.5 125.1zM206.8 116.4L191.4 116.4 191.4 103.7 206.8 103.7 206.8 116.4zM249.7 153.6C247.1 155.9 241.7 156 236.9 156.8 232.1 157.8 227.8 159.4 227.8 165 227.8 170.7 232.2 172.1 237.2 172.1 249.2 172.1 249.7 162.6 249.7 159.2L249.7 153.6zM214.2 142.3C215.1 127.9 228 123.6 240.5 123.6 251.7 123.6 265.1 126.1 265.1 139.5L265.1 168.6C265.1 173.7 265.6 178.8 267 181.1L251.4 181.1C250.9 179.4 250.4 177.5 250.3 175.7 245.4 180.8 238.3 182.6 231.5 182.6 220.9 182.6 212.5 177.3 212.5 165.8 212.5 153.1 222 150.1 231.5 148.8 240.9 147.4 249.7 147.7 249.7 141.5 249.7 134.9 245.2 133.9 239.7 133.9 233.9 133.9 230.1 136.3 229.5 142.3L214.2 142.3z"/>
  </g>
</svg>
