<?xml version="1.0" encoding="utf-8"?>
<!-- Generator: Adobe Illustrator 23.1.1, SVG Export Plug-In . SVG Version: 6.00 Build 0)  -->
<svg version="1.1" id="Layer_1" xmlns="http://www.w3.org/2000/svg" xmlns:xlink="http://www.w3.org/1999/xlink" x="0px" y="0px"
	 viewBox="0 0 595.3 62.4" style="enable-background:new 0 0 595.3 62.4;" xml:space="preserve">
<style type="text/css">
	.st0{fill:#006EB7;}
	.st1{fill:#C9D300;}
</style>
<g>
	<g>
		<path class="st0" d="M590.4,8.3c0,4.1-3.3,7.4-7.5,7.4c-4.2,0-7.5-3.3-7.5-7.4c0-4.1,3.3-7.3,7.5-7.3
			C587.1,0.9,590.4,4.2,590.4,8.3z M577.2,8.3c0,3.3,2.4,5.8,5.7,5.8c3.2,0,5.6-2.6,5.6-5.8c0-3.3-2.4-5.9-5.6-5.9
			S577.2,5,577.2,8.3z M581.7,12.1H580V4.8c0.7-0.1,1.6-0.2,2.8-0.2c1.4,0,2,0.2,2.5,0.5c0.4,0.3,0.7,0.9,0.7,1.6
			c0,0.8-0.6,1.4-1.5,1.7v0.1c0.7,0.3,1.1,0.8,1.3,1.8c0.2,1.1,0.4,1.6,0.5,1.8h-1.8c-0.2-0.3-0.4-0.9-0.6-1.8
			c-0.1-0.8-0.6-1.2-1.5-1.2h-0.8V12.1z M581.8,7.9h0.8c0.9,0,1.7-0.3,1.7-1.1c0-0.7-0.5-1.1-1.6-1.1c-0.4,0-0.8,0-0.9,0.1V7.9z"/>
	</g>
	<path class="st0" d="M33.8,18.6c13.2,0,22,6.6,18.9,21c-1.3,5.9-4.2,11.9-9.3,16.1c-4.1,3.3-9.6,5.8-17.9,5.8c-9,0-14.3-2.2-17.5-6
		C4.3,51,4.5,45,5.6,40C8.2,27.6,17.8,18.6,33.8,18.6z M21.2,49.7c1.1,3.1,3.8,3.2,5.2,3.2c6.6,0,9.4-7.2,10.6-12.8
		c1.5-7,1.1-12.9-5-12.9c-6.7,0-9.5,6.9-10.7,12.9C20.7,42.8,20.1,46.7,21.2,49.7z"/>
	<path class="st0" d="M63.9,28.6l1.4-8.6h15.2l-1.2,6.2c2.5-3.1,6.6-7.1,15-7.1c14.8,0,12.4,11.3,11.3,16.9l-5.2,24.5H85.2l4.9-23.2
		c0.6-2.8,1.8-8.6-4.4-8.6c-6.8,0-8.3,7.1-8.6,8.6l-4.9,23.2H57.1L63.9,28.6z"/>
	<path class="st0" d="M126.5,43.3c-0.5,2.2-2.1,9.8,5.7,9.8c4,0,7-2.1,8.2-5.9h14.1c-3.3,10.2-13.7,14.1-24.1,14.1
		c-14.1,0-20.2-7.1-17.4-20.5c2.9-13.6,11.4-22.4,26.3-22.4c11.3,0,15.6,4.6,17.1,10.3c1,3.5,0.7,7.3-0.8,14.4H126.5z M143,35
		c0.3-2.3,1.2-8.5-5.5-8.5c-6.6,0-8.6,6.5-9.1,8.5H143z"/>
	<path class="st1" d="M166.7,29.1c0.2-1,1.4-8,1.6-9.2h15l-1.3,6.7c4-5.2,9.2-7.7,15.3-7.7c2.3,0,10,0.4,11.2,7.5
		c5.1-6.3,11.7-7.6,15.9-7.6c7.6,0,10.4,4,11.4,6.3c1.4,3.5,0.4,8.4-0.6,13.1l-4.7,22.2h-15.2l4.9-22.9c0.9-4.1,1.9-9-4.1-9
		c-2,0-4.4,0.7-6.4,3.4c-0.7,1-1.3,2.3-2,5.7l-4.8,22.8h-15.2l4.9-23.1c0.8-3.6,1.9-8.8-4.2-8.8c-5.2,0-7.4,4.3-8.3,8.8l-4.9,23.1
		H160L166.7,29.1z"/>
	<path class="st1" d="M256.5,43.3c-0.5,2.2-2.1,9.8,5.7,9.8c4,0,7-2.1,8.2-5.9h14.1c-3.3,10.2-13.7,14.1-24.1,14.1
		c-14.1,0-20.2-7.1-17.4-20.5c2.9-13.6,11.4-22.4,26.3-22.4c11.3,0,15.6,4.6,17.1,10.3c1,3.5,0.7,7.3-0.8,14.4H256.5z M273,35
		c0.3-2.3,1.2-8.5-5.5-8.5c-6.6,0-8.6,6.5-9.1,8.5H273z"/>
	<path class="st1" d="M346.1,2.2l-10.2,48.2c-0.7,3.4-1.3,6.7-1.7,10.1h-14.4l0.9-6c-2.1,2.3-6.2,6.9-15.2,6.9
		c-14,0-15.5-11.3-13.4-21.2c1.8-8.6,5-12.7,8.4-15.7c4.6-4,9.4-5.5,14.5-5.5c6.8,0,9.1,2.8,11.1,5.6L331,2.2H346.1z M323.1,40
		c1.4-6.8,0.4-12.1-4.9-12.1c-6.8,0-9.5,8.6-10.3,12.3c-0.8,3.9-1.8,12.2,4.9,12.2C318.3,52.5,321.6,47,323.1,40z"/>
	<path class="st1" d="M353.1,19.9h15.2l-8.6,40.5h-15.2L353.1,19.9z M356.7,2.3h15.5l-2.3,10.8h-15.5L356.7,2.3z"/>
	<path class="st0" d="M410.5,12.2c-0.6-0.2-2.1-0.5-4.1-0.5c-6.2,0-7.1,5-7.8,8.4h9.8l-2.1,9.8h-9.8l-6.5,30.5h-14.8l6.5-30.5h-7.8
		l2.1-9.8h8.1c1.8-9.7,3.8-18.2,19.7-18.2c4.1,0,7.2,0.3,8.9,0.5L410.5,12.2z"/>
	<path class="st0" d="M430.5,19.9l-5,23.6c-0.5,2.3-1.7,7.9,4.4,7.9c6.4,0,7.6-5.8,8.1-8.1l5-23.5h15.2L451,53.4
		c-0.6,3.5-0.7,3.9-1.2,7h-14.9l1-6.3c-5.5,6.5-10.7,7-14.2,7c-14,0-12.7-10.7-11-18.4l4.9-22.8H430.5z"/>
	<path class="st0" d="M467.4,28.6l1.4-8.6H484l-1.2,6.2c2.5-3.1,6.6-7.1,15-7.1c14.8,0,12.4,11.3,11.3,16.9l-5.2,24.5h-15.2
		l4.9-23.2c0.6-2.8,1.8-8.6-4.4-8.6c-6.8,0-8.3,7.1-8.6,8.6l-4.9,23.2h-15.1L467.4,28.6z"/>
	<path class="st0" d="M570.3,2.2l-10.2,48.2c-0.7,3.4-1.3,6.7-1.7,10.1H544l0.9-6c-2.1,2.3-6.2,6.9-15.2,6.9
		c-14,0-15.5-11.3-13.4-21.2c1.8-8.6,5-12.7,8.4-15.7c4.6-4,9.4-5.5,14.5-5.5c6.8,0,9.1,2.8,11.2,5.6l4.8-22.5H570.3z M547.3,40
		c1.4-6.8,0.4-12.1-4.9-12.1c-6.8,0-9.5,8.6-10.3,12.3c-0.8,3.9-1.8,12.2,4.9,12.2C542.5,52.5,545.8,47,547.3,40z"/>
</g>
</svg>
