<svg data-name="Layer 1" xmlns="http://www.w3.org/2000/svg" width="500.5" height="136.3"><path d="M130.38,31.09,114.3,3.25a6.6,6.6,0,0,0-11.43,0L86.79,31.09A79.38,79.38,0,0,1,108.58,66a79.29,79.29,0,0,1,21.8-34.86" fill="#f68b1f"/><path d="M84 76.28l21.14 36.61V89.24A72.54 72.54 0 0 0 68.82 26.42L54.37 18.08a8.06 8.06 0 0 0-12.08 7v27.6H43A47.38 47.38 0 0 1 84 76.28M170.85 18.08a8 8 0 0 0-8 0l-14.45 8.34a72.54 72.54 0 0 0-36.27 62.82v23.64l21.13-36.6a47.39 47.39 0 0 1 40.93-23.63h.73V25.05a8 8 0 0 0-4-7" fill="#faa61a"/><path d="M210.48 59.64H174.14a40.39 40.39 0 0 0-34.88 20.13l-24.55 42.52a136.89 136.89 0 0 0 53.65-13.69 136.83 136.83 0 0 0 47.33-38.31 6.59 6.59 0 0 0-5.21-10.65M43 59.64H6.68A6.5 6.5 0 0 0 .74 63.35a6.47 6.47 0 0 0 .73 6.94A136.92 136.92 0 0 0 48.8 108.6a137 137 0 0 0 53.65 13.69L77.9 79.77A40.39 40.39 0 0 0 43 59.64" fill="#ffc40c"/><path d="M300.34 21.57l-.06 23.88h-6.21v-3.3a8.57 8.57 0 0 1-7.4 3.8c-5.25 0-8.5-3.62-8.49-9.44l0-15 6.21 0 0 13.64c0 3.12 1.16 4.86 4.37 4.87 3.43 0 5.31-2 5.32-5.94l0-12.55zM328.66 35.18l-18.33 0a5.93 5.93 0 0 0 6.2 5.75 5.55 5.55 0 0 0 5.31-3l6.42 0c-1.79 5.64-6.58 8.1-11.7 8.09C309.09 46 304 40.68 304 33.56a12.1 12.1 0 0 1 12.5-12.48c7.9 0 12.8 6.24 12.17 14.1m-18-4.6l11.42 0a5.55 5.55 0 0 0-5.64-4.4 5.77 5.77 0 0 0-5.78 4.37M356.82 35.25l-18.33 0a5.92 5.92 0 0 0 6.2 5.75 5.53 5.53 0 0 0 5.3-3l6.43 0c-1.79 5.64-6.58 8.1-11.7 8.09-7.47 0-12.58-5.33-12.56-12.45a12.07 12.07 0 0 1 12.49-12.48c7.91 0 12.8 6.24 12.17 14.1m-18-4.6l11.43 0a5.55 5.55 0 0 0-5.64-4.4 5.78 5.78 0 0 0-5.79 4.37M382.67 30.67l0 15h-6.21l0-13.64c0-3.12-1.16-4.86-4.46-4.87-3.52 0-5.39 2-5.4 5.93l0 12.55h-6.22l.07-23.88h6.21V25a8.59 8.59 0 0 1 7.43-3.77c5.39 0 8.63 3.59 8.62 9.45M385.82 37.8h6.3c.47 1.92 1.9 3.22 5.77 3.23 2.73 0 4-.64 4-1.94 0-1.61-1.86-1.74-5.46-2.62-6.78-1.62-9.55-3.15-9.54-7.28 0-5 4.19-7.93 10.49-7.92 6.64 0 9.89 3.24 10.7 7.67h-6.29c-.48-1.52-1.78-2.44-4.64-2.45-2.48 0-4 .69-4 2 0 1.13 1.09 1.35 4.56 2.14 6.81 1.58 10.63 2.89 10.62 7.67 0 5.34-4.75 7.93-10.66 7.92-6.38 0-11-3.15-11.88-8.41" fill="#b5121b"/><path transform="rotate(-89.88 414.875 29.016)" fill="#b5121b" d="M398.16 25.9H431.6V32.11H398.16z"/><path d="M446.11 21.92L446 45.81l-6.21 0V42.58a8.9 8.9 0 0 1-7.48 3.72c-6.25 0-10.88-5.16-10.87-12.5s4.77-12.45 10.89-12.43a9 9 0 0 1 7.55 3.88V21.91zm-6.24 11.93c0-3.91-2.64-6.56-6.11-6.57s-6 2.63-6.05 6.54 2.59 6.56 6 6.57 6.13-2.59 6.14-6.54M472.49 30.89l0 15h-6.22l0-13.64c0-3.13-1.16-4.87-4.46-4.88-3.52 0-5.39 2-5.4 5.94l0 12.55h-6.21l.06-23.89 6.21 0V25.2a8.6 8.6 0 0 1 7.43-3.76c5.39 0 8.64 3.59 8.62 9.45M500.55 12.5l-.08 33.44-6.21 0V42.71a9 9 0 0 1-7.52 3.72c-6.21 0-10.89-5.15-10.87-12.49s4.76-12.45 10.89-12.44a9 9 0 0 1 7.54 3.89l0-12.91zM494.29 34c0-3.91-2.63-6.56-6.11-6.57s-6 2.64-6.05 6.54 2.59 6.57 6 6.58 6.13-2.6 6.14-6.55M269.88 40.37a17 17 0 0 0-12.39-28.74 16.63 16.63 0 0 0-16.94 17.21A17 17 0 0 0 257.5 45.42 17.54 17.54 0 0 0 264.59 44l.23-.09 1 1.26a5.93 5.93 0 0 0 8.3 1.17l-4.36-5.81zm-12.4-1.12A10.76 10.76 0 1 1 268 28.51a10.65 10.65 0 0 1-10.55 10.74M240.55 66.94a16.18 16.18 0 0 1 16.64-16.56A15.63 15.63 0 0 1 272.66 62l-7 0a9 9 0 0 0-8.51-5.34c-5.92 0-10 4.33-10 10.34s4 10.37 9.92 10.39a9 9 0 0 0 8.55-5.3l7 0a15.61 15.61 0 0 1-15.52 11.52 16.18 16.18 0 0 1-16.56-16.65M299.42 71.75a12.25 12.25 0 1 1-12.24-12.3 12 12 0 0 1 12.24 12.3m-18.35 0c0 3.89 2.64 6.46 6.06 6.47s6.08-2.55 6.09-6.44-2.64-6.47-6.06-6.47-6.08 2.59-6.09 6.44M324.93 60.06l-.05 23.51h-6.12V80.31a8.4 8.4 0 0 1-7.27 3.74c-5.18 0-8.38-3.56-8.36-9.3l0-14.75 6.12 0 0 13.42c0 3.08 1.15 4.8 4.31 4.8 3.38 0 5.22-2 5.23-5.84l0-12.36zM350.54 68.88l0 14.75h-6.12l0-13.43c0-3.07-1.14-4.79-4.39-4.79-3.47 0-5.31 2-5.32 5.84l0 12.36-6.12 0 .06-23.51h6.12v3.21a8.44 8.44 0 0 1 7.32-3.7c5.3 0 8.5 3.52 8.49 9.29M372.3 82.32a14.3 14.3 0 0 1-7 1.86c-4.69 0-8.8-2.84-8.78-9.59l0-8.69h-4.19l0-5.77h4.19V55.05l6.12-1.31 0 6.41 8.72 0v5.77l-8.72 0 0 8.34c0 2.78 1.32 4.24 3.76 4.24a15.79 15.79 0 0 0 4.92-1.14zM390.22 59.79v6.28c-.47 0-.81-.08-1.5-.09-3.89 0-7.23 1.7-7.24 7.26l0 10.47-6.11 0 .06-23.51h6.11V64.3a7.65 7.65 0 0 1 7.37-4.6 10.06 10.06 0 0 1 1.36.09M416.86 60.28L401.46 94.45 394.96 94.43 401.16 80.64 392.14 60.22 398.64 60.24 404.42 74.02 410.31 60.27 416.86 60.28z" fill="#b5121b"/><path fill="#58595b" d="M262.84 96.7L262.84 121.86 258.78 121.86 258.78 110.86 245.88 110.86 245.88 121.86 241.81 121.86 241.81 96.7 245.88 96.7 245.88 106.98 258.78 106.98 258.78 96.7 262.84 96.7zM286.47 113.09H270.4a5.85 5.85 0 0 0 6.18 5.64 5.55 5.55 0 0 0 5.29-2.94h4.2c-1.54 4.42-5.32 6.5-9.52 6.5a10.32 10.32 0 0 1-.08-20.63c6.37 0 10.39 4.92 10 11.43m-15.85-3.31h11.5a5.6 5.6 0 0 0-5.65-4.6 5.82 5.82 0 0 0-5.85 4.6M309.59 102.09v19.77h-4.06v-3.31a7.89 7.89 0 0 1-6.9 3.74c-5.29 0-9.13-4.27-9.13-10.31s3.91-10.32 9.09-10.32a8 8 0 0 1 6.94 3.81v-3.38zm-4 9.89c0-3.78-2.62-6.44-6.07-6.44s-5.89 2.66-5.89 6.44 2.48 6.43 5.89 6.43 6.07-2.62 6.07-6.43M313.59 94.18H317.69V121.85000000000001H313.59zM338 120.85a12.24 12.24 0 0 1-5.64 1.44c-4.06 0-7.22-2.55-7.22-8V105.9h-3.67v-3.81h3.67V97.6l4.06-.9v5.39h8.12v3.81H329.2v8.16c0 2.87 1.33 4.46 3.88 4.46a13.58 13.58 0 0 0 4.21-1zM359 109.39v12.47H355V110.21c0-3-1.37-4.67-4.35-4.67-3.45 0-5.32 2.27-5.32 6.08v10.24h-4.06V94.18h4.06v11.15a7.27 7.27 0 0 1 6.61-3.67c4.42 0 7.12 2.91 7.12 7.73M381.59 100.58L381.59 107.27 393.06 107.27 393.06 111.15 381.59 111.15 381.59 121.86 377.53 121.86 377.53 96.7 393.96 96.7 393.96 100.58 381.59 100.58zM414.71 102.09v19.77h-4.06v-3.27a7.36 7.36 0 0 1-6.58 3.7c-4.39 0-7-2.91-7-7.73V102.09h4.06v11.65c0 3.05 1.29 4.67 4.24 4.67 3.38 0 5.29-2.27 5.29-6.08V102.09zM436.46 109.39v12.47H432.4V110.21c0-3-1.33-4.67-4.31-4.67-3.49 0-5.36 2.27-5.36 6.08v10.24h-4.06V102.09h4.06v3.27a7.29 7.29 0 0 1 6.62-3.7c4.45 0 7.11 2.91 7.11 7.73M460 94.18v27.68h-4.07v-3.31a8.07 8.07 0 0 1-6.93 3.74c-5.29 0-9.13-4.27-9.13-10.31s3.92-10.32 9.09-10.32a8.06 8.06 0 0 1 7 3.81V94.18zM455.88 112c0-3.78-2.62-6.44-6.07-6.44s-5.89 2.66-5.89 6.44 2.47 6.43 5.89 6.43 6.07-2.62 6.07-6.43"/></svg>