<?xml version="1.0" encoding="utf-8"?>
<!-- Generator: Adobe Illustrator 24.1.0, SVG Export Plug-In . SVG Version: 6.00 Build 0)  -->
<svg version="1.1" id="Layer_1" xmlns="http://www.w3.org/2000/svg" xmlns:xlink="http://www.w3.org/1999/xlink" x="0px" y="0px"
	 viewBox="0 0 980 410" style="enable-background:new 0 0 980 410;" xml:space="preserve">
<style type="text/css">
	.st0{fill:none;}
	.st1{fill:#FBB040;}
	.st2{fill:#00A6CE;}
	.st3{fill:#00AFDB;}
	.st4{fill:#00B274;}
	.st5{fill:#7F3F98;}
</style>
<g>
	<path d="M143.36,291.4v4.03c1.48-1.56,2.77-2.62,3.86-3.18c1.09-0.57,2.13-0.85,3.13-0.85c0.91,0,1.72,0.21,2.44,0.62
		c0.72,0.42,1.28,1.01,1.7,1.8c0.42,0.78,0.63,1.61,0.63,2.5c0,1.18-0.39,2.23-1.15,3.18c-0.77,0.93-1.86,1.41-3.25,1.41
		c-0.37,0-0.7-0.02-0.99-0.08c-0.28-0.06-0.89-0.24-1.82-0.56c-0.48-0.15-0.88-0.22-1.2-0.22c-0.48,0-1.28,0.31-2.4,0.92v10.87
		c0,0.93,0.07,1.53,0.21,1.8c0.14,0.28,0.37,0.48,0.68,0.61c0.31,0.13,1,0.19,2.06,0.19h1.22v5.36h-17.15v-5.36h1.43
		c1.03,0,1.67-0.05,1.92-0.16c0.25-0.11,0.44-0.31,0.57-0.59c0.13-0.28,0.2-0.9,0.2-1.86v-12.75h-4.12v-5.34
		c3.02-0.18,6.16-0.97,9.42-2.34H143.36z"/>
	<path d="M181.41,309.51l3.81,3.85c-2.19,2.5-4.41,4.3-6.69,5.43c-2.26,1.11-4.71,1.68-7.35,1.68c-4.22,0-7.78-1.43-10.67-4.29
		c-2.89-2.86-4.34-6.32-4.34-10.38c0-2.67,0.64-5.11,1.94-7.33c1.3-2.21,3.1-3.95,5.4-5.2c2.3-1.25,4.9-1.88,7.81-1.88
		c1.85,0,3.54,0.27,5.05,0.81c1.52,0.53,2.85,1.31,3.98,2.31c1.14,1,2.06,2.21,2.76,3.63c0.69,1.41,1.17,2.88,1.43,4.4
		c0.11,0.77,0.17,1.96,0.17,3.62h-18.7c0.04,2.35,0.72,4.25,2.07,5.7c1.34,1.47,2.98,2.19,4.93,2.19c1.24,0,2.59-0.38,4.06-1.13
		C178.54,312.18,179.99,311.04,181.41,309.51z M175.85,301.49c-0.13-1.12-0.39-2-0.79-2.63c-0.4-0.64-0.94-1.15-1.62-1.52
		c-0.67-0.38-1.39-0.57-2.13-0.57c-0.78,0-1.54,0.19-2.26,0.57c-0.72,0.39-1.31,0.92-1.74,1.59c-0.43,0.66-0.72,1.52-0.85,2.56
		H175.85z"/>
	<path d="M207.76,292.07h3.65l2.25,7.72l-5.25,2.11c-1-1.61-2.26-2.88-3.77-3.8c-1.51-0.92-3-1.38-4.48-1.38
		c-0.99,0-1.72,0.18-2.2,0.5c-0.48,0.34-0.71,0.74-0.71,1.2c0,0.39,0.17,0.75,0.51,1.09c0.34,0.34,1.04,0.68,2.12,1.05l7.64,2.72
		c1.36,0.49,2.65,1.09,3.9,1.81c1.23,0.72,2.17,1.6,2.79,2.66c0.62,1.05,0.93,2.27,0.93,3.68c0,2.52-0.96,4.59-2.89,6.2
		c-2.26,1.88-5.08,2.83-8.44,2.83c-2.89,0-5.42-0.73-7.56-2.19l-0.78,1.52h-3.69l-3.42-9.11l5.25-2.22
		c1.32,2.05,2.94,3.66,4.87,4.84c1.93,1.18,3.7,1.76,5.3,1.76c1,0,1.85-0.23,2.53-0.69c0.52-0.38,0.78-0.81,0.78-1.31
		c0-0.43-0.2-0.84-0.61-1.23c-0.41-0.39-1.31-0.82-2.7-1.3l-6-2.08c-3.32-1.17-5.57-2.43-6.77-3.73c-1.2-1.33-1.79-2.9-1.79-4.72
		c0-2.33,0.93-4.3,2.8-5.9c2.13-1.81,4.77-2.72,7.9-2.72c2.77,0,5.16,0.62,7.14,1.89L207.76,292.07z"/>
	<path d="M243.67,309.51l3.81,3.85c-2.18,2.5-4.41,4.3-6.68,5.43c-2.27,1.11-4.71,1.68-7.35,1.68c-4.22,0-7.78-1.43-10.67-4.29
		c-2.89-2.86-4.34-6.32-4.34-10.38c0-2.67,0.65-5.11,1.95-7.33c1.29-2.21,3.09-3.95,5.39-5.2c2.3-1.25,4.9-1.88,7.81-1.88
		c1.85,0,3.54,0.27,5.06,0.81c1.52,0.53,2.85,1.31,3.98,2.31c1.14,1,2.06,2.21,2.76,3.63c0.69,1.41,1.17,2.88,1.43,4.4
		c0.11,0.77,0.17,1.96,0.17,3.62h-18.7c0.04,2.35,0.72,4.25,2.07,5.7c1.34,1.47,2.98,2.19,4.94,2.19c1.24,0,2.59-0.38,4.06-1.13
		C240.8,312.18,242.25,311.04,243.67,309.51z M238.11,301.49c-0.13-1.12-0.39-2-0.79-2.63c-0.4-0.64-0.94-1.15-1.62-1.52
		c-0.68-0.38-1.39-0.57-2.13-0.57c-0.78,0-1.54,0.19-2.26,0.57c-0.72,0.39-1.31,0.92-1.74,1.59c-0.43,0.66-0.72,1.52-0.85,2.56
		H238.11z"/>
	<path d="M263.04,291.4v4.03c1.48-1.56,2.77-2.62,3.86-3.18c1.09-0.57,2.14-0.85,3.13-0.85c0.91,0,1.73,0.21,2.44,0.62
		c0.72,0.42,1.28,1.01,1.7,1.8c0.42,0.78,0.63,1.61,0.63,2.5c0,1.18-0.38,2.23-1.16,3.18c-0.77,0.93-1.85,1.41-3.25,1.41
		c-0.37,0-0.7-0.02-0.99-0.08c-0.29-0.06-0.89-0.24-1.82-0.56c-0.48-0.15-0.88-0.22-1.2-0.22c-0.48,0-1.28,0.31-2.4,0.92v10.87
		c0,0.93,0.07,1.53,0.21,1.8c0.14,0.28,0.36,0.48,0.67,0.61c0.32,0.13,1.01,0.19,2.06,0.19h1.23v5.36h-17.15v-5.36h1.43
		c1.03,0,1.66-0.05,1.92-0.16c0.25-0.11,0.44-0.31,0.57-0.59c0.13-0.28,0.19-0.9,0.19-1.86v-12.75h-4.12v-5.34
		c3.02-0.18,6.16-0.97,9.42-2.34H263.04z"/>
	<path d="M296.07,292.07h14.75v5.36c-1.24,0.02-1.96,0.06-2.16,0.11c-0.32,0.1-0.64,0.32-0.99,0.66c-0.35,0.35-0.69,0.9-1.05,1.64
		l-9.09,19.95h-7.47l-9.48-20.56c-0.23-0.47-0.51-0.87-0.86-1.2c-0.28-0.26-0.59-0.43-0.92-0.5c-0.23-0.08-0.9-0.11-2.03-0.11v-5.36
		h17.04v5.36h-0.89c-1.09,0-1.77,0.08-2.03,0.26c-0.35,0.21-0.52,0.5-0.52,0.85c0,0.28,0.12,0.72,0.36,1.31l4.31,10.8l4.5-10.8
		c0.26-0.62,0.39-1.06,0.39-1.36c0-0.37-0.2-0.65-0.59-0.84c-0.3-0.14-0.96-0.22-1.98-0.22h-1.3V292.07z"/>
	<path d="M337.47,309.51l3.81,3.85c-2.19,2.5-4.41,4.3-6.69,5.43c-2.27,1.11-4.72,1.68-7.35,1.68c-4.22,0-7.78-1.43-10.67-4.29
		c-2.89-2.86-4.34-6.32-4.34-10.38c0-2.67,0.65-5.11,1.95-7.33c1.29-2.21,3.09-3.95,5.39-5.2c2.3-1.25,4.9-1.88,7.81-1.88
		c1.85,0,3.54,0.27,5.05,0.81c1.52,0.53,2.86,1.31,3.99,2.31c1.14,1,2.06,2.21,2.76,3.63c0.69,1.41,1.17,2.88,1.43,4.4
		c0.11,0.77,0.17,1.96,0.17,3.62h-18.7c0.04,2.35,0.72,4.25,2.07,5.7c1.34,1.47,2.98,2.19,4.93,2.19c1.24,0,2.59-0.38,4.06-1.13
		C334.6,312.18,336.05,311.04,337.47,309.51z M331.91,301.49c-0.13-1.12-0.39-2-0.79-2.63c-0.4-0.64-0.94-1.15-1.62-1.52
		c-0.67-0.38-1.39-0.57-2.13-0.57c-0.78,0-1.54,0.19-2.26,0.57c-0.72,0.39-1.31,0.92-1.74,1.59c-0.43,0.66-0.72,1.52-0.85,2.56
		H331.91z"/>
	<path d="M374.95,279v14.99c1.54-0.96,2.91-1.64,4.11-2.01c1.19-0.38,2.39-0.57,3.59-0.57c3.15,0,5.75,1.15,7.81,3.45
		c2.39,2.67,3.59,6.22,3.59,10.67c0,4.5-1.2,8.12-3.61,10.85c-2.4,2.74-5.31,4.1-8.72,4.1c-1.39,0-2.73-0.23-4.01-0.69
		c-1.28-0.46-2.61-1.24-4-2.31l-1.5,2.34h-6.12v-33.07h-4.06v-5.37c3.65-0.26,7.05-1.05,10.2-2.36H374.95z M374.95,300.02v8.45
		c0,1.7,0.14,2.87,0.41,3.51c0.27,0.64,0.74,1.17,1.41,1.6c0.68,0.43,1.47,0.65,2.38,0.65c1.54,0,2.76-0.64,3.66-1.89
		c1.15-1.58,1.73-3.75,1.73-6.54c0-2.61-0.49-4.64-1.48-6.06c-0.79-1.15-1.84-1.72-3.14-1.72c-0.71,0-1.49,0.17-2.31,0.5
		C376.79,298.84,375.9,299.35,374.95,300.02z"/>
	<path d="M414.45,302.98v-2.06c0-1.22-0.1-2.07-0.31-2.52c-0.2-0.47-0.57-0.85-1.11-1.16c-0.54-0.3-1.21-0.46-2-0.46
		c-0.61,0-1.17,0.1-1.66,0.3c-0.51,0.21-0.9,0.46-1.2,0.78c-0.3,0.31-0.64,0.92-1.03,1.83c-0.5,1.15-1.1,1.98-1.79,2.47
		c-0.7,0.49-1.52,0.75-2.46,0.75c-1.19,0-2.16-0.38-2.93-1.11c-0.75-0.74-1.13-1.66-1.13-2.75c0-1.24,0.39-2.35,1.17-3.31
		c1.04-1.28,2.59-2.32,4.64-3.14c2.05-0.81,4.37-1.22,6.94-1.22c2.58,0,4.76,0.42,6.57,1.25c1.81,0.83,3.07,1.82,3.79,2.99
		c0.71,1.16,1.07,2.91,1.07,5.28v9.96c0,1.22,0.06,1.99,0.19,2.35c0.13,0.34,0.41,0.64,0.83,0.89c0.43,0.27,0.9,0.4,1.41,0.4
		c0.52,0,1.21-0.15,2.09-0.45v5.42c-1.57,0.5-3.09,0.75-4.53,0.75c-1.7,0-3.16-0.27-4.36-0.83c-1.2-0.57-2.22-1.39-3.03-2.51
		c-1.86,1.2-3.54,2.07-5.05,2.57c-1.51,0.52-2.97,0.77-4.38,0.77c-2.65,0-4.79-0.74-6.42-2.23c-1.63-1.5-2.44-3.34-2.44-5.52
		c0-1.24,0.28-2.38,0.84-3.42c0.57-1.04,1.42-1.94,2.53-2.72c1.13-0.78,2.85-1.47,5.2-2.07
		C408.25,303.68,411.1,303.25,414.45,302.98z M414.45,307.6c-2.43,0.35-4.14,0.71-5.13,1.07c-1.01,0.36-1.72,0.81-2.15,1.36
		c-0.43,0.55-0.64,1.11-0.64,1.68c0,0.75,0.27,1.37,0.83,1.87c0.56,0.5,1.31,0.76,2.26,0.76c0.61,0,1.32-0.16,2.12-0.47
		c0.81-0.32,1.71-0.78,2.71-1.4V307.6z"/>
	<path d="M442.86,291.4v3.69c2.09-1.42,3.88-2.4,5.37-2.92c1.49-0.52,3.01-0.77,4.57-0.77c1.8,0,3.38,0.38,4.77,1.14
		c1.38,0.76,2.39,1.72,3.01,2.84c0.64,1.15,0.95,2.76,0.95,4.85v11.56c0,0.98,0.07,1.61,0.21,1.89s0.35,0.49,0.65,0.61
		c0.23,0.1,0.89,0.14,2,0.14h1.37v5.36h-16.32v-5.36c1.24-0.02,1.94-0.04,2.09-0.08c0.46-0.14,0.76-0.34,0.92-0.64
		c0.15-0.3,0.22-0.94,0.22-1.92v-10.17c0-1.31-0.14-2.16-0.42-2.55c-0.45-0.65-1.15-0.97-2.11-0.97c-0.8,0-1.65,0.18-2.56,0.52
		c-0.91,0.36-2.14,1.08-3.67,2.17v11c0,1.2,0.13,1.95,0.39,2.23c0.26,0.26,0.89,0.41,1.88,0.41h0.89v5.36h-16.14v-5.36h0.8
		c1.28,0,2.07-0.05,2.38-0.16c0.31-0.11,0.54-0.31,0.69-0.59c0.16-0.27,0.24-0.82,0.24-1.63v-12.94h-4.11v-5.36
		c3.32-0.41,6.43-1.2,9.34-2.36H442.86z"/>
	<path d="M482.28,279v25.03l5.34-4.52c0.57-0.49,0.91-0.8,1.01-0.93c0.11-0.14,0.15-0.27,0.15-0.4c0-0.22-0.12-0.4-0.38-0.54
		c-0.25-0.14-0.78-0.21-1.59-0.21h-1.06v-5.36h16.98v5.36c-1.22,0-2.05,0.08-2.5,0.26c-0.59,0.24-1.56,0.85-2.92,1.83l-5.4,3.93
		l7.68,8.93c0.77,0.93,1.41,1.5,1.9,1.72c0.49,0.22,1.45,0.33,2.9,0.34v5.36h-17.23v-5.36h0.96c0.69,0,1.15-0.06,1.37-0.19
		c0.23-0.14,0.34-0.3,0.34-0.5c0-0.26-0.3-0.77-0.89-1.56l-3.19-4.08l-3.48,2.59v1.49c0,0.72,0.06,1.19,0.16,1.44
		c0.11,0.26,0.3,0.45,0.57,0.61c0.27,0.14,0.69,0.22,1.27,0.22h0.97v5.36h-15.96v-5.36c0.56-0.02,0.99-0.02,1.28-0.02
		c1.04,0,1.7-0.07,2-0.22c0.29-0.14,0.51-0.38,0.64-0.7c0.1-0.24,0.14-1.05,0.14-2.42v-24.35h-4.06v-5.43
		c3.15-0.14,6.58-0.91,10.29-2.31H482.28z"/>
	<path d="M538.15,279v15.43c1.83-1.1,3.45-1.89,4.86-2.35c1.4-0.45,2.77-0.68,4.09-0.68c1.76,0,3.33,0.38,4.71,1.13
		c1.38,0.75,2.39,1.69,3.04,2.82c0.64,1.14,0.97,2.64,0.97,4.53v11.59c0,1.13,0.04,1.82,0.14,2.06c0.14,0.35,0.42,0.61,0.83,0.77
		c0.24,0.1,0.9,0.14,1.97,0.14h1.31v5.36H543.7v-5.36h0.83c0.79,0,1.35-0.07,1.64-0.22c0.29-0.16,0.5-0.36,0.61-0.63
		c0.1-0.26,0.16-0.93,0.16-1.96v-9.58c0-1.26-0.08-2.1-0.23-2.51c-0.16-0.42-0.45-0.77-0.85-1.03c-0.41-0.27-0.92-0.4-1.52-0.4
		c-0.87,0-1.78,0.18-2.73,0.52c-0.96,0.36-2.11,1.01-3.48,1.95v11.06c0,1.06,0.06,1.72,0.16,1.98c0.11,0.26,0.32,0.45,0.63,0.61
		c0.31,0.14,0.9,0.22,1.76,0.22h0.61v5.36h-16.14v-5.36h1.55c0.91,0,1.48-0.06,1.74-0.18c0.26-0.12,0.44-0.33,0.57-0.61
		c0.13-0.29,0.2-0.86,0.2-1.71v-25.21h-4.05v-5.37c1.53-0.09,3.26-0.35,5.18-0.78c1.91-0.44,3.64-0.96,5.18-1.58H538.15z"/>
	<path d="M586.99,309.51l3.81,3.85c-2.19,2.5-4.41,4.3-6.68,5.43c-2.27,1.11-4.72,1.68-7.35,1.68c-4.22,0-7.78-1.43-10.67-4.29
		c-2.9-2.86-4.34-6.32-4.34-10.38c0-2.67,0.65-5.11,1.95-7.33c1.3-2.21,3.1-3.95,5.39-5.2c2.3-1.25,4.9-1.88,7.81-1.88
		c1.85,0,3.54,0.27,5.06,0.81c1.52,0.53,2.85,1.31,3.99,2.31c1.14,1,2.05,2.21,2.75,3.63c0.69,1.41,1.17,2.88,1.43,4.4
		c0.11,0.77,0.17,1.96,0.17,3.62H571.6c0.04,2.35,0.72,4.25,2.07,5.7c1.34,1.47,2.98,2.19,4.93,2.19c1.24,0,2.59-0.38,4.06-1.13
		C584.12,312.18,585.57,311.04,586.99,309.51z M581.43,301.49c-0.12-1.12-0.39-2-0.78-2.63c-0.4-0.64-0.94-1.15-1.62-1.52
		c-0.67-0.38-1.39-0.57-2.13-0.57c-0.78,0-1.53,0.19-2.26,0.57c-0.72,0.39-1.31,0.92-1.74,1.59c-0.43,0.66-0.72,1.52-0.85,2.56
		H581.43z"/>
	<path d="M611.43,302.98v-2.06c0-1.22-0.1-2.07-0.3-2.52c-0.2-0.47-0.57-0.85-1.11-1.16c-0.54-0.3-1.2-0.46-2-0.46
		c-0.61,0-1.16,0.1-1.66,0.3c-0.51,0.21-0.9,0.46-1.2,0.78c-0.29,0.31-0.65,0.92-1.03,1.83c-0.5,1.15-1.11,1.98-1.79,2.47
		c-0.7,0.49-1.52,0.75-2.46,0.75c-1.19,0-2.16-0.38-2.93-1.11c-0.75-0.74-1.13-1.66-1.13-2.75c0-1.24,0.39-2.35,1.16-3.31
		c1.04-1.28,2.59-2.32,4.65-3.14c2.05-0.81,4.37-1.22,6.94-1.22c2.58,0,4.76,0.42,6.57,1.25c1.81,0.83,3.07,1.82,3.79,2.99
		c0.7,1.16,1.07,2.91,1.07,5.28v9.96c0,1.22,0.06,1.99,0.2,2.35c0.13,0.34,0.41,0.64,0.83,0.89c0.43,0.27,0.9,0.4,1.41,0.4
		c0.53,0,1.22-0.15,2.09-0.45v5.42c-1.57,0.5-3.08,0.75-4.53,0.75c-1.7,0-3.16-0.27-4.36-0.83c-1.2-0.57-2.22-1.39-3.03-2.51
		c-1.86,1.2-3.54,2.07-5.04,2.57c-1.51,0.52-2.97,0.77-4.38,0.77c-2.66,0-4.79-0.74-6.42-2.23c-1.63-1.5-2.44-3.34-2.44-5.52
		c0-1.24,0.28-2.38,0.85-3.42c0.57-1.04,1.41-1.94,2.53-2.72c1.12-0.78,2.84-1.47,5.2-2.07
		C605.24,303.68,608.08,303.25,611.43,302.98z M611.43,307.6c-2.43,0.35-4.14,0.71-5.14,1.07c-1,0.36-1.72,0.81-2.14,1.36
		c-0.43,0.55-0.63,1.11-0.63,1.68c0,0.75,0.27,1.37,0.83,1.87c0.57,0.5,1.31,0.76,2.26,0.76c0.61,0,1.32-0.16,2.12-0.47
		c0.81-0.32,1.71-0.78,2.71-1.4V307.6z"/>
	<path d="M640.17,279v32.52c0,1.09,0.05,1.75,0.14,1.95c0.13,0.38,0.41,0.64,0.86,0.81c0.28,0.11,1.03,0.16,2.25,0.16h0.97v5.36
		h-17.21v-5.36h1.06c1.11,0,1.82-0.06,2.13-0.2c0.32-0.14,0.55-0.37,0.69-0.68c0.15-0.3,0.23-0.98,0.23-2.04v-24.79h-4.12v-5.37
		c3.32-0.22,6.74-1.01,10.29-2.36H640.17z"/>
	<path d="M658.7,282.53v9.54h8.95v5.91h-8.95v9.67c0,2.19,0.12,3.59,0.35,4.21c0.23,0.63,0.66,1.13,1.29,1.5
		c0.83,0.5,1.79,0.74,2.87,0.74c1.9,0,3.81-0.61,5.69-1.86v5.95c-1.61,0.76-3.06,1.29-4.37,1.6c-1.31,0.31-2.72,0.46-4.24,0.46
		c-1.73,0-3.25-0.22-4.57-0.65c-1.33-0.43-2.47-1.05-3.39-1.86c-0.94-0.81-1.59-1.67-1.96-2.58c-0.36-0.91-0.54-2.21-0.54-3.94
		v-13.23h-4.17v-5.33c1.49-0.49,2.76-1.17,3.81-2.07c1.05-0.91,1.9-1.98,2.55-3.24c0.63-1.27,1.08-2.86,1.32-4.81H658.7z"/>
	<path d="M684.9,279v15.43c1.83-1.1,3.46-1.89,4.86-2.35c1.41-0.45,2.77-0.68,4.09-0.68c1.76,0,3.33,0.38,4.71,1.13
		c1.38,0.75,2.39,1.69,3.04,2.82c0.64,1.14,0.97,2.64,0.97,4.53v11.59c0,1.13,0.04,1.82,0.14,2.06c0.14,0.35,0.43,0.61,0.84,0.77
		c0.24,0.1,0.9,0.14,1.97,0.14h1.31v5.36h-16.36v-5.36h0.83c0.79,0,1.35-0.07,1.64-0.22c0.3-0.16,0.51-0.36,0.62-0.63
		c0.11-0.26,0.16-0.93,0.16-1.96v-9.58c0-1.26-0.08-2.1-0.24-2.51c-0.16-0.42-0.44-0.77-0.84-1.03c-0.41-0.27-0.92-0.4-1.53-0.4
		c-0.87,0-1.78,0.18-2.72,0.52c-0.96,0.36-2.11,1.01-3.48,1.95v11.06c0,1.06,0.05,1.72,0.16,1.98c0.12,0.26,0.33,0.45,0.64,0.61
		c0.32,0.14,0.9,0.22,1.77,0.22h0.6v5.36h-16.14v-5.36h1.55c0.91,0,1.49-0.06,1.74-0.18c0.26-0.12,0.44-0.33,0.57-0.61
		c0.13-0.29,0.2-0.86,0.2-1.71v-25.21h-4.06v-5.37c1.54-0.09,3.26-0.35,5.18-0.78c1.91-0.44,3.64-0.96,5.18-1.58H684.9z"/>
	<path d="M749.26,292.07h3.64l2.25,7.72l-5.26,2.11c-1-1.61-2.26-2.88-3.77-3.8c-1.51-0.92-3-1.38-4.48-1.38
		c-0.99,0-1.72,0.18-2.2,0.5c-0.48,0.34-0.71,0.74-0.71,1.2c0,0.39,0.16,0.75,0.51,1.09c0.34,0.34,1.04,0.68,2.12,1.05l7.64,2.72
		c1.36,0.49,2.66,1.09,3.9,1.81c1.24,0.72,2.17,1.6,2.79,2.66c0.62,1.05,0.93,2.27,0.93,3.68c0,2.52-0.97,4.59-2.9,6.2
		c-2.25,1.88-5.07,2.83-8.44,2.83c-2.89,0-5.41-0.73-7.56-2.19l-0.78,1.52h-3.69l-3.42-9.11l5.24-2.22
		c1.32,2.05,2.94,3.66,4.87,4.84c1.93,1.18,3.69,1.76,5.3,1.76c1.01,0,1.85-0.23,2.53-0.69c0.52-0.38,0.78-0.81,0.78-1.31
		c0-0.43-0.2-0.84-0.61-1.23c-0.41-0.39-1.31-0.82-2.7-1.3l-6-2.08c-3.32-1.17-5.57-2.43-6.77-3.73c-1.2-1.33-1.79-2.9-1.79-4.72
		c0-2.33,0.93-4.3,2.8-5.9c2.13-1.81,4.77-2.72,7.9-2.72c2.77,0,5.16,0.62,7.14,1.89L749.26,292.07z"/>
	<path d="M775.47,291.4c3.17,0,5.93,0.62,8.28,1.87c2.35,1.24,4.17,2.93,5.43,5.07c1.27,2.14,1.9,4.64,1.9,7.52
		c0,4.33-1.41,7.85-4.23,10.56c-2.81,2.71-6.57,4.06-11.28,4.06c-4.8,0-8.61-1.36-11.45-4.08c-2.75-2.6-4.12-6.11-4.12-10.54
		c0-2.9,0.63-5.41,1.87-7.5c1.26-2.1,3.06-3.78,5.44-5.04C769.7,292.03,772.42,291.4,775.47,291.4z M775.58,297.49
		c-1.06,0-2.05,0.3-2.97,0.93c-0.93,0.64-1.65,1.56-2.16,2.79c-0.51,1.22-0.76,2.78-0.76,4.66c0,1.95,0.25,3.57,0.75,4.84
		c0.49,1.27,1.19,2.23,2.07,2.83c0.88,0.61,1.85,0.92,2.9,0.92c1.63,0,3.03-0.69,4.19-2.07c1.17-1.38,1.75-3.52,1.75-6.44
		c0-2.81-0.54-4.92-1.62-6.34C778.65,298.2,777.27,297.49,775.58,297.49z"/>
	<path d="M820.48,309.3l4.08,3.58c-2.19,2.66-4.45,4.58-6.81,5.78c-2.36,1.2-4.88,1.81-7.56,1.81c-4.3,0-7.89-1.4-10.77-4.2
		c-2.88-2.79-4.32-6.21-4.32-10.23c0-2.72,0.66-5.21,2.01-7.48c1.34-2.26,3.18-4.01,5.53-5.27c2.35-1.27,5.11-1.89,8.29-1.89
		c3.82,0,6.93,0.89,9.35,2.65c2.42,1.78,3.63,3.64,3.63,5.6c0,0.84-0.19,1.59-0.57,2.24c-0.38,0.66-0.96,1.19-1.74,1.6
		c-0.78,0.4-1.6,0.61-2.48,0.61c-0.7,0-1.33-0.14-1.88-0.42c-0.56-0.29-1.02-0.63-1.39-1.06c-0.16-0.19-0.49-0.76-0.97-1.72
		c-0.62-1.2-1.09-2-1.42-2.39c-0.33-0.4-0.73-0.69-1.19-0.91c-0.46-0.21-0.99-0.32-1.58-0.32c-0.97,0-1.88,0.31-2.76,0.93
		c-0.88,0.61-1.6,1.56-2.17,2.82c-0.56,1.26-0.84,2.67-0.84,4.23c0,1.71,0.33,3.24,1,4.6c0.66,1.36,1.56,2.4,2.68,3.1
		c1.13,0.7,2.36,1.06,3.71,1.06c1.29,0,2.61-0.36,3.92-1.06C817.54,312.26,818.96,311.04,820.48,309.3z"/>
	<path d="M840.98,291.4v20.54c0,0.98,0.05,1.58,0.16,1.8c0.11,0.22,0.31,0.4,0.6,0.52c0.28,0.12,0.93,0.18,1.93,0.18h1.5v5.36
		h-17.18v-5.36h1.48c0.95,0,1.57-0.05,1.85-0.15c0.27-0.1,0.47-0.28,0.59-0.52c0.13-0.24,0.19-0.73,0.19-1.44v-13.26h-4.11v-5.23
		c1.46-0.07,2.87-0.22,4.21-0.47c1.34-0.24,2.55-0.53,3.6-0.86c0.68-0.22,1.52-0.58,2.53-1.11H840.98z M836.47,279
		c1.41,0,2.62,0.49,3.6,1.49c0.99,1,1.49,2.19,1.49,3.6c0,1.43-0.5,2.63-1.49,3.63c-0.99,0.99-2.19,1.48-3.6,1.48
		c-1.4,0-2.6-0.49-3.6-1.48c-0.99-1-1.49-2.19-1.49-3.6c0-1.39,0.52-2.59,1.53-3.61C833.93,279.51,835.12,279,836.47,279z"/>
	<path d="M872.59,309.51l3.81,3.85c-2.19,2.5-4.41,4.3-6.69,5.43c-2.26,1.11-4.71,1.68-7.35,1.68c-4.23,0-7.78-1.43-10.67-4.29
		c-2.89-2.86-4.34-6.32-4.34-10.38c0-2.67,0.65-5.11,1.96-7.33c1.29-2.21,3.09-3.95,5.39-5.2c2.3-1.25,4.9-1.88,7.81-1.88
		c1.85,0,3.53,0.27,5.05,0.81c1.52,0.53,2.85,1.31,3.99,2.31c1.14,1,2.05,2.21,2.75,3.63c0.69,1.41,1.17,2.88,1.43,4.4
		c0.11,0.77,0.17,1.96,0.17,3.62h-18.71c0.04,2.35,0.73,4.25,2.07,5.7c1.34,1.47,2.98,2.19,4.94,2.19c1.23,0,2.59-0.38,4.05-1.13
		C869.72,312.18,871.16,311.04,872.59,309.51z M867.03,301.49c-0.13-1.12-0.4-2-0.79-2.63c-0.4-0.64-0.94-1.15-1.62-1.52
		c-0.67-0.38-1.39-0.57-2.13-0.57c-0.77,0-1.53,0.19-2.26,0.57c-0.72,0.39-1.31,0.92-1.74,1.59c-0.44,0.66-0.73,1.52-0.85,2.56
		H867.03z"/>
	<path d="M892,282.53v9.54h8.95v5.91H892v9.67c0,2.19,0.12,3.59,0.36,4.21c0.22,0.63,0.66,1.13,1.28,1.5
		c0.83,0.5,1.79,0.74,2.87,0.74c1.9,0,3.81-0.61,5.69-1.86v5.95c-1.61,0.76-3.07,1.29-4.37,1.6c-1.31,0.31-2.72,0.46-4.24,0.46
		c-1.73,0-3.25-0.22-4.57-0.65c-1.33-0.43-2.46-1.05-3.4-1.86c-0.94-0.81-1.59-1.67-1.95-2.58c-0.36-0.91-0.54-2.21-0.54-3.94
		v-13.23h-4.17v-5.33c1.49-0.49,2.76-1.17,3.81-2.07c1.05-0.91,1.9-1.98,2.55-3.24c0.63-1.27,1.08-2.86,1.32-4.81H892z"/>
	<path d="M904.58,292.07h17.34v5.36h-1.15c-1.04,0-1.69,0.06-1.97,0.21c-0.26,0.14-0.4,0.34-0.4,0.6c0,0.22,0.19,0.81,0.58,1.76
		l4.17,10.05l4.37-10.05c0.34-0.77,0.51-1.31,0.51-1.64c0-0.3-0.15-0.52-0.42-0.69c-0.28-0.16-0.92-0.23-1.92-0.23h-1.58v-5.36
		h15.01v5.36c-1.33,0.02-2.11,0.06-2.32,0.14c-0.32,0.07-0.58,0.22-0.79,0.42c-0.2,0.21-0.54,0.77-1.01,1.7l-12.57,25.76
		c-1.31,2.68-2.74,4.57-4.31,5.64c-1.58,1.08-3.45,1.61-5.61,1.61c-2.11,0-3.83-0.56-5.14-1.68c-1.3-1.13-1.96-2.39-1.96-3.79
		c0-1.12,0.39-2.08,1.17-2.88c0.78-0.81,1.71-1.21,2.8-1.21c0.74,0,1.46,0.18,2.17,0.56c0.47,0.24,0.93,0.65,1.41,1.22
		c0.3,0.38,0.54,0.61,0.72,0.71c0.17,0.1,0.35,0.16,0.52,0.16c0.38,0,0.76-0.19,1.13-0.57c0.56-0.57,1.19-1.61,1.89-3.14l1.06-2.28
		l-9.45-19.81c-0.47-1.01-0.82-1.63-1.07-1.88c-0.25-0.27-0.53-0.45-0.85-0.53c-0.32-0.1-1.1-0.14-2.36-0.14V292.07z"/>
	<path d="M372.03,371.3l4.92,1.69c0.52,0.19,1.42,0.59,2.73,1.21c1.29,0.61,2.21,1.17,2.75,1.66c0.68,0.61,1.23,1.34,1.62,2.19
		c0.4,0.86,0.6,1.72,0.6,2.59c0,1.36-0.46,2.67-1.37,3.96c-0.92,1.27-2.26,2.28-4.03,3.03c-1.77,0.75-3.95,1.13-6.54,1.13
		c-2.82,0-5.35-0.41-7.59-1.23c-2.24-0.82-3.87-1.82-4.89-2.98c-1.02-1.16-1.53-2.21-1.53-3.16c0-0.63,0.22-1.17,0.66-1.58
		c0.43-0.43,0.98-0.64,1.64-0.64c0.41,0,0.79,0.08,1.13,0.22c0.34,0.16,0.69,0.42,1.04,0.79c0.24,0.26,0.64,0.85,1.17,1.78
		c0.48,0.81,0.8,1.29,0.95,1.47c0.43,0.5,1.01,0.98,1.72,1.45c0.72,0.45,1.54,0.81,2.43,1.03c0.9,0.23,1.95,0.36,3.16,0.36
		c1.74,0,3.19-0.22,4.35-0.66c1.16-0.43,2.02-1.01,2.59-1.73c0.56-0.73,0.85-1.46,0.85-2.2c0-1.05-0.51-1.98-1.56-2.81
		c-1.04-0.82-2.55-1.52-4.52-2.12c-0.17-0.06-0.35-0.11-0.53-0.19l-3.89-1.36c-2.37-0.83-4.08-1.86-5.12-3.08
		c-1.05-1.2-1.58-2.53-1.58-3.97c0-1.26,0.43-2.48,1.28-3.67c0.85-1.18,2.12-2.12,3.77-2.81c1.66-0.71,3.71-1.05,6.16-1.05
		c3.74,0,6.82,0.76,9.22,2.25c1.8,1.13,2.7,2.41,2.7,3.84c0,0.63-0.22,1.17-0.64,1.61c-0.43,0.46-0.95,0.66-1.58,0.66
		c-0.59,0-1.16-0.21-1.69-0.64c-0.37-0.3-0.92-0.96-1.64-1.98c-0.74-1.05-1.65-1.85-2.71-2.38c-1.07-0.53-2.38-0.78-3.94-0.78
		c-2.1,0-3.74,0.42-4.9,1.23c-1.16,0.81-1.73,1.73-1.73,2.76c0,0.81,0.31,1.55,0.94,2.2C369.02,370.06,370.24,370.69,372.03,371.3z"
		/>
	<path d="M401.46,360.61l-4.95,21.66c-0.22,0.8-0.33,1.43-0.33,1.88c0,0.55,0.13,0.97,0.4,1.28c0.27,0.31,0.6,0.47,1,0.47
		c0.47,0,0.92-0.18,1.35-0.55c0.67-0.56,1.51-1.56,2.54-3.03l1.78,1.56c-0.98,1.48-2.12,2.63-3.41,3.46
		c-1.29,0.81-2.51,1.23-3.65,1.23c-1.24,0-2.29-0.44-3.13-1.32c-0.85-0.88-1.27-1.9-1.27-3.08c0-0.81,0.15-1.83,0.48-3.08
		l3.62-15.95h-6.3l0.55-2.34c1.54-0.07,2.96-0.26,4.25-0.57c1.29-0.31,2.86-0.85,4.71-1.63H401.46z M400.94,347.33
		c0.8,0,1.46,0.27,1.99,0.79c0.52,0.53,0.79,1.21,0.79,2.07c0,0.97-0.34,1.8-1.01,2.5c-0.67,0.69-1.46,1.03-2.34,1.03
		c-0.82,0-1.51-0.28-2.09-0.84c-0.57-0.57-0.86-1.24-0.86-2.04c0-0.95,0.36-1.76,1.06-2.47C399.17,347.68,400,347.33,400.94,347.33z
		"/>
	<path d="M412.11,365.26h-5.19l0.61-2.35c1.82-0.24,3.29-0.53,4.44-0.88c1.13-0.36,2.27-0.83,3.4-1.43h2.05l-1.4,6.46
		c0.95-1.54,1.95-2.76,3-3.66c1.04-0.9,2.2-1.6,3.47-2.07c1.27-0.49,2.54-0.73,3.84-0.73c1.74,0,3.17,0.53,4.28,1.56
		c1.11,1.03,1.66,2.25,1.66,3.63c0,0.23-0.02,0.56-0.08,1.01c0.91-1.45,1.9-2.61,2.95-3.5c1.04-0.88,2.18-1.56,3.41-2.01
		c1.22-0.46,2.47-0.7,3.74-0.7c1.74,0,3.2,0.57,4.38,1.68c1.17,1.11,1.77,2.38,1.77,3.79c0,0.81-0.1,1.68-0.31,2.59l-2.88,12.66
		c-0.34,1.49-0.51,2.47-0.51,2.94c0,0.43,0.17,0.81,0.51,1.1c0.34,0.3,0.76,0.45,1.29,0.45c0.71,0,1.37-0.21,1.98-0.63
		c0.61-0.42,1.63-1.4,3.05-2.95l1.78,1.51c-1.41,1.76-2.76,2.99-4.07,3.73c-1.3,0.73-2.65,1.09-4.01,1.09
		c-1.47,0-2.66-0.42-3.58-1.28c-0.92-0.86-1.37-1.88-1.37-3.05c0-0.76,0.13-1.73,0.4-2.91l2.88-12.65c0.22-0.97,0.33-1.72,0.33-2.26
		c0-0.79-0.27-1.45-0.82-1.97c-0.54-0.52-1.21-0.77-2-0.77c-1.01,0-1.98,0.25-2.89,0.75c-1.28,0.69-2.49,1.74-3.63,3.16
		c-1.13,1.43-2.08,3.06-2.83,4.89c-1.05,2.6-1.94,5.6-2.64,9.01c-0.06,0.3-0.16,0.71-0.28,1.24l-1.35,5.38h-4.42l4.41-19.42
		c0.15-0.64,0.22-1.42,0.22-2.35c0-0.79-0.26-1.44-0.79-1.94c-0.52-0.48-1.19-0.73-2.01-0.73c-1.1,0-2.27,0.37-3.49,1.12
		c-1.22,0.75-2.36,1.84-3.41,3.28c-1.05,1.44-1.98,3.33-2.81,5.65c-0.82,2.32-1.44,4.41-1.84,6.3l-1.82,8.08h-4.59L412.11,365.26z"
		/>
	<path d="M466.76,360.61l-2.01,8.66c1.44-2.11,2.89-3.77,4.36-5.01c1.46-1.21,2.96-2.13,4.51-2.74c1.54-0.6,3.07-0.91,4.57-0.91
		c2.56,0,4.64,0.86,6.27,2.55c1.63,1.7,2.44,4.03,2.44,7c0,3.22-0.82,6.31-2.46,9.3c-1.64,2.97-3.81,5.27-6.51,6.88
		c-2.7,1.64-5.46,2.43-8.27,2.43c-3.26,0-6.02-1.08-8.27-3.26l-2,8.2c-0.2,0.93-0.3,1.7-0.3,2.27c0,0.45,0.11,0.84,0.34,1.17
		c0.23,0.33,0.58,0.57,1.06,0.76c0.47,0.18,1.18,0.26,2.12,0.26h1.73l-0.5,2.33h-15.63l0.53-2.33c1.33,0.02,2.26-0.02,2.77-0.14
		c0.71-0.12,1.26-0.36,1.66-0.68c0.4-0.32,0.75-0.81,1.04-1.43c0.23-0.45,0.47-1.23,0.72-2.37l6.44-28.32h-3.92l0.47-2.33
		c2.34-0.21,4.67-0.96,6.98-2.28H466.76z M461.92,382.92c1.09,1.03,2.25,1.81,3.51,2.35c1.26,0.53,2.45,0.8,3.58,0.8
		c1.89,0,3.8-0.65,5.75-1.96c1.93-1.31,3.59-3.35,4.99-6.12c1.39-2.77,2.08-5.54,2.08-8.3c0-1.79-0.46-3.22-1.39-4.27
		c-0.92-1.04-2.07-1.56-3.46-1.56c-1.24,0-2.52,0.32-3.83,0.96c-1.31,0.64-2.77,1.82-4.38,3.58c-1.62,1.75-3,3.78-4.14,6.11
		C463.49,376.85,462.58,379.66,461.92,382.92z"/>
	<path d="M504.12,347.33l-8.07,34.23c-0.29,1.26-0.43,2.1-0.43,2.51c0,0.56,0.14,1.01,0.41,1.3c0.27,0.32,0.63,0.47,1.09,0.47
		c0.58,0,1.1-0.18,1.58-0.53c0.74-0.56,1.67-1.57,2.79-3.03l1.8,1.52c-2.44,3.18-4.95,4.76-7.53,4.76c-1.38,0-2.48-0.41-3.31-1.24
		c-0.83-0.85-1.24-1.88-1.24-3.15c0-0.83,0.1-1.7,0.32-2.6l6.99-29.57h-6.37l0.56-2.34c2.13-0.29,3.83-0.61,5.09-0.94
		c1.26-0.34,2.57-0.79,3.94-1.39H504.12z"/>
	<path d="M530.89,361.28h4.53l-5.74,25.53c-0.42,1.75-0.72,2.94-0.93,3.57c-0.55,1.6-1.24,3.04-2.1,4.3
		c-0.85,1.27-1.96,2.4-3.34,3.42c-1.37,1.04-2.9,1.8-4.56,2.33c-1.67,0.53-3.51,0.79-5.51,0.79c-3,0-5.38-0.61-7.15-1.82
		c-1.78-1.21-2.66-2.5-2.66-3.83c0-0.57,0.23-1.1,0.71-1.59c0.47-0.5,0.97-0.74,1.52-0.74c0.6,0,1.19,0.19,1.75,0.56
		c0.56,0.37,1.18,1.06,1.86,2.06c0.59,0.86,1.18,1.47,1.78,1.8c0.94,0.56,1.98,0.84,3.1,0.84c1.75,0,3.41-0.48,4.96-1.42
		c1.56-0.94,2.8-2.24,3.72-3.87c0.92-1.64,1.68-3.78,2.28-6.46l1.51-6.26c-1.16,1.89-2.41,3.45-3.74,4.66
		c-1.34,1.21-2.73,2.11-4.16,2.72c-1.44,0.6-2.82,0.89-4.16,0.89c-2,0-3.55-0.55-4.65-1.65c-1.1-1.1-1.64-2.31-1.64-3.65
		c0-0.98,0.12-1.97,0.36-2.97l3.77-15.18h-6.55l0.62-2.39c1.44-0.11,2.72-0.31,3.84-0.6c1.13-0.29,2.67-0.86,4.63-1.71h3.11
		l-4.96,20.08c-0.25,1.06-0.37,1.88-0.37,2.47c0,0.73,0.28,1.34,0.84,1.85c0.57,0.53,1.26,0.78,2.07,0.78
		c1.25,0,2.47-0.36,3.66-1.09c1.72-1.05,3.24-2.47,4.57-4.25c1.34-1.79,2.54-4.02,3.6-6.73c0.85-2.04,1.62-4.51,2.27-7.4
		L530.89,361.28z"/>
	<path d="M568.39,347.33l-4.89,21.74c0.96-1.52,1.87-2.75,2.71-3.64c1.56-1.64,3.16-2.84,4.75-3.63c1.61-0.8,3.22-1.19,4.85-1.19
		c2.38,0,4.37,0.86,5.97,2.55c1.6,1.72,2.39,3.89,2.39,6.54c0,3.3-0.83,6.5-2.46,9.6c-1.64,3.11-3.7,5.46-6.2,7.07
		c-2.5,1.6-5.14,2.39-7.92,2.39c-1.54,0-2.93-0.24-4.19-0.75c-1.26-0.49-2.59-1.36-4-2.61l-1.28,2.7h-3.44l8.2-36.1h-5.31l0.56-2.34
		c2.85-0.26,5.55-1.04,8.06-2.33H568.39z M560.34,383.15c1.01,0.97,2.04,1.69,3.12,2.19c1.07,0.49,2.17,0.73,3.31,0.73
		c1.88,0,3.73-0.65,5.53-1.96c1.81-1.31,3.38-3.34,4.71-6.08c1.33-2.74,2-5.43,2-8.03c0-1.34-0.22-2.54-0.67-3.62
		c-0.31-0.75-0.83-1.35-1.56-1.82c-0.73-0.47-1.51-0.7-2.34-0.7c-1.78,0-3.54,0.73-5.31,2.19c-2.38,1.99-4.39,4.72-6.02,8.2
		C562.03,376.54,561.11,379.5,560.34,383.15z"/>
	<path d="M611.81,380.77l1.55,1.77c-2.33,2.07-4.76,3.62-7.28,4.66c-2.52,1.05-4.98,1.56-7.39,1.56c-3.25,0-5.86-0.99-7.84-2.98
		c-1.98-1.99-2.97-4.64-2.97-7.93c0-2.94,0.82-5.75,2.45-8.41c1.64-2.65,3.93-4.79,6.87-6.4c2.93-1.61,6.08-2.43,9.43-2.43
		c2.67,0,4.76,0.61,6.25,1.84c1.5,1.23,2.26,2.67,2.26,4.34c0,0.97-0.33,2.01-0.99,3.1c-0.66,1.09-1.77,2.09-3.32,3.02
		c-1.56,0.93-3.81,1.69-6.76,2.3c-2.95,0.62-6.56,1.04-10.86,1.26c-0.1,0.73-0.14,1.27-0.14,1.64c0,1.47,0.31,2.77,0.93,3.92
		c0.62,1.15,1.5,2.07,2.64,2.74c1.14,0.68,2.33,1.01,3.57,1.01c1.58,0,3.42-0.42,5.52-1.27
		C607.83,383.63,609.85,382.39,611.81,380.77z M593.54,374.25c4.21-0.45,7.25-0.92,9.15-1.36c3.04-0.73,5.11-1.6,6.22-2.63
		c1.11-1.03,1.66-2.16,1.66-3.38c0-1.05-0.4-1.91-1.23-2.63c-0.82-0.7-2-1.06-3.51-1.06c-1.59,0-3.28,0.48-5.06,1.43
		c-1.78,0.95-3.28,2.23-4.52,3.87C594.99,370.13,594.09,372.04,593.54,374.25z"/>
	<path d="M631.64,351.89l-2.12,9.39h6.08l-0.54,2.83h-6.18l-3.67,16.26c-0.32,1.44-0.48,2.46-0.48,3.06c0,0.72,0.18,1.28,0.55,1.69
		c0.38,0.42,0.85,0.62,1.44,0.62c0.42,0,0.86-0.09,1.28-0.27c0.57-0.26,1.14-0.64,1.71-1.16c0.3-0.29,1.03-1.13,2.21-2.56l1.86,1.55
		c-1.64,2.12-3.09,3.56-4.35,4.32c-1.26,0.76-2.56,1.13-3.9,1.13c-1.52,0-2.78-0.49-3.76-1.48c-0.99-1-1.49-2.16-1.49-3.53
		c0-0.86,0.12-1.82,0.36-2.86l3.81-16.79h-6.4l0.56-2.13c1.87-0.42,3.38-1,4.54-1.71c1.16-0.69,2.27-1.71,3.33-3.03
		c1.06-1.33,2.07-3.11,3.06-5.35H631.64z"/>
	<path d="M651.79,351.89l-2.12,9.39h6.08l-0.54,2.83h-6.18l-3.67,16.26c-0.32,1.44-0.48,2.46-0.48,3.06c0,0.72,0.19,1.28,0.55,1.69
		c0.38,0.42,0.86,0.62,1.44,0.62c0.43,0,0.86-0.09,1.29-0.27c0.57-0.26,1.14-0.64,1.71-1.16c0.29-0.29,1.03-1.13,2.21-2.56
		l1.86,1.55c-1.64,2.12-3.09,3.56-4.35,4.32c-1.26,0.76-2.57,1.13-3.89,1.13c-1.52,0-2.78-0.49-3.77-1.48
		c-0.99-1-1.49-2.16-1.49-3.53c0-0.86,0.12-1.82,0.36-2.86l3.81-16.79h-6.4l0.56-2.13c1.86-0.42,3.37-1,4.54-1.71
		c1.16-0.69,2.27-1.71,3.33-3.03c1.06-1.33,2.07-3.11,3.06-5.35H651.79z"/>
	<path d="M681.78,380.77l1.56,1.77c-2.33,2.07-4.76,3.62-7.29,4.66c-2.53,1.05-4.98,1.56-7.39,1.56c-3.24,0-5.86-0.99-7.83-2.98
		c-1.98-1.99-2.97-4.64-2.97-7.93c0-2.94,0.82-5.75,2.46-8.41c1.64-2.65,3.92-4.79,6.86-6.4c2.93-1.61,6.08-2.43,9.43-2.43
		c2.67,0,4.76,0.61,6.25,1.84c1.5,1.23,2.26,2.67,2.26,4.34c0,0.97-0.33,2.01-0.99,3.1c-0.66,1.09-1.77,2.09-3.32,3.02
		c-1.56,0.93-3.81,1.69-6.76,2.3c-2.94,0.62-6.56,1.04-10.86,1.26c-0.1,0.73-0.15,1.27-0.15,1.64c0,1.47,0.31,2.77,0.93,3.92
		c0.62,1.15,1.51,2.07,2.65,2.74c1.14,0.68,2.33,1.01,3.57,1.01c1.58,0,3.42-0.42,5.52-1.27S679.84,382.39,681.78,380.77z
		 M663.52,374.25c4.21-0.45,7.26-0.92,9.14-1.36c3.04-0.73,5.12-1.6,6.23-2.63c1.11-1.03,1.66-2.16,1.66-3.38
		c0-1.05-0.41-1.91-1.24-2.63c-0.82-0.7-2-1.06-3.51-1.06c-1.59,0-3.28,0.48-5.06,1.43c-1.78,0.95-3.28,2.23-4.52,3.87
		C664.98,370.13,664.08,372.04,663.52,374.25z"/>
	<path d="M699.88,360.61l-2.05,8.73c1.08-2,2.24-3.65,3.51-4.97c1.26-1.32,2.56-2.32,3.89-3c0.96-0.51,1.94-0.76,2.91-0.76
		c0.98,0,1.78,0.29,2.39,0.85c0.62,0.57,0.93,1.25,0.93,2.07c0,0.69-0.26,1.32-0.76,1.87c-0.51,0.54-1.05,0.81-1.63,0.81
		c-0.39,0-0.93-0.12-1.64-0.37c-0.72-0.28-1.29-0.41-1.72-0.41c-1.56,0-3.2,1.14-4.92,3.44c-2.35,3.11-4.28,7.86-5.75,14.23
		l-1.19,5.01h-4.52l5.19-22.88h-5.19l0.55-2.27c1.73-0.23,3.18-0.51,4.35-0.85s2.37-0.84,3.6-1.49H699.88z"/>
	<path d="M740.16,347.33l-4.88,21.74c0.96-1.52,1.87-2.75,2.71-3.64c1.57-1.64,3.16-2.84,4.76-3.63c1.61-0.8,3.22-1.19,4.85-1.19
		c2.38,0,4.37,0.86,5.96,2.55c1.6,1.72,2.39,3.89,2.39,6.54c0,3.3-0.82,6.5-2.45,9.6c-1.64,3.11-3.71,5.46-6.21,7.07
		c-2.5,1.6-5.13,2.39-7.91,2.39c-1.53,0-2.93-0.24-4.19-0.75c-1.26-0.49-2.59-1.36-4-2.61l-1.28,2.7h-3.44l8.2-36.1h-5.31l0.56-2.34
		c2.85-0.26,5.55-1.04,8.07-2.33H740.16z M732.11,383.15c1,0.97,2.04,1.69,3.11,2.19c1.08,0.49,2.17,0.73,3.31,0.73
		c1.88,0,3.72-0.65,5.53-1.96c1.81-1.31,3.38-3.34,4.71-6.08c1.34-2.74,2-5.43,2-8.03c0-1.34-0.22-2.54-0.66-3.62
		c-0.32-0.75-0.84-1.35-1.57-1.82c-0.73-0.47-1.51-0.7-2.34-0.7c-1.78,0-3.54,0.73-5.31,2.19c-2.38,1.99-4.39,4.72-6.01,8.2
		C733.81,376.54,732.88,379.5,732.11,383.15z"/>
	<path d="M783.58,380.77l1.55,1.77c-2.33,2.07-4.75,3.62-7.28,4.66c-2.52,1.05-4.98,1.56-7.39,1.56c-3.24,0-5.86-0.99-7.83-2.98
		c-1.98-1.99-2.97-4.64-2.97-7.93c0-2.94,0.82-5.75,2.46-8.41c1.64-2.65,3.92-4.79,6.86-6.4c2.94-1.61,6.08-2.43,9.44-2.43
		c2.67,0,4.76,0.61,6.25,1.84c1.5,1.23,2.26,2.67,2.26,4.34c0,0.97-0.33,2.01-0.99,3.1c-0.66,1.09-1.77,2.09-3.32,3.02
		c-1.56,0.93-3.81,1.69-6.76,2.3c-2.95,0.62-6.57,1.04-10.86,1.26c-0.1,0.73-0.14,1.27-0.14,1.64c0,1.47,0.31,2.77,0.93,3.92
		c0.61,1.15,1.5,2.07,2.64,2.74c1.14,0.68,2.33,1.01,3.57,1.01c1.57,0,3.41-0.42,5.51-1.27
		C779.61,383.63,781.62,382.39,783.58,380.77z M765.31,374.25c4.21-0.45,7.25-0.92,9.14-1.36c3.04-0.73,5.12-1.6,6.23-2.63
		c1.11-1.03,1.66-2.16,1.66-3.38c0-1.05-0.41-1.91-1.24-2.63c-0.81-0.7-1.99-1.06-3.51-1.06c-1.6,0-3.28,0.48-5.06,1.43
		c-1.78,0.95-3.28,2.23-4.52,3.87C766.77,370.13,765.87,372.04,765.31,374.25z"/>
	<path d="M801.6,360.61l-1.99,8.74c0.89-1.52,1.75-2.73,2.57-3.61c1.58-1.72,3.19-3.01,4.83-3.85c1.64-0.85,3.24-1.28,4.78-1.28
		c1.2,0,2.27,0.25,3.17,0.74c0.9,0.49,1.63,1.19,2.17,2.09c0.54,0.91,0.81,1.83,0.81,2.76c0,0.78-0.17,1.93-0.51,3.41l-2.74,11.83
		c-0.3,1.29-0.44,2.16-0.44,2.59c0,0.5,0.17,0.91,0.51,1.24c0.35,0.3,0.77,0.47,1.28,0.47c1.31,0,3-1.23,5.06-3.69l1.74,1.64
		c-1.63,1.88-3.05,3.18-4.27,3.86c-1.21,0.69-2.49,1.03-3.8,1.03c-1,0-1.86-0.19-2.59-0.58c-0.74-0.38-1.32-0.95-1.74-1.68
		c-0.43-0.73-0.64-1.5-0.64-2.32c0-0.73,0.13-1.64,0.38-2.8l2.8-12.31c0.24-1.05,0.36-1.87,0.36-2.45c0-0.81-0.26-1.45-0.77-1.92
		c-0.51-0.48-1.2-0.71-2.05-0.71c-0.98,0-2,0.27-3.08,0.81c-1.08,0.53-2.23,1.43-3.44,2.67c-1.21,1.24-2.32,2.79-3.33,4.61
		c-1,1.84-1.92,4.03-2.75,6.57c-0.41,1.16-0.87,2.91-1.38,5.24l-0.95,4.42h-4.59l5.21-22.89h-5.21l0.57-2.29
		c1.78-0.25,3.19-0.53,4.19-0.82c1.01-0.3,2.28-0.79,3.83-1.48H801.6z"/>
	<path d="M849.31,380.77l1.56,1.77c-2.33,2.07-4.76,3.62-7.28,4.66c-2.52,1.05-4.98,1.56-7.39,1.56c-3.24,0-5.86-0.99-7.83-2.98
		c-1.99-1.99-2.97-4.64-2.97-7.93c0-2.94,0.82-5.75,2.46-8.41c1.64-2.65,3.92-4.79,6.86-6.4c2.94-1.61,6.09-2.43,9.44-2.43
		c2.67,0,4.76,0.61,6.25,1.84c1.5,1.23,2.25,2.67,2.25,4.34c0,0.97-0.33,2.01-0.99,3.1c-0.66,1.09-1.77,2.09-3.32,3.02
		c-1.56,0.93-3.81,1.69-6.76,2.3c-2.95,0.62-6.56,1.04-10.86,1.26c-0.1,0.73-0.15,1.27-0.15,1.64c0,1.47,0.32,2.77,0.93,3.92
		c0.62,1.15,1.5,2.07,2.64,2.74c1.14,0.68,2.33,1.01,3.57,1.01c1.58,0,3.41-0.42,5.52-1.27
		C845.34,383.63,847.36,382.39,849.31,380.77z M831.04,374.25c4.21-0.45,7.26-0.92,9.15-1.36c3.04-0.73,5.12-1.6,6.23-2.63
		c1.11-1.03,1.66-2.16,1.66-3.38c0-1.05-0.41-1.91-1.24-2.63c-0.82-0.7-1.99-1.06-3.51-1.06c-1.59,0-3.28,0.48-5.07,1.43
		c-1.77,0.95-3.28,2.23-4.52,3.87C832.5,370.13,831.6,372.04,831.04,374.25z"/>
	<path d="M874.34,361.28l-0.67,2.89h-6.56l-5.45,23.56c-0.49,2.19-1.2,4.38-2.13,6.58c-0.93,2.19-2.25,3.9-3.98,5.11
		c-1.73,1.2-3.6,1.8-5.64,1.8c-1.66,0-2.98-0.36-3.96-1.08c-0.99-0.73-1.47-1.52-1.47-2.4c0-0.61,0.22-1.13,0.65-1.56
		c0.44-0.44,0.99-0.65,1.62-0.65c0.75,0,1.58,0.41,2.48,1.22c0.63,0.57,1.11,0.94,1.42,1.11c0.31,0.17,0.62,0.25,0.94,0.25
		c1.07,0,2.01-0.48,2.82-1.44c0.82-0.97,1.57-3.02,2.24-6.17l5.98-26.32h-4.86l0.58-2.89h4.94l0.63-2.74
		c0.88-3.95,2.31-6.81,4.29-8.57c1.99-1.76,4.51-2.63,7.58-2.63c2.07,0,3.7,0.42,4.86,1.29c1.17,0.85,1.75,1.8,1.75,2.82
		c0,0.61-0.24,1.15-0.72,1.61c-0.48,0.46-1.04,0.69-1.68,0.69c-0.45,0-0.86-0.1-1.22-0.3c-0.47-0.26-1.01-0.73-1.62-1.4
		c-0.68-0.78-1.25-1.29-1.7-1.56c-0.46-0.26-0.93-0.39-1.42-0.39c-0.63,0-1.24,0.18-1.83,0.53c-0.59,0.34-1.1,0.85-1.52,1.5
		c-0.42,0.65-0.89,1.7-1.42,3.13c-0.25,0.69-0.51,1.64-0.77,2.86l-0.73,3.15H874.34z"/>
	<path d="M889.1,360.61l-4.95,21.66c-0.22,0.8-0.33,1.43-0.33,1.88c0,0.55,0.13,0.97,0.4,1.28c0.26,0.31,0.6,0.47,0.99,0.47
		c0.47,0,0.93-0.18,1.35-0.55c0.66-0.56,1.51-1.56,2.54-3.03l1.78,1.56c-0.98,1.48-2.12,2.63-3.4,3.46
		c-1.29,0.81-2.51,1.23-3.66,1.23c-1.24,0-2.29-0.44-3.13-1.32c-0.85-0.88-1.27-1.9-1.27-3.08c0-0.81,0.15-1.83,0.47-3.08
		l3.62-15.95h-6.3l0.55-2.34c1.54-0.07,2.96-0.26,4.25-0.57c1.3-0.31,2.86-0.85,4.71-1.63H889.1z M888.58,347.33
		c0.8,0,1.46,0.27,2,0.79c0.52,0.53,0.78,1.21,0.78,2.07c0,0.97-0.34,1.8-1.01,2.5c-0.67,0.69-1.46,1.03-2.35,1.03
		c-0.82,0-1.51-0.28-2.09-0.84c-0.57-0.57-0.86-1.24-0.86-2.04c0-0.95,0.35-1.76,1.06-2.47
		C886.81,347.68,887.63,347.33,888.58,347.33z"/>
	<path d="M906.78,351.89l-2.13,9.39h6.09l-0.54,2.83h-6.18l-3.67,16.26c-0.32,1.44-0.48,2.46-0.48,3.06c0,0.72,0.18,1.28,0.55,1.69
		c0.38,0.42,0.85,0.62,1.44,0.62c0.43,0,0.86-0.09,1.29-0.27c0.57-0.26,1.14-0.64,1.72-1.16c0.29-0.29,1.03-1.13,2.21-2.56
		l1.86,1.55c-1.65,2.12-3.09,3.56-4.36,4.32c-1.26,0.76-2.57,1.13-3.9,1.13c-1.52,0-2.78-0.49-3.77-1.48
		c-0.99-1-1.49-2.16-1.49-3.53c0-0.86,0.12-1.82,0.36-2.86l3.81-16.79h-6.4l0.56-2.13c1.86-0.42,3.38-1,4.54-1.71
		c1.16-0.69,2.27-1.71,3.33-3.03c1.06-1.33,2.07-3.11,3.06-5.35H906.78z"/>
	<path d="M924.6,371.3l4.93,1.69c0.51,0.19,1.42,0.59,2.72,1.21c1.29,0.61,2.21,1.17,2.75,1.66c0.68,0.61,1.23,1.34,1.62,2.19
		c0.4,0.86,0.6,1.72,0.6,2.59c0,1.36-0.45,2.67-1.37,3.96c-0.92,1.27-2.26,2.28-4.03,3.03c-1.77,0.75-3.95,1.13-6.54,1.13
		c-2.82,0-5.35-0.41-7.59-1.23c-2.24-0.82-3.87-1.82-4.88-2.98c-1.03-1.16-1.54-2.21-1.54-3.16c0-0.63,0.22-1.17,0.66-1.58
		c0.44-0.43,0.98-0.64,1.65-0.64c0.41,0,0.79,0.08,1.13,0.22c0.34,0.16,0.69,0.42,1.05,0.79c0.24,0.26,0.63,0.85,1.16,1.78
		c0.48,0.81,0.8,1.29,0.95,1.47c0.43,0.5,1,0.98,1.72,1.45c0.72,0.45,1.53,0.81,2.43,1.03c0.9,0.23,1.95,0.36,3.16,0.36
		c1.74,0,3.19-0.22,4.35-0.66c1.16-0.43,2.02-1.01,2.59-1.73c0.56-0.73,0.84-1.46,0.84-2.2c0-1.05-0.51-1.98-1.56-2.81
		c-1.03-0.82-2.55-1.52-4.52-2.12c-0.17-0.06-0.35-0.11-0.53-0.19l-3.89-1.36c-2.37-0.83-4.08-1.86-5.11-3.08
		c-1.06-1.2-1.58-2.53-1.58-3.97c0-1.26,0.43-2.48,1.28-3.67c0.85-1.18,2.11-2.12,3.77-2.81c1.66-0.71,3.71-1.05,6.16-1.05
		c3.75,0,6.82,0.76,9.22,2.25c1.8,1.13,2.7,2.41,2.7,3.84c0,0.63-0.21,1.17-0.64,1.61c-0.42,0.46-0.95,0.66-1.58,0.66
		c-0.59,0-1.15-0.21-1.69-0.64c-0.37-0.3-0.92-0.96-1.64-1.98c-0.74-1.05-1.64-1.85-2.71-2.38c-1.07-0.53-2.38-0.78-3.93-0.78
		c-2.11,0-3.75,0.42-4.9,1.23c-1.15,0.81-1.74,1.73-1.74,2.76c0,0.81,0.32,1.55,0.94,2.2C921.59,370.06,922.81,370.69,924.6,371.3z"
		/>
	<path class="st0" d="M189.86,70.75c-3.42-1.98-7.29-2.98-11.63-2.98c-4.79,0-9.77,1.35-14.95,4.04c-5.18,2.7-11.32,7.76-18.4,15.19
		V67.77h-12.47c-15.56,6.54-30.53,10.25-44.94,11.14v25.46h19.62v60.85c0,4.6-0.32,7.56-0.93,8.89c-0.63,1.33-1.54,2.25-2.74,2.78
		c-1.2,0.53-4.25,0.8-9.14,0.8h-6.81v25.58h81.8v-25.58h-5.83c-5.04,0-8.32-0.31-9.82-0.93c-1.5-0.62-2.58-1.59-3.25-2.92
		c-0.66-1.32-1-4.19-1-8.62v-51.83c5.32-2.92,9.13-4.38,11.43-4.38c1.51,0,3.42,0.36,5.71,1.06c4.44,1.51,7.34,2.39,8.71,2.65
		c1.37,0.28,2.95,0.4,4.72,0.4c6.65,0,11.81-2.25,15.49-6.76c3.68-4.5,5.52-9.55,5.52-15.11c0-4.24-1-8.23-2.99-11.94
		C195.98,75.59,193.27,72.74,189.86,70.75z"/>
	<path class="st0" d="M698.51,177.01c-1.94-0.8-3.27-2.03-3.98-3.71c-0.44-1.15-0.65-4.42-0.65-9.81v-55.28
		c0-9.01-1.55-16.22-4.65-21.61c-3.09-5.39-7.92-9.87-14.52-13.46c-6.58-3.58-14.07-5.37-22.47-5.37c-6.28,0-12.77,1.08-19.49,3.24
		c-6.72,2.17-14.46,5.91-23.2,11.21V11.9c-22.92,0.46-44.2,7.6-61.92,19.65V45.5h19.36v120.24c0,4.07-0.31,6.79-0.92,8.16
		c-0.63,1.37-1.53,2.35-2.72,2.92c-1.19,0.58-3.96,0.87-8.29,0.87h-7.43v25.58h77.02v-25.58h-2.88c-4.12,0-6.93-0.35-8.42-1.06
		c-1.5-0.71-2.5-1.68-3.03-2.92c-0.52-1.23-0.78-4.37-0.78-9.41v-52.77c6.52-4.51,12.05-7.6,16.59-9.28
		c4.53-1.68,8.87-2.51,13.02-2.51c2.9,0,5.32,0.63,7.26,1.92c1.94,1.28,3.28,2.92,4.03,4.9c0.75,1.99,1.12,5.99,1.12,12v45.75
		c0,4.95-0.27,8.07-0.8,9.34c-0.53,1.28-1.5,2.28-2.92,2.99c-1.42,0.71-4.03,1.06-7.83,1.06h-3.97v25.58h60.04
		c7.02-7.65,13-16.24,17.74-25.58h-5.93C702.79,177.68,699.66,177.45,698.51,177.01z"/>
	<path class="st0" d="M324.03,45.5v157.77h29.2l7.16-11.14c6.64,5.13,13.01,8.8,19.12,11.01c6.1,2.2,12.47,3.31,19.11,3.31
		c16.28,0,30.15-6.52,41.6-19.56c11.46-13.03,17.19-30.29,17.19-51.77c0-21.21-5.71-38.18-17.1-50.91
		c-9.82-10.96-22.23-16.44-37.26-16.44c-5.74,0-11.47,0.91-17.17,2.72c-5.7,1.82-12.22,5.02-19.56,9.62V11.87
		c-22.78,0.36-43.96,7.32-61.64,19.14V45.5H324.03z M366.32,108.87c4.52-3.18,8.73-5.57,12.66-7.16c3.94-1.59,7.62-2.39,11.07-2.39
		c6.19,0,11.18,2.74,14.98,8.22c4.68,6.8,7.03,16.44,7.03,28.9c0,13.26-2.74,23.65-8.22,31.16c-4.33,6.01-10.16,9.01-17.5,9.01
		c-4.33,0-8.11-1.02-11.34-3.05c-3.22-2.03-5.48-4.57-6.76-7.62c-1.29-3.05-1.93-8.64-1.93-16.77V108.87z"/>
	<path class="st0" d="M934.04,145.79c-2.96-4.99-7.4-9.21-13.32-12.65c-5.93-3.45-12.11-6.32-18.57-8.62l-36.45-12.99
		c-5.14-1.77-8.51-3.45-10.15-5.04c-1.63-1.59-2.45-3.32-2.45-5.16c0-2.21,1.15-4.11,3.45-5.71c2.3-1.59,5.79-2.38,10.47-2.38
		c7.07,0,14.21,2.18,21.41,6.56c7.21,4.37,13.19,10.41,17.97,18.09l25.06-10.08l-10.74-36.86h-17.36l-3.46,5.83
		c-9.46-6.01-20.81-9.02-34.07-9.02c-14.94,0-27.49,4.33-37.65,12.99c-8.93,7.6-13.39,16.97-13.39,28.11
		c0,8.66,2.84,16.15,8.55,22.47c5.69,6.32,16.45,12.26,32.28,17.83l28.64,9.95c6.62,2.3,10.91,4.37,12.85,6.23
		c1.95,1.86,2.92,3.8,2.92,5.83c0,2.39-1.24,4.47-3.71,6.23c-3.27,2.22-7.29,3.32-12.06,3.32c-7.7,0-16.14-2.81-25.33-8.42
		c-9.19-5.61-16.93-13.32-23.21-23.13l-25.05,10.61l16.32,43.48h17.63l3.71-7.3c10.25,6.99,22.27,10.48,36.06,10.48
		c16.08,0,29.52-4.51,40.3-13.53c9.19-7.69,13.79-17.54,13.79-29.56C938.48,156.65,937.01,150.79,934.04,145.79z"/>
	<path class="st1" d="M124.34,11.78C61.19,11.78,10,62.98,10,126.13c0,63.15,51.19,114.34,114.34,114.34
		c63.15,0,114.35-51.19,114.35-114.34C238.69,62.98,187.49,11.78,124.34,11.78z M195.44,106.35c-3.67,4.51-8.84,6.76-15.49,6.76
		c-1.77,0-3.34-0.13-4.72-0.4c-1.37-0.26-4.27-1.14-8.71-2.65c-2.3-0.7-4.2-1.06-5.71-1.06c-2.3,0-6.11,1.46-11.43,4.38v51.83
		c0,4.43,0.34,7.3,1,8.62c0.67,1.33,1.75,2.3,3.25,2.92c1.5,0.62,4.77,0.93,9.82,0.93h5.83v25.58h-81.8v-25.58h6.81
		c4.89,0,7.95-0.27,9.14-0.8c1.2-0.53,2.11-1.45,2.74-2.78c0.62-1.32,0.93-4.28,0.93-8.89v-60.85H87.47V78.91
		c14.41-0.89,29.38-4.59,44.94-11.14h12.47V87c7.08-7.42,13.22-12.48,18.4-15.19c5.18-2.69,10.16-4.04,14.95-4.04
		c4.34,0,8.21,1,11.63,2.98c3.41,1.99,6.11,4.84,8.11,8.55c1.99,3.71,2.99,7.7,2.99,11.94C200.95,96.8,199.12,101.85,195.44,106.35z
		"/>
	<path class="st2" d="M375,173.57c3.23,2.03,7.01,3.05,11.34,3.05c7.34,0,13.17-3,17.5-9.01c5.48-7.51,8.22-17.9,8.22-31.16
		c0-12.46-2.35-22.09-7.03-28.9c-3.8-5.48-8.79-8.22-14.98-8.22c-3.45,0-7.14,0.8-11.07,2.39c-3.93,1.59-8.15,3.98-12.66,7.16v40.3
		c0,8.13,0.64,13.73,1.93,16.77C369.52,168.99,371.78,171.53,375,173.57z"/>
	<path class="st3" d="M368.11,11.78c-0.61,0-1.19,0.08-1.8,0.09V80.1c7.34-4.6,13.86-7.8,19.56-9.62
		c5.71-1.81,11.43-2.72,17.17-2.72c15.03,0,27.44,5.48,37.26,16.44c11.39,12.73,17.1,29.7,17.1,50.91
		c0,21.48-5.73,38.73-17.19,51.77c-11.46,13.04-25.33,19.56-41.6,19.56c-6.64,0-13.01-1.11-19.11-3.31
		c-6.11-2.21-12.48-5.88-19.12-11.01l-7.16,11.14h-29.2V45.5h-19.36V31.01c-30.68,20.5-50.9,55.44-50.9,95.11
		c0,63.15,51.19,114.34,114.34,114.34c63.15,0,114.35-51.19,114.35-114.34C482.46,62.98,431.26,11.78,368.11,11.78z"/>
	<path class="st4" d="M611.88,11.78c-0.78,0-1.54,0.1-2.32,0.12v70.33c8.74-5.3,16.48-9.04,23.2-11.21
		c6.72-2.16,13.21-3.24,19.49-3.24c8.4,0,15.89,1.79,22.47,5.37c6.59,3.58,11.42,8.07,14.52,13.46c3.1,5.39,4.65,12.6,4.65,21.61
		v55.28c0,5.39,0.22,8.66,0.65,9.81c0.71,1.68,2.04,2.92,3.98,3.71c1.15,0.44,4.28,0.67,9.41,0.67h5.93
		c7.86-15.5,12.38-32.98,12.38-51.55C726.23,62.98,675.04,11.78,611.88,11.78z"/>
	<path class="st4" d="M636.07,177.68h3.97c3.8,0,6.41-0.35,7.83-1.06c1.42-0.71,2.38-1.7,2.92-2.99c0.53-1.28,0.8-4.4,0.8-9.34
		v-45.75c0-6-0.38-10-1.12-12c-0.75-1.98-2.09-3.62-4.03-4.9c-1.94-1.29-4.36-1.92-7.26-1.92c-4.15,0-8.49,0.84-13.02,2.51
		c-4.54,1.68-10.07,4.77-16.59,9.28v52.77c0,5.04,0.26,8.18,0.78,9.41c0.53,1.24,1.54,2.21,3.03,2.92c1.49,0.71,4.29,1.06,8.42,1.06
		h2.88v25.58h-77.02v-25.58h7.43c4.33,0,7.09-0.29,8.29-0.87c1.19-0.57,2.09-1.55,2.72-2.92c0.61-1.37,0.92-4.09,0.92-8.16V45.5
		h-19.36V31.55c-30.23,20.58-50.1,55.25-50.1,94.58c0,63.15,51.2,114.34,114.34,114.34c33.38,0,63.33-14.39,84.23-37.2h-60.04
		V177.68z"/>
	<path class="st5" d="M855.65,11.78c-63.15,0-114.34,51.19-114.34,114.35c0,63.15,51.19,114.34,114.34,114.34
		c63.15,0,114.35-51.19,114.35-114.34C970,62.98,918.8,11.78,855.65,11.78z M924.69,192.92c-10.78,9.02-24.22,13.53-40.3,13.53
		c-13.79,0-25.81-3.49-36.06-10.48l-3.71,7.3h-17.63l-16.32-43.48l25.05-10.61c6.28,9.81,14.01,17.53,23.21,23.13
		c9.19,5.62,17.63,8.42,25.33,8.42c4.77,0,8.79-1.1,12.06-3.32c2.47-1.76,3.71-3.84,3.71-6.23c0-2.03-0.97-3.98-2.92-5.83
		c-1.94-1.86-6.23-3.93-12.85-6.23l-28.64-9.95c-15.83-5.57-26.59-11.51-32.28-17.83c-5.71-6.32-8.55-13.81-8.55-22.47
		c0-11.14,4.46-20.5,13.39-28.11c10.16-8.66,22.71-12.99,37.65-12.99c13.26,0,24.61,3,34.07,9.02l3.46-5.83h17.36l10.74,36.86
		l-25.06,10.08c-4.77-7.69-10.76-13.72-17.97-18.09c-7.2-4.38-14.34-6.56-21.41-6.56c-4.68,0-8.17,0.79-10.47,2.38
		c-2.3,1.59-3.45,3.5-3.45,5.71c0,1.85,0.82,3.58,2.45,5.16c1.64,1.59,5.02,3.27,10.15,5.04l36.45,12.99
		c6.46,2.3,12.64,5.17,18.57,8.62c5.92,3.44,10.36,7.66,13.32,12.65c2.97,5,4.44,10.86,4.44,17.58
		C938.48,175.38,933.89,185.23,924.69,192.92z"/>
</g>
</svg>
