<svg width="157" height="52" viewBox="0 0 157 52" fill="none" xmlns="http://www.w3.org/2000/svg">
<path d="M39.345 41.2421C39.345 42.5663 38.1984 43.6399 36.7843 43.6399C35.3702 43.6399 34.2236 42.5663 34.2236 41.2421C34.2236 39.918 35.3702 38.8444 36.7843 38.8444C38.1984 38.8444 39.345 39.918 39.345 41.2421Z" fill="#470858"/>
<path d="M0 39.933L3.19465 36.5626C4.63348 38.0804 6.61412 39.0067 8.4149 39.0067C9.98862 39.0067 11.2948 38.4573 11.2948 37.2784C11.2948 35.929 9.80877 35.3817 8.4149 35.1732C4.59076 34.6659 0.721663 32.6871 0.721663 28.4747C0.721663 24.0518 4.99544 21.734 9.31417 21.734C11.4275 21.734 14.2624 22.1971 16.6927 24.5991L13.6329 28.0537C12.0569 26.9169 10.5731 26.5779 9.44906 26.5779C8.14287 26.5779 6.74901 27.1674 6.74901 28.3905C6.74901 29.6136 8.09791 29.9925 9.4041 30.2009C13.2732 30.8745 17.3671 32.6871 17.3671 37.0679C17.3671 42.2507 12.284 43.9769 8.54979 43.9769C5.49003 43.9769 2.34034 42.9665 0.00224694 39.933" fill="#470858"/>
<path d="M32.0388 38.9645V43.5137C31.3194 43.598 30.555 43.6401 29.8783 43.6401C25.3797 43.6401 21.9603 41.4928 21.9603 36.5626V26.7463H18.7656V22.1529H21.9603V16.8879L27.9449 16.2985V22.155H31.9939V26.7484H27.9449V36.4805C27.9449 38.0383 28.8442 39.0508 30.8698 39.0508C31.2295 39.0508 31.6342 39.0087 32.0388 38.9666" fill="#470858"/>
<path d="M40.917 36.6891V14.0231H47.0815V36.6891C47.0815 37.9943 47.5334 39.0069 49.6017 39.0069C49.7815 39.0069 50.0063 38.9648 50.2761 38.9648V43.514C49.3769 43.5982 48.6552 43.6824 48.0257 43.6824C43.662 43.6824 40.917 41.491 40.917 36.6891Z" fill="#470858"/>
<path d="M73.8906 22.1549V43.5137H68.7626L68.2208 41.1559C66.9168 43.219 64.4416 43.8105 62.5531 43.7684C57.1103 43.7684 52.5195 40.356 52.5195 34.3732V22.1549H58.6391V34.3732C58.6391 37.4488 61.0671 39.0929 63.5873 39.0929C65.0284 39.0929 66.5571 38.5855 67.7262 37.533V22.1549H73.8906Z" fill="#470858"/>
<path d="M85.664 34.5398L84.3128 35.6787V43.514H78.2383V14.0231H84.3128V29.5275L86.5633 27.2097L91.6913 22.1131H98.7101V22.5342L89.8029 31.0453L99.4295 43.514H92.368L85.664 34.5398Z" fill="#470858"/>
<path d="M121.577 34.9198H105.154C105.603 37.3638 107.854 39.0058 110.776 39.0058C112.847 39.0058 114.691 38.5848 116.401 36.646L120.091 39.3006C117.211 42.5867 114.196 43.8919 110.642 43.8919C102.858 43.8919 98.9443 38.3722 98.9443 32.8967C98.9443 27.4212 102.858 21.691 110.642 21.691C117.346 21.691 121.844 26.4087 121.844 32.3494C121.844 33.1914 121.754 34.0335 121.574 34.9198M105.152 30.8758H115.905C115.68 27.9265 113.115 26.5371 110.552 26.5371C107.852 26.5371 105.331 28.0549 105.152 30.8758Z" fill="#470858"/>
<path d="M123.699 39.933L126.894 36.5626C128.333 38.0804 130.313 39.0067 132.114 39.0067C133.688 39.0067 134.994 38.4573 134.994 37.2784C134.994 35.929 133.51 35.3817 132.114 35.1732C128.29 34.6659 124.421 32.6871 124.421 28.4747C124.421 24.0518 128.695 21.734 133.013 21.734C135.127 21.734 137.962 22.1971 140.392 24.5991L137.332 28.0537C135.758 26.9169 134.272 26.5779 133.148 26.5779C131.842 26.5779 130.448 27.1674 130.448 28.3905C130.448 29.6136 131.797 29.9925 133.103 30.2009C136.972 30.8745 141.066 32.6871 141.066 37.0679C141.066 42.2507 135.983 43.9769 132.249 43.9769C129.189 43.9769 126.04 42.9665 123.701 39.933" fill="#470858"/>
<path d="M155.016 4.64909C155.266 6.7837 152.968 8.53308 153.892 10.3624C154.645 11.8529 157.228 11.6782 156.561 13.657C156.235 14.6233 147.276 19.5093 144.227 18.8841C140.56 18.1325 140.848 14.9685 143.629 8.57307C146.199 2.65973 148.926 0.628267 152.356 1.26402C152.356 1.26402 154.665 1.65558 155.014 4.65119" fill="#73B564"/>
<path d="M140.441 17.1978C139.872 15.5389 140.461 12.8317 141.934 8.87193C142.705 6.79836 143.521 5.19003 144.398 3.98168C144.499 3.84274 144.535 3.67433 144.49 3.51223C144.265 2.69123 143.899 1.88075 143.213 1.27026C140.879 -0.807518 138.849 0.289261 138.849 0.289261C135.789 1.87864 135.108 5.07846 137.224 11.1476C138.355 14.3958 139.238 15.9368 140.394 17.2251L140.439 17.1978H140.441Z" fill="#BCDDA4"/>
</svg>
