<svg width="224" height="83" viewBox="0 0 224 83" fill="none" xmlns="http://www.w3.org/2000/svg">
<path fill-rule="evenodd" clip-rule="evenodd" d="M127.56 28.2273V21.3347C127.56 19.3298 127.883 19.1558 130.475 19.1558C134.346 19.1558 136.073 20.3484 136.073 23.7486C136.073 26.8308 134.249 28.2273 130.538 28.2273H127.56ZM127.56 35.8436V29.0984H131.017C136.745 29.0984 139.625 27.2387 139.625 23.6035C139.625 20.4049 136.935 18.37 131.594 18.37H121.515V19.1558H122.763C124.395 19.1558 124.617 19.5914 124.617 21.1907V35.8436C124.617 37.4429 124.363 37.8785 122.763 37.8785H121.515V38.7507H130.953V37.8785H129.963C127.851 37.8785 127.56 37.6468 127.56 35.8436Z" fill="#00468B"/>
<path fill-rule="evenodd" clip-rule="evenodd" d="M144.928 24.0982C141.218 24.0982 137.826 27.2968 137.826 31.5693C137.826 35.8441 141.185 39.0714 144.928 39.0714C148.641 39.0714 152.032 35.8441 152.032 31.5693C152.032 27.2968 148.641 24.0982 144.928 24.0982ZM144.928 24.8829C147.553 24.8829 148.481 27.1217 148.481 31.5693C148.481 36.017 147.553 38.2568 144.928 38.2568C142.304 38.2568 141.377 36.0181 141.377 31.5693C141.377 27.1206 142.304 24.8829 144.928 24.8829Z" fill="#00468B"/>
<path fill-rule="evenodd" clip-rule="evenodd" d="M153.266 37.879H152.401V38.7512H160.335V37.879H159.44C158.002 37.879 157.811 37.6174 157.811 36.3385V18.2243C156.114 18.3118 154.289 18.3695 152.401 18.3695V19.2428H153.266C154.575 19.2428 154.93 19.4456 154.93 20.6094V36.3385C154.93 37.6463 154.673 37.879 153.266 37.879Z" fill="#00468B"/>
<path fill-rule="evenodd" clip-rule="evenodd" d="M164.078 18.2238C162.891 18.2238 161.998 19.0684 161.998 20.0858C161.998 21.1021 162.957 21.9755 164.078 21.9755C165.196 21.9755 166.158 21.1021 166.158 20.0858C166.158 19.0396 165.227 18.2238 164.078 18.2238ZM165.612 24.273C163.886 24.3583 162.092 24.4171 160.206 24.4171V25.2893H161.069C162.381 25.2893 162.733 25.4932 162.733 26.657V36.338C162.733 37.6469 162.477 37.8786 161.069 37.8786H160.206V38.7508H168.17V37.8786H167.276C165.836 37.8786 165.612 37.617 165.612 36.338V24.273Z" fill="#00468B"/>
<path fill-rule="evenodd" clip-rule="evenodd" d="M181.502 33.605H180.609C180.321 36.3958 178.528 38.0837 176.288 38.0837C173.473 38.0837 171.874 35.7862 171.874 31.2798C171.874 27.035 173.345 24.8827 176.033 24.8827C177.537 24.8827 178.591 25.8125 178.591 26.5983C178.591 27.383 177.12 27.6157 177.12 28.8947C177.12 29.8545 178.016 30.668 179.073 30.668C180.287 30.668 181.278 29.7382 181.278 28.3428C181.278 25.9876 178.848 24.0681 175.745 24.0681C171.458 24.0681 168.322 27.2666 168.322 31.6866C168.322 36.0478 171.427 39.1 175.648 39.1C178.912 39.1 181.215 37.0652 181.502 33.605Z" fill="#00468B"/>
<path fill-rule="evenodd" clip-rule="evenodd" d="M195.804 34.0422H194.941C194.237 36.5414 192.413 37.9379 190.108 37.9379C187.038 37.9379 185.503 35.8432 185.503 31.6571V31.5407H195.901C195.836 26.9191 192.99 24.0685 189.022 24.0685C185.117 24.0685 182.047 27.0931 182.047 31.5984C182.047 36.251 185.087 39.1005 189.436 39.1005C192.734 39.1005 195.195 37.1521 195.804 34.0422ZM185.503 30.756V30.4945C185.503 26.8603 186.75 24.9408 188.989 24.9408C191.229 24.9408 192.573 26.7728 192.573 30.1742V30.756H185.503Z" fill="#00468B"/>
<path fill-rule="evenodd" clip-rule="evenodd" d="M127.563 62.2508V54.1402H137.127V62.2508C137.127 63.8501 136.873 64.2857 135.275 64.2857H134.025V65.1579H143.207V64.2857H141.96C140.327 64.2857 140.104 63.8501 140.104 62.2508V47.5979C140.104 46.0274 140.327 45.5619 141.96 45.5619H143.207V44.7773H134.025V45.5619H135.275C136.904 45.5619 137.127 45.9986 137.127 47.5979V53.0064H127.563V47.5979C127.563 46.0274 127.787 45.5619 129.416 45.5619H130.698V44.7773H121.515V45.5619H122.764C124.395 45.5619 124.618 45.9986 124.618 47.5979V62.2508C124.618 63.8501 124.363 64.2857 122.764 64.2857H121.515V65.1579H130.698V64.2857H129.416C127.787 64.2857 127.563 63.8501 127.563 62.2508Z" fill="#00468B"/>
<path fill-rule="evenodd" clip-rule="evenodd" d="M156.852 60.4493H155.989C155.285 62.9485 153.461 64.345 151.156 64.345C148.086 64.345 146.552 62.2503 146.552 58.0642V57.9478H156.948C156.886 53.3262 154.039 50.4756 150.071 50.4756C146.167 50.4756 143.095 53.5002 143.095 58.0055C143.095 62.657 146.134 65.5076 150.485 65.5076C153.78 65.5076 156.244 63.5592 156.852 60.4493ZM146.552 57.1631V56.9016C146.552 53.2674 147.8 51.3479 150.038 51.3479C152.277 51.3479 153.622 53.1799 153.622 56.5813V57.1631H146.552Z" fill="#00468B"/>
<path fill-rule="evenodd" clip-rule="evenodd" d="M167.41 62.7742C167.667 64.5186 168.629 65.4197 170.386 65.4197C172.53 65.4197 173.525 64.3446 173.525 62.3087V60.8834H172.628V62.425C172.628 63.6176 172.275 64.1407 171.444 64.1407C170.451 64.1407 170.291 63.5012 170.291 62.1635V55.4194C170.291 52.0457 169.042 50.5052 164.821 50.5052C160.981 50.5052 158.708 52.0457 158.708 54.1681C158.708 55.5059 159.64 56.3493 160.887 56.3493C161.972 56.3493 162.805 55.6522 162.805 54.8076C162.805 53.4123 160.981 53.5287 160.981 52.6564C160.981 51.9593 162.227 51.3187 164.118 51.3187C166.74 51.3187 167.41 52.3361 167.41 54.6625V55.6222C166.1 56.3493 164.631 56.8425 163.03 57.2803C159.603 58.2101 157.878 59.3151 157.878 61.5827C157.878 63.8215 159.64 65.4197 162.227 65.4197C164.308 65.4197 166.165 64.5186 167.41 62.7742ZM167.41 56.5532V60.8269C166.709 62.9482 165.077 64.1407 163.476 64.1407C162.037 64.1407 161.109 63.182 161.109 61.4952C161.109 58.792 163.411 58.3542 167.41 56.5532Z" fill="#00468B"/>
<path fill-rule="evenodd" clip-rule="evenodd" d="M173.903 64.2861H173.039V65.1583H180.973V64.2861H180.079C178.639 64.2861 178.446 64.0245 178.446 62.7456V44.6314C176.751 44.7189 174.927 44.7766 173.039 44.7766V45.6499H173.903C175.214 45.6499 175.567 45.8527 175.567 47.0165V62.7456C175.567 64.0534 175.312 64.2861 173.903 64.2861Z" fill="#00468B"/>
<path fill-rule="evenodd" clip-rule="evenodd" d="M189.768 60.8837H188.811C188.811 61.2328 188.844 61.4368 188.844 61.4955C188.844 63.1824 188.395 63.9959 187.436 63.9959C186.249 63.9959 186.155 62.9197 186.155 60.8837V51.6382H189.866V50.8247H186.155V44.6315H185.354C185.164 48.6436 183.658 50.766 180.78 50.8247V51.6382H183.277V60.2165C183.277 63.7055 183.851 65.42 186.508 65.42C188.619 65.42 189.769 64.1987 189.769 61.8147L189.768 60.8837Z" fill="#00468B"/>
<path fill-rule="evenodd" clip-rule="evenodd" d="M190.395 65.1583H198.137V64.286H197.434C195.993 64.286 195.801 64.0245 195.801 62.7455V56.4647C195.801 53.326 197.209 51.8719 199.321 51.8719C201.016 51.8719 201.622 52.8893 201.622 54.9818V62.7455C201.622 64.0544 201.399 64.286 199.991 64.286H199.32V65.1583H206.999V64.286H206.2C204.759 64.286 204.535 64.0245 204.535 62.7455V55.854C204.535 52.3362 203.576 50.563 200.311 50.563C198.552 50.563 196.856 51.4352 195.801 53.0345V44.6313C194.106 44.7188 192.281 44.7776 190.395 44.7776V45.6498H191.26C192.569 45.6498 192.921 45.8526 192.921 47.0164V62.7455C192.921 64.0544 192.666 64.286 191.26 64.286H190.395L190.395 65.1583Z" fill="#00468B"/>
<mask id="mask0_805_85941" style="mask-type:luminance" maskUnits="userSpaceOnUse" x="10" y="2" width="108" height="76">
<path d="M58.4509 2C51.4883 2.04322 51.3619 27.204 52.3475 63.4468C50.3375 55.0802 40.6852 38.0311 34.3458 37.3185C29.5229 36.9161 28.5218 40.1469 26.9929 43.3787C25.2812 46.9951 22.904 50.6126 13.7573 49.1308C12.2363 48.8836 10.2207 50.1693 10.2207 51.7353C10.2207 53.5175 12.0034 54.0439 13.7817 54.1559C21.648 54.659 25.4496 51.579 27.8078 48.5002C30.2835 45.265 31.1705 42.0321 33.5032 42.9464C41.948 46.4997 48.5581 67.7105 50.4838 74.6906C50.9607 76.4173 52.0793 77.969 53.2034 78H53.2711C54.1692 77.9745 55.0627 76.9604 55.6259 74.2705C55.6259 74.2705 54.6447 42.6505 57.8555 16.7959C59.2813 28.4742 61.2381 58.7587 75.7474 59.7883C86.29 60.5386 93.4434 47.0882 105.539 45.9633C109.166 45.6252 111.659 45.8469 115.584 46.2171C118.209 46.4642 118.362 41.1853 114.857 41.0767C113.44 41.0324 111.622 41.1443 110.231 41.3028C95.5919 42.9586 92.0087 48.8715 84.1757 52.5666C58.7847 64.5474 67.888 2.59738 58.6593 2.00554C58.6005 2.00222 58.5429 2 58.4852 2H58.4509Z" fill="white"/>
</mask>
<g mask="url(#mask0_805_85941)">
<path d="M118.362 2H10.2207V78H118.362V2Z" fill="url(#paint0_linear_805_85941)"/>
</g>
<path d="M15.5936 18.353H0.000976562V33.9391H15.5936V18.353Z" fill="#00468B"/>
<path d="M46.7792 18.3531H31.1866V33.9392H46.7792V18.3531Z" fill="#00468B"/>
<path d="M109.145 18.3531H93.5539V33.9392H109.145V18.3531Z" fill="#00468B"/>
<path d="M31.153 44.6131C30.826 45.0576 30.4866 45.5973 30.1197 46.1847C29.4822 47.201 28.7504 48.3703 27.7949 49.5141L27.7936 49.5251H31.1863L31.1841 44.581L31.153 44.6131ZM46.7646 65.0492C44.9241 59.9322 42.4129 53.9584 39.4637 49.5251H31.1863V65.1102H46.779M56.2882 49.5251H62.3694V46.0074L62.3627 45.9896C61.0855 42.2003 60.1553 38.0264 59.448 33.9368L59.4325 33.939H56.9502L56.9347 33.9312C56.6021 39.3198 56.4025 44.5954 56.2783 49.4974L56.2882 49.5251ZM63.712 49.5251C66.333 55.571 70.1158 60.0108 75.7046 60.4065C76.4642 60.4608 77.2047 60.4453 77.9287 60.371L77.9608 60.3644V65.1102H62.3693L62.3694 49.5251H63.712ZM93.5557 51.8094C94.7143 50.9925 95.834 50.2322 97.0537 49.5285L97.0703 49.5218L109.146 49.5251V65.1102H93.5535V51.8249L93.5557 51.8094ZM93.5468 46.1082C92.3872 46.8142 91.2851 47.5424 90.2053 48.2628C89.5523 48.6994 88.9425 49.1117 88.295 49.5285V49.5185L77.9609 49.5251V33.939L93.5539 33.9392L93.5536 46.085L93.5468 46.1082ZM71.3453 49.5196C73.015 51.8925 75.1393 53.3621 77.8843 53.4763L77.9608 53.4696L77.9609 49.5251H71.3497L71.3453 49.5196ZM66.2875 33.9401C65.5867 29.6532 65.1112 25.1346 64.6666 20.9175C64.5735 20.043 64.4837 19.1852 64.3929 18.3462L64.3884 18.3529H77.9609V33.939H66.2919L66.2875 33.9401ZM46.8088 49.3201C46.8421 49.3766 46.8754 49.4332 46.9087 49.4897L46.9253 49.5251H51.3943L51.4099 49.4974C51.4032 49.1106 51.3966 48.7238 51.391 48.3404C51.3068 43.087 51.279 38.3057 51.3123 33.9346L51.2702 33.939L46.7792 33.9392L46.7789 49.2647L46.8088 49.3201ZM31.1607 37.0589C28.8147 37.9345 27.8071 40.1289 26.8259 42.2679C25.3401 45.5042 23.8058 48.8502 17.6049 48.8502C16.974 48.8502 16.3 48.8147 15.5893 48.7449L15.5937 48.7338L15.5936 33.9391L31.1866 33.9392L31.1863 37.05L31.1607 37.0589ZM15.5815 54.8306H15.4385C14.8908 54.8306 14.3208 54.8129 13.7443 54.7752C10.3207 54.5602 9.60124 53.003 9.60124 51.7351C9.60124 50.8717 10.049 50.1004 10.7055 49.5251H0.000976562V65.1102H15.5937V54.8339L15.5815 54.8306Z" fill="#00468B"/>
<defs>
<linearGradient id="paint0_linear_805_85941" x1="10.2726" y1="40.0199" x2="117.576" y2="40.0199" gradientUnits="userSpaceOnUse">
<stop stop-color="#CADB2F"/>
<stop offset="1" stop-color="#00AEEF"/>
</linearGradient>
</defs>
</svg>
