<?xml version="1.0" encoding="UTF-8"?>
<svg id="Layer_1" data-name="Layer 1" xmlns="http://www.w3.org/2000/svg" viewBox="0 0 387.89 80.66">
  <defs>
    <style>
      .cls-1 {
        fill: #004876;
      }
    </style>
  </defs>
  <path class="cls-1" d="M386.93,40.04c-.64,1.18-1.5,2.14-2.57,2.88-1.08.74-2.31,1.28-3.69,1.61-1.39.33-2.84.5-4.37.5-1.82,0-3.54-.16-5.15-.5-1.61-.33-3.1-.81-4.47-1.43v-8.19h.5c.33.99.74,2.04,1.24,3.13.49,1.1,1.09,2.11,1.79,3.04.7.93,1.54,1.7,2.53,2.3.99.6,2.16.9,3.52.9,1.98,0,3.55-.57,4.73-1.71,1.17-1.14,1.76-2.88,1.76-5.24,0-1.28-.4-2.35-1.21-3.2-.8-.85-1.91-1.42-3.31-1.71-1.11-.21-2.18-.43-3.21-.68-1.03-.25-1.96-.52-2.78-.81-1.57-.54-2.83-1.47-3.8-2.79-.97-1.32-1.45-2.92-1.45-4.78,0-1.28.27-2.44.81-3.47.54-1.03,1.26-1.92,2.17-2.67.91-.74,1.96-1.31,3.16-1.7,1.2-.39,2.48-.59,3.85-.59,1.74,0,3.27.15,4.59.47,1.32.31,2.58.69,3.78,1.15l.74,7.69-.5.12c-.58-1.24-1.16-2.39-1.74-3.44-.58-1.05-1.22-1.96-1.92-2.73-.7-.77-1.5-1.35-2.39-1.77-.89-.41-1.91-.62-3.07-.62-.7,0-1.4.12-2.08.37-.68.25-1.28.61-1.8,1.09-.52.48-.94,1.08-1.27,1.8s-.5,1.56-.5,2.51c0,1.53.43,2.63,1.3,3.29.87.66,1.96,1.16,3.29,1.49.91.21,1.9.43,2.98.65,1.08.23,2.01.45,2.79.65,1.86.45,3.44,1.41,4.75,2.85,1.3,1.45,1.95,3.23,1.95,5.34,0,1.61-.32,3.01-.96,4.19M364.25,20.5c-.54.6-1.16.9-1.86.9-.66,0-1.19-.11-1.58-.34-.39-.23-.73-.49-1.02-.78-.29-.29-.6-.55-.93-.78-.33-.23-.79-.34-1.36-.34-.5,0-.98.18-1.46.53-.48.35-.92.8-1.33,1.33-.41.54-.79,1.15-1.12,1.83-.33.68-.62,1.33-.87,1.95v17.87c.12.37.39.66.81.87.41.21.88.35,1.4.43.52.08,1.05.13,1.61.15.56.02,1.04.07,1.46.15v.62h-13.9v-.62c.95-.08,1.77-.27,2.45-.56.68-.29,1.02-.77,1.02-1.43v-20.97c0-.33-.03-.58-.09-.74-.06-.16-.24-.35-.53-.56-.37-.21-.81-.46-1.3-.77-.5-.31-.99-.57-1.49-.78v-.37l8.13-3.16h.37l-.12,8.62h.12c.21-.5.54-1.22.99-2.17.46-.95,1.03-1.91,1.74-2.89.7-.97,1.55-1.81,2.54-2.51.99-.7,2.13-1.06,3.41-1.06,1.03,0,1.91.31,2.64.93.72.62,1.09,1.41,1.09,2.36s-.27,1.66-.81,2.26M333.72,17.65c-1.05-1.1-2.47-1.64-4.25-1.64-1.16,0-2.2.34-3.13,1.02-.93.68-1.74,1.48-2.42,2.39-.68.91-1.21,1.83-1.58,2.76-.37.93-.6,1.64-.68,2.14h2.54c.74,0,1.48,0,2.2-.03.72-.02,1.48-.04,2.26-.06.79-.02,1.65-.03,2.61-.03.62,0,1.2-.02,1.74-.06.54-.04,1.01-.14,1.43-.31.29-.33.51-.64.65-.93.15-.29.22-.72.22-1.3,0-1.53-.53-2.84-1.58-3.94M340.82,38.55c-.58,1.14-1.36,2.18-2.36,3.13-.99.95-2.18,1.74-3.57,2.36-1.39.62-2.93.93-4.62.93-2.11,0-4.03-.39-5.77-1.18-1.74-.79-3.22-1.89-4.44-3.32-1.22-1.43-2.16-3.1-2.82-5.03-.66-1.92-.99-3.96-.99-6.11,0-1.74.31-3.46.93-5.18.62-1.72,1.5-3.26,2.64-4.62,1.14-1.36,2.52-2.47,4.16-3.32,1.63-.85,3.44-1.27,5.43-1.27,1.61,0,3.13.21,4.56.62,1.43.41,2.67,1.04,3.72,1.89,1.06.85,1.91,1.91,2.57,3.19.66,1.28,1.06,2.79,1.18,4.53h-19.91c0,.33-.02.71-.06,1.15-.04.43-.06.88-.06,1.33,0,1.74.25,3.4.75,4.99.5,1.59,1.22,3,2.17,4.22.95,1.22,2.15,2.18,3.6,2.88,1.45.7,3.12,1.06,5.02,1.06,2.07,0,3.88-.53,5.43-1.58,1.55-1.06,2.57-2.35,3.07-3.88l.5.12c-.17.91-.54,1.93-1.12,3.07M303.05,44.91v-.68c1.12-.08,2.01-.22,2.67-.4.66-.19.99-.61.99-1.27v-15.63c0-2.4-.46-4.33-1.36-5.8-.91-1.47-2.44-2.2-4.59-2.2-1.36,0-2.5.29-3.41.87-.91.58-1.92,1.43-3.04,2.54v20.35c.08.41.23.71.43.9.21.19.45.32.74.4.29.08.62.13.99.15.37.02.77.07,1.18.15v.62h-11.97v-.62c.95-.08,1.77-.27,2.45-.56.68-.29,1.02-.77,1.02-1.43v-21.34c0-.33-.03-.58-.09-.74-.06-.16-.24-.35-.53-.56-.37-.21-.81-.44-1.3-.71-.5-.27-.99-.51-1.49-.71v-.37l8.13-2.92h.37v6.7l.12.06c.45-.7,1.02-1.46,1.7-2.26.68-.81,1.45-1.54,2.32-2.2.87-.66,1.81-1.21,2.84-1.64,1.03-.43,2.1-.65,3.21-.65,2.39,0,4.23.89,5.5,2.67,1.28,1.78,1.92,4.07,1.92,6.89v18.24c0,.29.13.54.4.75s.59.36.96.46c.37.1.78.19,1.21.25.43.06.84.11,1.21.15v.56h-12.59ZM281.92,19.35h-9.43v16.32c0,2.11.45,3.64,1.36,4.59.91.95,2.09,1.43,3.54,1.43,1.2,0,2.19-.2,2.98-.59.79-.39,1.47-1,2.05-1.83l.37.19c-.25.62-.59,1.27-1.02,1.95-.43.68-1.01,1.3-1.74,1.86-.72.56-1.57.99-2.54,1.3-.97.31-2.12.46-3.44.46-.87,0-1.7-.13-2.5-.4-.8-.27-1.5-.66-2.12-1.18-.61-.52-1.11-1.1-1.5-1.74-.39-.64-.58-1.29-.58-1.95,0-3.89.02-7.58.06-11.07.04-3.49.06-6.61.06-9.34h-4.53v-.68l8.94-8.5h.49v5.4h11.48l-1.92,3.78ZM260.39,20.5c-.54.6-1.16.9-1.86.9-.66,0-1.19-.11-1.58-.34-.39-.23-.73-.49-1.02-.78-.29-.29-.6-.55-.93-.78-.33-.23-.79-.34-1.37-.34-.5,0-.98.18-1.46.53-.48.35-.92.8-1.33,1.33-.41.54-.79,1.15-1.12,1.83-.33.68-.62,1.33-.87,1.95v17.87c.12.37.39.66.81.87.41.21.88.35,1.4.43.52.08,1.05.13,1.61.15.56.02,1.04.07,1.46.15v.62h-13.9v-.62c.95-.08,1.77-.27,2.45-.56.68-.29,1.02-.77,1.02-1.43v-20.97c0-.33-.03-.58-.09-.74-.06-.16-.24-.35-.53-.56-.37-.21-.81-.46-1.3-.77-.5-.31-.99-.57-1.49-.78v-.37l8.13-3.16h.37l-.12,8.62h.12c.21-.5.54-1.22.99-2.17.45-.95,1.03-1.91,1.74-2.89.7-.97,1.55-1.81,2.54-2.51.99-.7,2.13-1.06,3.41-1.06,1.03,0,1.91.31,2.64.93.72.62,1.09,1.41,1.09,2.36s-.27,1.66-.81,2.26M227.91,28.04c-.74.54-1.67,1.11-2.79,1.71-1.12.6-2.2,1.25-3.26,1.95-1.05.7-1.96,1.48-2.73,2.33-.76.85-1.15,1.81-1.15,2.88s.37,2.05,1.12,2.92c.74.87,1.72,1.3,2.92,1.3,1.07,0,2.03-.12,2.85-.37.83-.25,1.59-.72,2.29-1.43.5-.45.74-1.03.74-1.74v-9.55ZM238.89,41.13c-.33.74-.77,1.42-1.3,2.02-.54.6-1.17,1.05-1.89,1.36s-1.52.46-2.39.46c-1.41,0-2.66-.41-3.75-1.24-1.1-.83-1.64-2.27-1.64-4.34l-.12-.06c-.33.54-.78,1.14-1.33,1.8-.56.66-1.22,1.28-1.99,1.86-.77.58-1.61,1.04-2.54,1.4-.93.35-1.95.53-3.07.53-.66,0-1.33-.09-2.02-.28-.68-.19-1.3-.52-1.86-.99-.56-.48-1.01-1.09-1.36-1.83-.35-.74-.53-1.65-.53-2.73,0-1.16.46-2.28,1.4-3.35.93-1.08,2.08-2.05,3.44-2.92,1.36-.87,2.57-1.61,3.63-2.23,1.05-.62,1.97-1.15,2.76-1.58.79-.43,1.48-.81,2.08-1.12.6-.31,1.11-.59,1.52-.84v-6.39c0-.08-.07-.28-.22-.59-.15-.31-.39-.63-.74-.96-.35-.33-.84-.63-1.46-.9-.62-.27-1.43-.4-2.42-.4-.66,0-1.31.11-1.95.34-.64.23-1.21.52-1.71.87-.5.35-.89.7-1.18,1.05-.29.35-.43.65-.43.9v2.79c0,.58-.3,1.1-.9,1.55-.6.46-1.25.68-1.95.68-.66,0-1.23-.24-1.71-.71-.48-.48-.71-1.02-.71-1.64,0-.5.12-.95.37-1.36.25-.41.56-.79.93-1.12.37-.33.78-.62,1.21-.87.43-.25.82-.48,1.15-.68,1.07-.62,2.17-1.22,3.29-1.8,1.12-.58,2.18-1.07,3.19-1.49,1.01-.41,1.94-.74,2.79-.99.85-.25,1.54-.37,2.08-.37,1.07,0,2.09.28,3.04.84.95.56,1.63,1.25,2.05,2.08.17.29.27.8.31,1.52.04.72.06,1.44.06,2.14,0,1.49-.01,2.83-.03,4.03-.02,1.2-.03,2.36-.03,3.48s-.01,2.26-.03,3.44c-.02,1.18-.03,2.47-.03,3.88,0,1.86.32,3.09.96,3.69.64.6,1.38.9,2.2.9.95,0,1.65-.2,2.11-.59.45-.39.76-.9.93-1.52h.37c-.04.79-.23,1.55-.56,2.3M204.65,6.45c-1.22-1.86-2.82-3.27-4.81-4.22-.99-.46-2.05-.77-3.16-.93-1.12-.17-2.27-.25-3.47-.25-.87,0-1.54.03-2.02.09-.48.06-.86.11-1.15.15-.04.25-.09.46-.15.65-.06.19-.11.42-.16.71-.04.29-.08.69-.12,1.21-.04.52-.08,1.25-.12,2.2-.04,1.45-.07,3.21-.09,5.27-.02,2.07-.03,4.1-.03,6.08v7.94c1.7,0,3.29-.05,4.78-.15,1.49-.1,2.87-.38,4.16-.84,2.65-.91,4.67-2.41,6.08-4.5,1.41-2.09,2.11-4.43,2.11-7.04,0-2.4-.61-4.53-1.83-6.39M212.43,17.31c-.5,1.24-1.15,2.34-1.95,3.29-.81.95-1.75,1.77-2.82,2.45-1.08.68-2.17,1.23-3.29,1.64-1.16.41-2.4.72-3.72.93-1.32.21-2.66.36-4,.47-1.35.1-2.66.15-3.94.15h-3.35v5.83c0,.7.01,1.36.03,1.95.02.6.03,1.25.03,1.95.04,1.32.08,2.46.12,3.41.04.95.27,1.74.68,2.36.33.54.97,1.08,1.92,1.61.95.54,2.27.85,3.97.93v.62h-19.85v-.62c1.03-.17,2.03-.41,2.98-.74.95-.33,1.7-.83,2.23-1.49.21-.25.37-.62.5-1.12s.22-1.05.28-1.68c.06-.62.11-1.28.15-1.99.04-.7.06-1.39.06-2.05,0-.58.01-1.36.03-2.36.02-.99.04-2.08.06-3.26.02-1.18.03-2.39.03-3.63v-15.7c0-.74-.01-1.5-.03-2.26-.02-.76-.06-1.49-.12-2.17-.06-.68-.17-1.3-.31-1.86-.15-.56-.34-.96-.59-1.21-.62-.66-1.42-1.11-2.39-1.33-.97-.23-2.02-.42-3.13-.59V.25h1.49c.79,0,1.71,0,2.76-.03,1.05-.02,2.2-.03,3.44-.03s2.47-.01,3.69-.03c1.22-.02,2.37-.03,3.44-.03h2.79c2.73,0,5.15.14,7.26.4,2.11.27,4.1.92,5.96,1.95,1.82.99,3.33,2.4,4.53,4.22,1.2,1.82,1.8,3.97,1.8,6.45,0,1.53-.25,2.92-.74,4.16M147.53,44.91h-8.25V0h8.25v16.93c1.99-2.36,5.34-3.35,8.25-3.35,7.75,0,11.35,5.4,11.35,12.1v19.23h-8.25v-17.8c0-3.41-1.68-6.08-5.65-6.08-3.47,0-5.52,2.6-5.71,5.95v17.93ZM129.92,14.49h6.14v7.32h-6.14v12.78c0,2.67,1.24,3.54,3.6,3.54.99,0,2.11-.12,2.54-.25v6.82c-.74.31-2.23.74-4.65.74-5.95,0-9.68-3.54-9.68-9.43v-14.21h-5.52v-7.32h1.55c3.23,0,4.71-2.11,4.71-4.84v-4.28h7.44v9.12ZM104.97.1h8.25v44.91h-8.25V.1ZM92.25,32.66v-1.36l-6.89,1.05c-2.11.31-3.78,1.49-3.78,3.85,0,1.8,1.3,3.54,3.97,3.54,3.47,0,6.7-1.68,6.7-7.07M82.44,27.45l7.51-1.12c1.74-.25,2.3-1.12,2.3-2.17,0-2.17-1.68-3.97-5.15-3.97s-5.58,2.3-5.83,4.96l-7.32-1.55c.5-4.78,4.9-10.05,13.09-10.05,9.68,0,13.27,5.46,13.27,11.6v15.01c0,1.61.19,3.79.37,4.84h-7.57c-.19-.81-.31-2.48-.31-3.66-1.55,2.42-4.47,4.53-8.99,4.53-6.51,0-10.48-4.4-10.48-9.18,0-5.46,4.03-8.5,9.12-9.24M62,26.27c-.12-3.04-2.11-6.02-6.82-6.02-4.28,0-6.64,3.23-6.82,6.02h13.65ZM69.69,36.26c-1.55,5.27-6.39,9.68-13.9,9.68-8.37,0-15.76-6.02-15.76-16.32,0-9.74,7.2-16.07,15.01-16.07,9.43,0,15.07,6.02,15.07,15.82,0,1.18-.12,2.42-.12,2.54h-21.84c.19,4.03,3.6,6.95,7.69,6.95,3.85,0,5.96-1.92,6.95-4.65l6.89,2.05ZM27.73,45.01v-18.24H8.56v18.24H0V1.03h8.56v17.68h19.17V1.03h8.62v43.98h-8.62Z"/>
  <g>
    <path class="cls-1" d="M11.04,80.3v-7.56H2.35v7.56H0v-17.02h2.35v7.27h8.69v-7.27h2.35v17.02h-2.35Z"/>
    <path class="cls-1" d="M26.5,77.01c-.65,2.04-2.5,3.65-5.18,3.65-3.1,0-5.81-2.26-5.81-6.17,0-3.62,2.62-6.1,5.52-6.1,3.55,0,5.54,2.45,5.54,6.05,0,.29-.02.58-.05.72h-8.69c.05,2.06,1.54,3.5,3.48,3.5s2.81-1.03,3.24-2.33l1.94.67ZM24.22,73.34c-.05-1.66-1.13-2.95-3.17-2.95-1.9,0-3.05,1.46-3.14,2.95h6.31Z"/>
    <path class="cls-1" d="M31.18,73.7l3.12-.46c.7-.1.89-.46.89-.86,0-1.13-.74-2.06-2.5-2.06-1.58,0-2.47.98-2.62,2.33l-2.16-.5c.24-2.21,2.23-3.74,4.73-3.74,3.46,0,4.8,1.97,4.8,4.22v5.78c0,1.01.1,1.61.14,1.9h-2.21c-.05-.29-.12-.72-.12-1.56-.5.82-1.66,1.92-3.72,1.92-2.35,0-3.86-1.63-3.86-3.46,0-2.06,1.51-3.22,3.5-3.5ZM35.19,75.35v-.53l-3.53.53c-.96.14-1.68.7-1.68,1.73,0,.86.72,1.68,1.87,1.68,1.85,0,3.34-.89,3.34-3.41Z"/>
    <path class="cls-1" d="M40.03,80.3v-17.38h2.26v17.38h-2.26Z"/>
    <path class="cls-1" d="M48.12,68.75h2.5v2.04h-2.5v6c0,1.06.43,1.58,1.61,1.58.29,0,.7-.05.89-.1v1.92c-.19.07-.77.22-1.54.22-1.97,0-3.22-1.2-3.22-3.29v-6.34h-2.21v-2.04h.62c1.25,0,1.78-.77,1.78-1.78v-1.87h2.06v3.65Z"/>
    <path class="cls-1" d="M54.6,80.3h-2.26v-17.38h2.26v7.18c.84-1.22,2.18-1.68,3.5-1.68,2.76,0,4.13,1.99,4.13,4.56v7.32h-2.26v-6.94c0-1.61-.67-2.9-2.69-2.9-1.73,0-2.64,1.34-2.69,3.05v6.79Z"/>
    <path class="cls-1" d="M70.99,62.75c.91,0,1.63.72,1.63,1.63s-.72,1.61-1.63,1.61-1.61-.72-1.61-1.61.72-1.63,1.61-1.63ZM69.89,80.3v-11.54h2.23v11.54h-2.23Z"/>
    <path class="cls-1" d="M77.06,80.3h-2.26v-11.54h2.21v1.66c.84-1.44,2.21-1.99,3.55-1.99,2.76,0,4.13,1.99,4.13,4.56v7.32h-2.26v-6.94c0-1.61-.67-2.9-2.69-2.9-1.78,0-2.69,1.42-2.69,3.17v6.67Z"/>
    <path class="cls-1" d="M88.39,76.58c.14,1.2,1.06,2.16,2.69,2.16,1.27,0,1.97-.72,1.97-1.54,0-.72-.53-1.27-1.49-1.49l-1.97-.43c-1.8-.38-2.88-1.61-2.88-3.24,0-1.97,1.85-3.65,4.1-3.65,3.17,0,4.15,2.06,4.39,3.1l-1.99.74c-.1-.6-.58-1.92-2.4-1.92-1.15,0-1.92.74-1.92,1.54,0,.7.43,1.2,1.32,1.39l1.87.41c2.09.46,3.19,1.73,3.19,3.43s-1.37,3.58-4.22,3.58c-3.17,0-4.51-2.04-4.7-3.36l2.04-.72Z"/>
    <path class="cls-1" d="M101.42,80.66c-2.69,0-4.32-2.02-4.32-4.63v-7.27h2.26v6.94c0,1.58.72,2.98,2.62,2.98s2.74-1.2,2.74-2.95v-6.96h2.26v9.41c0,.91.07,1.73.12,2.14h-2.16c-.05-.26-.1-.91-.1-1.39-.62,1.2-2.06,1.75-3.41,1.75Z"/>
    <path class="cls-1" d="M116.09,71.03c-.34-.05-.67-.07-.98-.07-1.9,0-3.17,1.01-3.17,3.55v5.78h-2.26v-11.54h2.21v2.02c.84-1.78,2.28-2.21,3.46-2.21.31,0,.62.05.74.07v2.4Z"/>
    <path class="cls-1" d="M120.17,73.7l3.12-.46c.7-.1.89-.46.89-.86,0-1.13-.74-2.06-2.5-2.06-1.58,0-2.47.98-2.62,2.33l-2.16-.5c.24-2.21,2.23-3.74,4.73-3.74,3.46,0,4.8,1.97,4.8,4.22v5.78c0,1.01.1,1.61.14,1.9h-2.21c-.05-.29-.12-.72-.12-1.56-.5.82-1.66,1.92-3.72,1.92-2.35,0-3.86-1.63-3.86-3.46,0-2.06,1.51-3.22,3.5-3.5ZM124.18,75.35v-.53l-3.53.53c-.96.14-1.68.7-1.68,1.73,0,.86.72,1.68,1.87,1.68,1.85,0,3.34-.89,3.34-3.41Z"/>
    <path class="cls-1" d="M131.28,80.3h-2.26v-11.54h2.21v1.66c.84-1.44,2.21-1.99,3.55-1.99,2.76,0,4.13,1.99,4.13,4.56v7.32h-2.26v-6.94c0-1.61-.67-2.9-2.69-2.9-1.78,0-2.69,1.42-2.69,3.17v6.67Z"/>
    <path class="cls-1" d="M143.02,74.51c0,2.64,1.66,4.06,3.53,4.06,2.16,0,2.95-1.46,3.22-2.38l1.99.86c-.55,1.66-2.21,3.6-5.21,3.6-3.36,0-5.83-2.64-5.83-6.14s2.52-6.12,5.81-6.12c3.07,0,4.66,1.92,5.14,3.67l-2.04.86c-.29-1.13-1.13-2.45-3.1-2.45-1.82,0-3.5,1.34-3.5,4.03Z"/>
    <path class="cls-1" d="M163.68,77.01c-.65,2.04-2.5,3.65-5.18,3.65-3.1,0-5.81-2.26-5.81-6.17,0-3.62,2.62-6.1,5.52-6.1,3.55,0,5.54,2.45,5.54,6.05,0,.29-.02.58-.05.72h-8.69c.05,2.06,1.54,3.5,3.48,3.5s2.81-1.03,3.24-2.33l1.94.67ZM161.4,73.34c-.05-1.66-1.13-2.95-3.17-2.95-1.9,0-3.05,1.46-3.14,2.95h6.31Z"/>
    <path class="cls-1" d="M166.8,77.08c.94,0,1.68.74,1.68,1.68s-.74,1.66-1.68,1.66-1.66-.72-1.66-1.66.72-1.68,1.66-1.68Z"/>
    <path class="cls-1" d="M192.29,80.3v-13.25l-5.81,13.25h-2.16l-5.76-13.25v13.25h-2.33v-17.02h3.19l6,13.85,6.05-13.85h3.14v17.02h-2.33Z"/>
    <path class="cls-1" d="M200.28,73.7l3.12-.46c.7-.1.89-.46.89-.86,0-1.13-.74-2.06-2.5-2.06-1.58,0-2.47.98-2.62,2.33l-2.16-.5c.24-2.21,2.23-3.74,4.73-3.74,3.46,0,4.8,1.97,4.8,4.22v5.78c0,1.01.1,1.61.14,1.9h-2.21c-.05-.29-.12-.72-.12-1.56-.5.82-1.66,1.92-3.72,1.92-2.35,0-3.86-1.63-3.86-3.46,0-2.06,1.51-3.22,3.5-3.5ZM204.29,75.35v-.53l-3.53.53c-.96.14-1.68.7-1.68,1.73,0,.86.72,1.68,1.87,1.68,1.85,0,3.34-.89,3.34-3.41Z"/>
    <path class="cls-1" d="M217.44,78.55c-.55,1.1-1.78,2.06-3.58,2.06-3.38,0-5.47-2.69-5.47-6.12s2.21-6.05,5.47-6.05c2.04,0,3.14,1.01,3.53,1.94v-7.46h2.23v15.24c0,1.1.1,1.94.12,2.14h-2.18c-.05-.26-.12-.86-.12-1.56v-.19ZM214.08,78.62c2.06,0,3.34-1.8,3.34-4.18s-1.25-4.01-3.31-4.01-3.41,1.68-3.41,4.06,1.22,4.13,3.38,4.13Z"/>
    <path class="cls-1" d="M232.56,77.01c-.65,2.04-2.5,3.65-5.18,3.65-3.1,0-5.81-2.26-5.81-6.17,0-3.62,2.62-6.1,5.52-6.1,3.55,0,5.54,2.45,5.54,6.05,0,.29-.02.58-.05.72h-8.69c.05,2.06,1.54,3.5,3.48,3.5s2.81-1.03,3.24-2.33l1.94.67ZM230.28,73.34c-.05-1.66-1.13-2.95-3.17-2.95-1.9,0-3.05,1.46-3.14,2.95h6.31Z"/>
    <path class="cls-1" d="M241.85,80.3h-2.26v-17.38h2.26v7.18c.84-1.22,2.18-1.68,3.5-1.68,2.76,0,4.13,1.99,4.13,4.56v7.32h-2.26v-6.94c0-1.61-.67-2.9-2.69-2.9-1.73,0-2.64,1.34-2.69,3.05v6.79Z"/>
    <path class="cls-1" d="M256.25,80.66c-2.69,0-4.32-2.02-4.32-4.63v-7.27h2.26v6.94c0,1.58.72,2.98,2.62,2.98s2.74-1.2,2.74-2.95v-6.96h2.26v9.41c0,.91.07,1.73.12,2.14h-2.16c-.05-.26-.1-.91-.1-1.39-.62,1.2-2.06,1.75-3.41,1.75Z"/>
    <path class="cls-1" d="M264.5,80.3v-11.54h2.16v1.54c.72-1.27,2.16-1.87,3.5-1.87,1.44,0,2.83.7,3.46,2.18.91-1.66,2.4-2.18,3.86-2.18,2.02,0,3.98,1.37,3.98,4.39v7.49h-2.23v-7.25c0-1.51-.74-2.64-2.45-2.64-1.58,0-2.66,1.25-2.66,2.9v6.98h-2.26v-7.25c0-1.49-.72-2.64-2.45-2.64-1.61,0-2.69,1.2-2.69,2.93v6.96h-2.23Z"/>
    <path class="cls-1" d="M286.77,73.7l3.12-.46c.7-.1.89-.46.89-.86,0-1.13-.74-2.06-2.5-2.06-1.58,0-2.47.98-2.62,2.33l-2.16-.5c.24-2.21,2.23-3.74,4.73-3.74,3.46,0,4.8,1.97,4.8,4.22v5.78c0,1.01.1,1.61.14,1.9h-2.21c-.05-.29-.12-.72-.12-1.56-.5.82-1.66,1.92-3.72,1.92-2.35,0-3.86-1.63-3.86-3.46,0-2.06,1.51-3.22,3.5-3.5ZM290.78,75.35v-.53l-3.53.53c-.96.14-1.68.7-1.68,1.73,0,.86.72,1.68,1.87,1.68,1.85,0,3.34-.89,3.34-3.41Z"/>
    <path class="cls-1" d="M297.89,80.3h-2.26v-11.54h2.21v1.66c.84-1.44,2.21-1.99,3.55-1.99,2.76,0,4.13,1.99,4.13,4.56v7.32h-2.26v-6.94c0-1.61-.67-2.9-2.69-2.9-1.78,0-2.69,1.42-2.69,3.17v6.67Z"/>
    <path class="cls-1" d="M309.26,77.08c.94,0,1.68.74,1.68,1.68s-.74,1.66-1.68,1.66-1.66-.72-1.66-1.66.72-1.68,1.66-1.68Z"/>
  </g>
</svg>