<svg xmlns="http://www.w3.org/2000/svg" fill="none" viewBox="0 0 211 91" role="img" aria-labelledby="header-logo-title" class="h-12">
    <title id="header-logo-title">Westfund</title>
    <path fill="#F06020" d="M85.7 32.9c1.2-.5 1.9-1.9 1.4-3.2A45 45 0 1085.7 64a2.4 2.4 0 10-4.4-2A40 40 0 014.9 43.7a40.1 40.1 0 0177.7-12.3c.4 1.3 1.8 2 3 1.5zm18 17.5c0-3.9-3.5-5.3-6.6-6.2-2.5-.8-4.8-1.5-4.8-3V41c0-1.2 1.1-2.1 3-2.1 1.5 0 3.3.5 5 1.4.3.2.5.3 1 .3a2 2 0 002-2A2 2 0 00102 37c-2-1.1-4.4-1.8-6.7-1.8-4.2 0-7.5 2.5-7.5 6.5 0 4.1 3.5 5.4 6.6 6.3 2.5.8 4.7 1.3 4.7 3 0 1.4-1.2 2.3-3.3 2.3-1.9 0-4-.7-6-2-.3-.2-.7-.3-1.1-.3a2 2 0 00-2 2c0 .8.4 1.4 1 1.6 2.4 1.7 5.3 2.6 8 2.6 4.4 0 7.9-2.2 7.9-6.7zm-48-13.3l-4.1 13-4.2-13c-.3-1-1.2-1.8-2.5-1.8h-.3c-1.2 0-2 .8-2.4 1.9L38 50l-4-12.8c-.4-1.1-1.2-2-2.4-2-1.5 0-2.4 1.1-2.4 2.3l.2 1.2L35.1 55c.5 1.5 1.5 2.1 2.7 2.1h.2c1.2 0 2.2-.6 2.6-2l4.2-12.6L48.9 55c.4 1.4 1.4 2 2.6 2h.2c1.2 0 2.2-.6 2.7-2.1l5.8-16.3.2-1.1c0-1.2-1-2.2-2.3-2.2-1.3 0-2 .8-2.4 1.8zm128 17.4V43.2c0-5-2.8-8.1-7.5-8.1a7.7 7.7 0 00-6.7 3.6v-1a2.4 2.4 0 10-4.8 0v16.8c0 1.3 1 2.4 2.4 2.4s2.4-1 2.4-2.4v-9.8c0-3.3 2-5.2 4.8-5.2 2.9 0 4.5 1.9 4.5 5.1v9.9c0 1.3 1.1 2.4 2.5 2.4s2.4-1 2.4-2.4zM115.4 57c1.2 0 2.2-.2 3.3-.5a2 2 0 001.3-2c0-1-1-2-2-2l-1.3.2c-1.6 0-2.6-.8-2.6-2.6V39.7h3.8c1.2 0 2.1-1 2.1-2.1 0-1.2-1-2.1-2-2.1H114v-3.6c0-1.3-1-2.4-2.4-2.4s-2.4 1-2.4 2.4v3.6h-.8a2 2 0 00-2.1 2c0 1.2.9 2.2 2 2.2h.9v11.1c0 4.7 2.5 6.2 6 6.2zm21-19.3a2 2 0 00-2-2h-3.8v-1.2c0-2.2 1-3.2 2.8-3.2h1a2 2 0 002-2 2 2 0 00-1.6-2 14 14 0 00-2.5-.1c-2 0-3.6.5-4.8 1.6-1 1.2-1.7 3-1.7 5.3v1.5h-.8a2 2 0 00-2 2c0 1.2.9 2 2 2h.8v14.9a2.4 2.4 0 004.9 0V39.7h3.7a2 2 0 002-2zm69.2 8.4c0 4-2.9 6.8-6.1 6.8-3.3 0-6.1-2.7-6.1-6.8 0-4.3 2.7-6.8 6-6.8s6.2 2.7 6.2 6.7v.1zm2.3-18.9c-1.3 0-2.4 1-2.4 2.4v9.2a8.7 8.7 0 00-7.2-3.7c-5 0-9.8 4-9.8 11s4.8 11 9.8 11c3.4 0 5.7-1.7 7.2-4v1.4c0 1.3 1.1 2.4 2.5 2.4 1.3 0 2.4-1 2.4-2.4V29.6c0-1.4-1.1-2.4-2.5-2.4zm-51.7 8c-1.4 0-2.5 1.1-2.5 2.5v9.8c0 3.2-2 5.2-4.7 5.2-3 0-4.6-1.9-4.6-5.2v-9.8a2.4 2.4 0 10-4.8 0V49c0 5 2.7 8.1 7.5 8.1 3.3 0 5.3-1.7 6.6-3.7v1c0 1.4 1.2 2.5 2.5 2.5s2.4-1.1 2.4-2.4V37.7c0-1.4-1-2.4-2.4-2.4zM68 44.7c.4-3.3 2.5-5.6 5.5-5.6 3.2 0 5 2.5 5.4 5.6h-11zm15.6.9c0-5-3.3-10.4-10-10.4-6.1 0-10.4 5-10.4 11 0 6.6 4.7 11 10.8 11 3.3 0 5.7-1 7.7-2.8.3-.3.6-.8.6-1.4a2 2 0 00-2-2c-.5 0-.8.2-1.2.4a7.6 7.6 0 01-5 1.9c-3.1 0-5.5-2-6-5.4h13.2c1.2 0 2.3-1 2.3-2.3z"></path>
</svg>