<?xml version="1.0" encoding="utf-8"?>
<svg viewBox="0 0 500 500" xmlns="http://www.w3.org/2000/svg">
  <defs/>
  <path d="M 50.658 111.592 L 50.944 286.202 L 67.574 291.936 L 71.588 287.636 L 81.05 289.929 L 83.63 287.349 L 92.446 296.811 L 100.546 312.293 L 104.274 309.139 L 107.141 304.552 L 115.169 310.573 L 125.204 313.44 L 123.484 320.035 L 126.064 326.916 L 131.512 326.916 L 132.659 328.923 L 134.666 333.224 L 152.442 344.406 L 159.61 352.147 L 169.072 360.175 L 171.939 356.734 L 174.806 351.287 L 178.82 348.706 L 185.128 349.566 L 192.446 347.273 L 200.324 353.294 L 203.478 352.147 L 206.632 355.301 L 213.226 355.588 L 222.114 353.581 L 225.268 353.007 L 230.429 356.161 L 237.597 357.881 L 241.611 355.014 L 248.206 356.448 L 248.779 352.72 L 254.513 353.294 L 259.101 352.72 L 267.702 357.308 L 270.283 364.189 L 270.569 367.343 L 272.29 374.511 L 275.444 372.504 L 272.576 380.479 L 329.346 408.917 L 329.346 398.882 L 329.633 394.294 L 327.913 389.42 L 330.493 373.937 L 333.36 366.483 L 334.794 363.616 L 335.367 356.448 L 335.367 348.706 L 343.109 336.951 L 349.13 327.489 L 354.004 321.182 L 353.144 315.16 L 357.731 306.559 L 359.452 295.09 L 368.627 287.062 L 371.494 280.479 L 371.78 268.999 L 376.941 261.544 L 384.396 248.929 L 392.446 242.908 L 398.445 238.894 L 405.04 231.439 L 408.193 230.006 L 409.914 221.691 L 407.62 218.824 L 414.501 209.075 L 419.375 198.754 L 422.529 188.432 L 423.963 180.479 L 425.97 176.39 L 423.103 173.809 L 423.389 164.348 L 428.264 151.732 L 431.991 139.403 L 434.285 129.368 L 432.851 121.053 L 437.152 116.179 L 437.152 112.165 L 442.599 105.571 L 442.313 100.983 L 440.592 97.256 L 439.446 80.479 C 439.561 82.586 436.212 83.615 430.323 85.462 C 428.367 86.076 427.607 88.724 425.258 89.387 C 423.2 89.968 420.672 88.757 418.334 89.227 C 415.84 89.729 411.186 87.937 408.534 88.185 C 405.545 88.465 404.556 90.794 401.766 91.615 C 398.29 92.639 395.293 95.408 392.446 96.378 C 390.004 97.21 394.634 100.891 392.446 101.681 C 389.226 102.844 395.954 107.651 392.446 108.673 C 389.462 109.543 384.04 108.943 380.943 109.732 C 377.542 110.599 376.637 119.349 373.088 119.896 C 370.443 120.303 368.904 105.495 366.185 105.863 C 361.721 106.467 362.87 103.395 356.184 100.965 C 353.6 100.026 349.572 99.823 346.798 100.293 C 343.112 100.918 342.233 94.744 338.436 95.548 C 331.604 96.994 324.635 98.772 316.726 97.477 C 312.387 96.767 308.735 100.896 304.265 105.188 C 302.212 107.158 300.886 112.575 297.612 112.516 C 189.243 110.576 55.909 111.713 50.658 111.592 Z" style=""/>
</svg>