<?xml version="1.0" encoding="utf-8"?>
<svg viewBox="0 0 500 500" xmlns="http://www.w3.org/2000/svg">
  <defs/>
  <g transform="matrix(0.77714, 0, 0, 0.77714, -76.126535, -13.250807)" style="">
    <path style="" d="M 282.124 209.544 L 285.003 212.999 L 283.851 218.182 L 286.539 207.432 L 293.449 209.543 L 297.097 214.151 L 297.481 207.048 L 294.985 204.36 L 300 204.36 L 300 200 L 294.601 195.338 L 289.61 190.923 L 291.338 184.588 L 295.561 179.981 L 300 176.333 L 300 172.494 L 300 170.19 L 303.432 167.119 L 303.624 162.896 L 303.815 160.016 L 305.735 157.329 L 309.382 159.44 L 312.262 157.905 L 317.253 153.297 L 318.021 148.882 L 314.949 144.851 L 313.606 141.588 L 313.606 138.708 L 316.869 139.86 L 320.133 137.172 L 320.325 133.717 L 320.133 128.918 L 322.628 127.766 L 324.74 129.11 L 328.003 129.494 L 327.619 126.038 L 327.043 122.967 L 329.347 121.047 L 329.923 117.784 L 332.994 117.784 L 335.49 119.703 L 336.834 121.623 L 337.985 118.744 L 340.097 116.632 L 340.097 112.601 L 343.168 112.025 L 346.432 113.561 L 347.008 110.489 L 348.543 109.721 L 350.079 112.793 L 351.231 116.056 L 354.686 116.632 L 362.557 116.632 L 366.396 115.096 L 369.66 117.4 L 372.923 117.016 L 375.611 114.904 L 378.298 112.985 L 379.45 114.712 L 380.986 112.793 L 383.481 111.833 L 387.512 111.065 L 389.432 108.186 L 390.2 103.578 L 390.008 100 L 390.008 96.86 L 388.664 93.788 L 387.512 90.525 L 386.169 88.029 L 383.289 87.261 L 380.986 87.261 L 377.53 87.837 L 373.883 90.525 L 372.539 88.989 L 370.236 85.726 L 367.932 83.422 L 365.628 81.886 L 368.508 79.967 L 371.387 78.431 L 374.459 80.735 L 377.722 85.534 L 379.642 79.391 L 383.865 80.543 L 387.512 84.766 L 390.392 88.989 L 394.807 89.373 L 400 87.069 L 400 87.645 L 406.901 92.828 L 407.861 95.516 L 412.084 100 L 417.459 100 L 421.106 100 L 424.946 100 L 430.705 100 L 430.897 102.811 L 435.888 103.194 L 440.111 105.306 L 444.718 106.65 L 451.629 109.145 L 455.276 106.266 L 457.004 107.802 L 459.308 110.489 L 461.803 110.105 L 463.339 111.641 L 464.299 114.328 L 471.209 114.712 L 474.281 113.561 L 479.272 110.489 L 482.535 107.61 L 488.102 104.346 L 490.214 100 L 493.477 97.244 L 496.165 93.98 L 500 91.868 L 503.844 90.909 L 509.794 86.493 L 512.674 82.654 L 514.786 78.047 L 516.129 75.168 L 517.473 76.511 L 515.361 81.31 L 512.482 85.15 L 509.027 89.181 L 505.763 92.444 L 500 95.708 L 496.741 100 L 494.245 102.427 L 490.214 107.034 L 485.223 111.257 L 484.647 113.177 L 486.567 114.904 L 490.79 112.409 L 494.053 113.561 L 495.205 117.592 L 495.781 122.199 L 500 121.623 L 505.763 119.32 L 505.955 116.824 L 502.692 113.561 L 500 111.641 L 503.844 107.034 L 508.259 105.882 L 511.33 107.994 L 511.714 111.449 L 515.745 116.056 L 518.625 113.945 L 523.424 116.824 L 523.616 118.552 L 519.585 124.887 L 516.513 128.918 L 513.826 131.989 L 515.169 136.021 L 512.29 137.556 L 512.29 140.244 L 509.411 146.387 L 508.451 150.802 L 506.339 149.842 L 506.339 145.235 L 504.611 143.891 L 500 147.538 L 495.781 151.762 L 491.366 152.914 L 491.558 155.025 L 490.214 159.632 L 491.75 164.815 L 496.741 166.735 L 494.821 174.03 L 493.477 179.789 L 490.214 184.012 L 486.951 189.003 L 481.767 193.994 L 479.464 197.066 L 477.352 200 L 476.392 205.704 L 480.424 211.271 L 484.455 213.191 L 490.79 216.262 L 492.901 220.101 L 500 223.173 L 500 227.204 L 505.955 230.852 L 508.259 234.307 L 512.098 236.994 L 515.361 238.53 L 517.857 241.41 L 521.504 242.177 L 523.04 239.106 L 525.659 235.859 L 530.29 245.122 L 547.272 255.157 L 556.286 264.418 L 556.286 590.468 L 277.744 589.817 L 278.011 207.398 L 282.124 209.544 Z"/>
    <polygon style="" points="507.875 170.574 508.259 176.525 508.451 180.557 509.219 183.82 512.482 184.78 516.513 185.548 520.737 186.699 523.424 186.699 524.96 182.284 521.312 181.708 517.473 181.708 516.897 178.829 518.625 176.525 518.817 173.07 521.12 170.382 520.928 167.887 517.473 168.271 515.937 164.431 511.33 163.664 509.602 165.391 508.835 167.311"/>
    <polygon style="" points="339.521 103.77 344.896 100 349.695 96.86 351.231 93.788 355.262 93.596 356.222 88.605 353.343 82.654 350.271 80.351 346.816 80.159 342.017 83.038 338.945 83.806 333.954 84.574 329.347 84.766 327.235 83.23 323.012 80.926 320.325 81.694 318.021 84.19 314.374 87.837 316.101 92.252 316.677 95.132 313.606 96.668 310.342 100 317.445 100 323.012 100 328.771 100 334.914 100"/>
  </g>
</svg>