<?xml version="1.0" encoding="utf-8"?>
<svg viewBox="0 0 500 500" xmlns="http://www.w3.org/2000/svg">
  <defs/>
  <path style="" d="M 84.241 60.78 L 85.731 234.228 L 104.232 230.878 L 127.417 231.25 L 143.422 228.272 L 156.822 232.366 C 160.668 236.853 165.755 240.594 172.082 243.59 C 174.773 244.865 177.751 244.865 181.015 243.59 C 186.311 241.522 191.646 243.488 197.02 249.488 C 200.441 253.308 204.536 253.184 209.302 249.116 C 212.967 245.988 216.937 248.718 221.213 257.304 C 222.869 260.63 223.862 263.98 224.191 267.354 C 224.526 270.779 226.015 273.88 228.658 276.66 C 231.147 279.278 234.87 280.643 239.823 280.754 C 243.686 280.841 244.058 284.686 240.94 292.292 C 240.516 293.328 241.756 293.699 244.662 293.408 C 250.094 292.864 253.32 296.958 254.34 305.692 C 255.011 311.448 255.508 317.278 255.828 323.185 C 256.037 327.028 259.014 329.465 264.761 330.498 C 269.885 331.418 274.313 331.418 278.047 330.498 C 280.986 329.773 279.039 327.459 272.206 323.557 C 267.006 320.588 274.937 320.379 283.372 308.669 C 288.3 301.826 292.603 297.657 298.26 295.642 C 307.057 292.508 310.713 280.384 317.987 272.937 C 320.68 270.181 322.789 266.955 324.315 263.26 C 326.031 259.103 323.798 262.826 325.803 275.171 C 326.294 278.195 327.783 280.18 322.081 280.382 C 320.025 280.455 328.52 284.579 327.664 287.081 C 325.541 293.285 322.647 291.024 316.498 302.342 C 313.758 307.387 310.69 310.506 314.637 319.463 C 316.259 323.145 314.894 326.823 310.542 330.498 C 307.966 332.673 304.244 332.673 299.377 330.498 C 296.039 329.006 295.542 332.399 297.888 340.679 C 299.129 345.058 303.471 343.694 310.915 336.585 C 312.712 334.869 314.835 335.749 318.359 336.957 C 323.21 338.619 324.575 334.898 323.57 322.441 C 323.099 316.607 325.457 311.272 330.642 306.436 C 334.743 302.612 331.885 311.869 337.714 321.697 C 342.935 330.498 339.252 340.728 332.131 349.984 C 329.407 353.526 334.772 353.938 345.531 349.612 C 354.993 345.807 364.954 356.353 370.096 367.85 C 373.069 374.497 375.844 381.232 378.657 387.949 C 379.655 390.33 377.545 391.819 372.329 392.416 C 368.036 392.907 370.766 396.257 380.518 402.465 C 384.669 405.108 387.522 410.088 389.078 417.405 C 390.353 423.402 405.988 433.978 406.2 423.681 C 407.918 340.318 406.245 296.328 407.688 62.269 C 407.695 61.228 319.656 61.427 227.661 61.374 C 176.181 61.343 123.463 61.233 84.241 60.78 Z"/>
</svg>