<?xml version="1.0" encoding="utf-8"?>
<svg viewBox="0 0 500 500" xmlns="http://www.w3.org/2000/svg">
  <defs/>
  <path style="" d="M 67.797 89.245 L 62.289 95.441 L 65.042 103.704 L 66.762 119.886 L 60.223 124.705 L 60.566 133.653 L 67.108 148.112 L 70.204 161.194 L 76.402 174.964 L 83.976 192.866 L 91.207 211.455 L 111.516 232.799 L 121.5 241.405 L 122.533 256.553 L 119.09 264.125 L 115.304 273.422 L 122.19 300.272 L 135.615 320.238 C 137.563 326.322 139.746 332.403 142.154 338.486 C 143.132 340.954 145.11 343.478 148.086 346.06 C 149.309 347.12 150.887 346.773 152.827 345.025 C 157.103 341.172 159.398 346.451 159.713 360.861 C 159.779 363.923 163.796 366.332 171.761 368.093 C 178.102 369.495 178.448 376.38 182.087 384.614 C 183.798 388.482 187.124 391.236 192.073 392.875 C 195.689 394.074 197.411 399.126 197.235 408.023 C 197.167 411.476 200.38 410.211 206.874 404.238 C 211.607 399.888 218.032 399.655 226.154 403.55 C 229.181 405.002 232.51 405.461 236.136 404.927 C 243.32 403.867 250.547 405.82 257.825 410.778 C 263.35 414.542 269.888 415.917 277.447 414.909 C 280.804 414.459 282.411 411.476 282.265 405.957 C 282.142 401.174 285.47 397.729 292.251 395.629 C 298.719 393.627 300.209 388.349 296.726 379.793 C 294.796 375.058 299.847 374.258 311.873 377.386 C 316.75 378.654 321.109 376.128 324.955 369.811 C 326.165 367.826 324.559 365.301 320.135 362.238 C 315.635 359.126 316.553 353.731 322.888 346.06 C 325.404 343.016 328.615 339.573 332.528 335.731 C 336.562 331.774 342.183 331.198 349.395 334.009 C 353.699 335.687 358.176 336.835 362.823 337.452 C 367.527 338.075 371.541 335.549 374.87 329.878 C 376.891 326.435 378.153 322.649 378.656 318.52 C 379.071 315.104 380.564 312.008 383.133 309.222 C 383.133 309.222 381.526 306.585 378.313 301.306 C 376.939 299.049 378.545 297.264 383.133 295.945 C 386.547 294.965 388.726 292.163 389.672 287.536 C 389.98 286.024 388.949 283.957 386.576 281.339 C 386.023 280.729 387.398 279.236 390.707 276.864 C 393.426 274.916 393.08 271.586 389.672 266.88 C 388.631 265.444 389.319 263.607 391.738 261.371 C 394.03 259.253 395.75 256.269 396.904 252.421 C 398.119 248.368 402.252 247.45 409.296 249.668 C 412.849 250.782 415.946 252.851 418.59 255.863 C 421.106 258.732 420.646 254.942 417.212 244.505 C 416.234 241.531 415.776 238.431 415.836 235.208 C 415.926 230.263 415.583 225.329 414.805 220.407 C 413.893 214.646 414.352 208.45 416.182 201.816 C 416.886 199.263 418.606 196.967 421.344 194.931 C 423.334 193.45 421.271 192.074 415.147 190.8 C 412.526 190.255 412.066 187.615 413.771 182.883 C 415.019 179.423 415.247 175.75 414.458 171.867 C 413.683 168.041 415.289 164.486 419.279 161.194 C 421.375 159.462 420.114 157.054 415.493 153.966 C 410.435 150.587 410.322 144.506 415.147 135.719 C 416.299 133.625 417.675 131.676 419.279 129.868 C 421.631 127.218 420.136 124.004 414.805 120.229 C 411.791 118.094 409.608 115.109 408.262 111.278 C 407.573 109.315 405.508 109.545 402.065 111.966 C 400.295 113.211 398.459 112.064 396.557 108.523 C 395.686 106.905 395.803 105.069 396.904 103.016 C 398.097 100.786 395.573 100.903 389.329 103.362 C 386.157 104.608 383.749 107.017 382.099 110.589 C 380.532 113.981 377.778 116.505 373.84 118.163 C 368.092 120.58 362.008 119.203 355.592 114.032 C 352.935 111.891 349.722 113.039 345.953 117.474 C 342.384 121.672 339.171 126.149 336.313 130.899 C 334.275 134.284 330.721 132.566 325.642 125.736 C 323.242 122.508 319.225 122.279 313.591 125.047 C 310.334 126.649 308.27 129.632 307.395 133.999 C 306.801 136.97 304.392 135.134 300.168 128.49 C 297.539 124.355 292.949 125.392 286.398 131.587 C 282.52 135.253 277.471 136.976 271.25 136.753 C 265.965 136.565 261.146 138.742 256.792 143.293 C 253.056 147.194 247.777 148.341 240.955 146.735 C 235.592 145.471 230.087 145.587 224.43 147.08 C 218.484 148.65 212.401 147.731 206.187 144.326 C 197.161 139.382 187.633 135.48 177.615 132.621 C 166.714 129.513 156.871 123.892 148.086 115.754 C 144.217 112.171 138.796 111.824 131.826 114.72 C 128.723 116.009 130.279 108.706 123.909 107.492 C 119.225 106.6 113.484 102.582 103.599 105.77 C 99.777 107.001 97.551 104.255 96.37 96.131 C 95.985 93.489 93.573 92.342 89.142 92.688 C 83.873 93.1 79.165 95.508 75.023 99.918 C 72.141 102.99 69.73 99.432 67.797 89.245 Z"/>
</svg>