<?xml version="1.0" encoding="utf-8"?>
<svg viewBox="0 0 500 500" xmlns="http://www.w3.org/2000/svg">
  <path style="" d="M 53.683 348.178 L 58.048 343.015 L 67.576 345 L 77.499 350.161 L 88.242 350.557 L 102.908 353.734 L 117.597 363.661 L 129.505 366.04 L 137.049 372.789 L 142.207 371.596 L 148.957 378.345 L 166.822 366.834 L 176.349 353.734 L 193.815 345.398 L 203.342 342.619 L 208.9 337.459 L 206.119 335.076 L 195.8 336.664 L 193.019 333.488 L 203.741 327.536 L 209.694 323.564 L 216.443 318.799 L 223.587 319.595 L 232.719 328.328 L 229.541 338.648 L 223.193 345.793 L 218.03 352.145 L 213.265 349.368 L 220.809 357.305 L 226.367 357.305 L 230.336 351.749 L 235.101 347.38 L 241.055 340.237 L 253.002 344.205 L 245.026 348.573 L 240.26 353.734 L 237.085 356.909 L 246.215 360.881 L 253.002 364.847 L 258.957 368.023 L 264.874 367.628 L 270.034 375.567 L 273.607 379.934 L 278.769 375.965 L 287.895 378.345 L 289.485 386.681 L 297.425 391.445 L 299.412 382.315 L 299.412 375.171 L 312.113 368.82 L 322.038 363.262 L 336.329 352.145 L 344.664 342.222 L 355.383 332.695 L 374.838 322.77 L 397.065 316.02 L 417.763 316.42 L 445.496 314.433 L 458.598 312.844 L 466.537 307.684 L 472.094 303.317 L 478.049 302.921 L 386.349 257.931 L 389.126 248.139 L 382.773 243.771 L 381.585 235.037 L 379.997 222.731 L 374.438 215.585 L 365.705 212.015 L 355.78 212.015 L 343.871 214.792 L 336.726 217.572 L 332.36 216.379 L 327.197 221.144 L 317.672 221.542 L 310.525 216.775 L 305.364 214.395 L 292.265 215.189 L 277.18 216.379 L 272.019 211.616 L 261.737 212.015 L 253.002 202.484 L 236.687 204.072 L 226.762 205.663 L 222.398 212.015 L 222.792 221.937 L 218.428 220.748 L 214.853 220.748 L 195.401 208.838 L 193.417 202.088 L 184.286 194.941 L 171.188 187.8 L 163.646 183.033 L 153.719 179.46 L 152.131 173.109 L 147.765 169.139 L 142.207 163.978 L 137.443 158.82 L 140.223 149.292 L 135.063 141.747 L 128.314 139.766 L 115.61 135.792 L 112.831 134.204 L 106.482 135.396 L 104.494 144.131 L 96.159 140.954 L 94.195 131.031 L 88.242 123.09 L 81.473 113.167 L 73.929 105.227 L 64.4 106.417 L 54.872 108.006 L 45.742 112.769 L 37.407 108.404 L 27.88 105.227 L 19.939 102.051 L 19.939 332.296 L 31.054 337.459 L 39.39 344.603 L 40.584 351.749 L 45.742 351.352 L 53.683 348.178 Z"/>
</svg>